<svg width="60" height="95" viewBox="0 0 60 95" fill="none" xmlns="http://www.w3.org/2000/svg">
<path d="M37.9111 42.2902V42.1743C41.0756 40.9578 42.999 38.4088 42.999 35.0488C42.999 31.9205 41.1997 29.6611 38.966 28.3867C36.9184 27.228 32.9474 27.228 29.907 27.228H17.4976V59.1482H34.0022C40.8274 59.1482 44.3641 54.6875 44.3641 49.9951C44.4261 46.0557 42.1304 43.1012 37.9111 42.2902ZM22.0891 30.8198H31.21C35.119 30.8198 38.4696 31.457 38.4696 35.8598C38.4696 39.2198 36.36 40.9578 31.21 40.9578H22.0891V30.8198ZM33.4437 55.5565H22.0891V44.5495H32.451C36.2979 44.5495 39.8967 45.7081 39.8967 49.8792C39.8967 53.3551 37.3527 55.5565 33.4437 55.5565Z" fill="#7D7F86"/>
<path d="M30.0314 15.2358C13.4647 15.2358 0.0625 27.749 0.0625 43.2167C0.0625 58.6844 13.4647 71.1975 30.0314 71.1975C46.598 71.1975 60.0002 58.6844 60.0002 43.2167C60.0002 27.749 46.598 15.2358 30.0314 15.2358ZM30.0314 67.4899C15.6984 67.4899 4.03353 56.5988 4.03353 43.2167C4.03353 29.8345 15.6984 18.9434 30.0314 18.9434C44.3643 18.9434 56.0292 29.8345 56.0292 43.2167C56.0292 56.5988 44.4263 67.4899 30.0314 67.4899Z" fill="#7D7F86"/>
<path d="M59.9381 77.0498H0.186523V80.6996H59.9381V77.0498Z" fill="#7D7F86"/>
<path d="M58.8202 71.6041C58.572 71.5462 58.3859 71.4883 58.1377 71.4883C57.8895 71.4883 57.6413 71.5462 57.4552 71.6041C57.207 71.72 57.0209 71.7779 56.8968 71.9517C56.7106 72.1255 56.5865 72.2993 56.5245 72.4731C56.4004 72.7049 56.4004 72.8787 56.4004 73.1104C56.4004 73.3421 56.4624 73.5738 56.5245 73.7476C56.6486 73.9794 56.7727 74.1532 56.8968 74.269C57.0829 74.4428 57.2691 74.5587 57.4552 74.6166C57.6413 74.6746 57.8895 74.7325 58.1377 74.7325C58.3859 74.7325 58.6341 74.6746 58.8202 74.6166C59.0064 74.5587 59.1925 74.4428 59.3787 74.269C59.5648 74.0952 59.6889 73.9214 59.7509 73.7476C59.875 73.5738 59.875 73.3421 59.875 73.1104C59.875 72.8787 59.813 72.6469 59.7509 72.4731C59.6889 72.2993 59.5028 72.1255 59.3787 71.9517C59.1925 71.7779 59.0064 71.6621 58.8202 71.6041ZM59.5648 73.1104C59.5648 73.2842 59.5028 73.5159 59.4407 73.6897C59.3787 73.8635 59.2546 74.0373 59.1305 74.1532C59.0064 74.269 58.8202 74.3849 58.6341 74.4428C58.448 74.5008 58.2618 74.5587 58.0757 74.5587C57.8895 74.5587 57.6413 74.5008 57.5172 74.4428C57.3311 74.3849 57.207 74.269 57.0209 74.1532C56.8968 74.0373 56.7727 73.8635 56.7106 73.6897C56.6486 73.5159 56.5865 73.3421 56.5865 73.1104C56.5865 72.8787 56.6486 72.7049 56.7106 72.5311C56.7727 72.3573 56.8968 72.1835 57.0209 72.0676C57.145 71.9517 57.3311 71.8359 57.5172 71.7779C57.7034 71.72 57.8895 71.6621 58.0757 71.6621C58.2618 71.6621 58.51 71.72 58.6341 71.7779C58.8202 71.8359 58.9443 71.9517 59.1305 72.0676C59.2546 72.1835 59.3787 72.3573 59.4407 72.5311C59.5028 72.7049 59.5648 72.9366 59.5648 73.1104Z" fill="#7D7F86"/>
<path d="M58.7591 73.1106C58.8832 73.0527 58.9452 72.879 58.9452 72.7052C58.9452 72.5315 58.8832 72.3578 58.7591 72.2999C58.635 72.1841 58.4489 72.1841 58.2007 72.1841H57.394V74.1529H57.7043V73.3422H58.0766L58.635 74.1529H59.0073L58.3868 73.2843C58.5729 73.2264 58.697 73.1685 58.7591 73.1106ZM58.0766 72.9948H57.7043V72.4157H58.1386C58.2007 72.4157 58.2627 72.4157 58.3248 72.4157C58.3868 72.4157 58.4489 72.4157 58.4489 72.4736C58.5109 72.4736 58.5109 72.5315 58.573 72.5894C58.573 72.6473 58.635 72.7052 58.635 72.7632C58.635 72.8211 58.635 72.879 58.573 72.9369C58.573 72.9948 58.5109 72.9948 58.4489 73.0527C58.3868 73.0527 58.3248 73.1106 58.2627 73.1106C58.2007 72.9948 58.1386 72.9948 58.0766 72.9948Z" fill="#7D7F86"/>
<path d="M1.42709 9.03753C1.86142 9.50099 2.41985 9.90652 3.10237 10.1383C3.72285 10.4279 4.46742 10.5438 5.33608 10.5438C6.0186 10.5438 6.63908 10.4279 7.19751 10.2541C7.75593 10.0803 8.25231 9.79066 8.6246 9.44306C9.05893 9.09546 9.36917 8.632 9.61736 8.16854C9.86555 7.64714 10.0517 7.06781 10.1137 6.43055H7.81798C7.75593 7.12574 7.50774 7.64714 7.07341 8.05267C6.63908 8.51613 6.0186 8.68993 5.33608 8.68993C4.77766 8.68993 4.34332 8.57407 3.97104 8.40027C3.59875 8.22647 3.28852 7.9368 3.04033 7.64714C2.79214 7.29954 2.66804 6.95194 2.54395 6.54641C2.41985 6.14088 2.3578 5.73535 2.3578 5.32982C2.3578 4.86636 2.41985 4.46083 2.54395 4.0553C2.66804 3.64977 2.79214 3.24424 3.04033 2.95458C3.28852 2.60698 3.59875 2.37525 3.97104 2.20145C4.34332 1.96972 4.77766 1.85385 5.33608 1.85385C5.64632 1.85385 5.89451 1.91178 6.20475 1.96972C6.45294 2.08558 6.70113 2.20145 6.94932 2.31731C7.13546 2.49111 7.3216 2.66491 7.50774 2.89664C7.63184 3.12838 7.75593 3.36011 7.75593 3.59184H10.0517C9.98964 3.01251 9.8035 2.49111 9.55531 2.02765C9.30712 1.56419 8.93483 1.21659 8.5005 0.868993C8.06617 0.579329 7.63184 0.347597 7.07341 0.173799C6.45294 0.0579329 5.89451 0 5.33608 0C4.46742 0 3.72285 0.115866 3.10237 0.40553C2.41985 0.695194 1.86142 1.04279 1.42709 1.56419C0.930712 2.02765 0.620475 2.60698 0.372285 3.24424C0.124095 3.8815 0 4.5767 0 5.32982C0 6.08295 0.124095 6.77815 0.372285 7.35747C0.620475 7.99474 0.930712 8.57407 1.42709 9.03753Z" fill="#7D7F86"/>
<path d="M11.5406 9.44338C11.9129 9.79096 12.2852 10.0227 12.7815 10.2544C13.2779 10.4282 13.8363 10.544 14.4568 10.544C15.3255 10.544 16.1321 10.3703 16.7525 9.96475C17.373 9.55924 17.8694 8.97994 18.1176 8.11099H16.2562C16.1941 8.34271 16.008 8.57443 15.6977 8.74822C15.3875 8.92201 15.0152 9.03787 14.5809 9.03787C13.9604 9.03787 13.5261 8.86408 13.2159 8.57443C12.9056 8.28478 12.7195 7.82134 12.6574 7.1841H18.3037C18.3658 6.6048 18.3037 6.08344 18.1796 5.56207C18.0555 5.0407 17.8073 4.57726 17.4971 4.17175C17.1869 3.76624 16.7525 3.41866 16.2562 3.18694C15.7598 2.95522 15.2014 2.83936 14.5189 2.83936C13.8984 2.83936 13.402 2.95522 12.9056 3.12901C12.4093 3.3028 11.9749 3.59245 11.6647 3.94003C11.2924 4.28761 11.0442 4.69312 10.8581 5.15656C10.6719 5.62 10.5479 6.14137 10.5479 6.66274C10.5479 7.24204 10.6099 7.7634 10.8581 8.22684C10.9822 8.69028 11.2304 9.0958 11.5406 9.44338ZM12.7195 5.38828C12.7815 5.21449 12.9056 5.0407 13.0297 4.92484C13.1538 4.75105 13.34 4.63519 13.5882 4.51933C13.8363 4.40347 14.0845 4.34554 14.4568 4.34554C14.9532 4.34554 15.3875 4.4614 15.6357 4.75105C15.8839 5.0407 16.07 5.38828 16.1941 5.90965H12.7195C12.6574 5.73586 12.6574 5.62 12.7195 5.38828Z" fill="#7D7F86"/>
<path d="M21.406 7.01037C21.406 6.66278 21.4681 6.37313 21.5301 6.08348C21.5922 5.79382 21.7163 5.5621 21.9024 5.33038C22.0886 5.09865 22.2747 4.92486 22.5849 4.809C22.8331 4.69314 23.2054 4.63521 23.5777 4.63521C23.7018 4.63521 23.8259 4.63521 24.012 4.63521C24.1361 4.63521 24.2602 4.69314 24.3843 4.69314V2.89729C24.1982 2.83936 24.0741 2.83936 23.8879 2.83936C23.6397 2.83936 23.3295 2.89729 23.0813 2.95522C22.8331 3.01315 22.5849 3.12901 22.3988 3.24487C22.1506 3.36073 21.9645 3.53452 21.7783 3.76625C21.5922 3.94004 21.4681 4.17176 21.344 4.40348V3.01315H19.2344V10.3124H21.406V7.01037Z" fill="#7D7F86"/>
<path d="M26.3089 8.69017C26.3089 9.03776 26.3709 9.32742 26.495 9.55914C26.6191 9.79087 26.8053 9.96466 27.0535 10.0805C27.3016 10.1964 27.5498 10.3122 27.8601 10.3122C28.1703 10.3702 28.4806 10.3702 28.7908 10.3702C28.9769 10.3702 29.2251 10.3702 29.4113 10.3702C29.6595 10.3702 29.8456 10.3702 30.0317 10.3122V8.74811C29.9076 8.74811 29.8456 8.80604 29.7215 8.80604C29.5974 8.80604 29.4733 8.80604 29.3492 8.80604C28.9769 8.80604 28.7287 8.7481 28.6046 8.63224C28.4805 8.51638 28.4185 8.28465 28.4185 7.93707V4.34533H29.9697V3.01291H28.4185V0.811523H26.2468V3.01291H24.9438V4.34533H26.2468V8.69017H26.3089Z" fill="#7D7F86"/>
<path d="M33.4437 3.01172H31.272V10.3113H33.4437V3.01172Z" fill="#7D7F86"/>
<path d="M33.4437 0.23291H31.272V1.91245H33.4437V0.23291Z" fill="#7D7F86"/>
<path d="M35.615 10.313H37.7866V4.34604H39.2758V3.01361H37.7866V2.6081C37.7866 2.31844 37.8487 2.08671 37.9728 1.97085C38.0969 1.85499 38.283 1.79706 38.5933 1.79706C38.8414 1.79706 39.1517 1.79706 39.3999 1.85499V0.290842C39.2137 0.290842 39.0276 0.290842 38.8414 0.23291C38.6553 0.23291 38.4692 0.23291 38.283 0.23291C37.4144 0.23291 36.7318 0.464636 36.2975 0.870155C35.8632 1.27567 35.677 1.79706 35.677 2.49223V3.07155H34.374V4.40397H35.677V10.313H35.615Z" fill="#7D7F86"/>
<path d="M42.8748 0.23291H40.7031V1.91245H42.8748V0.23291Z" fill="#7D7F86"/>
<path d="M42.8748 3.01172H40.7031V10.3113H42.8748V3.01172Z" fill="#7D7F86"/>
<path d="M44.6119 9.44338C44.9842 9.79096 45.3565 10.0227 45.8528 10.2544C46.3492 10.4282 46.9076 10.544 47.5281 10.544C48.3968 10.544 49.1414 10.3703 49.8239 9.96475C50.4444 9.55924 50.9407 8.97994 51.1889 8.11099H49.3275C49.2655 8.34271 49.0793 8.57443 48.7691 8.74822C48.4588 8.92201 48.0866 9.03787 47.6522 9.03787C47.0317 9.03787 46.5974 8.86408 46.2872 8.57443C45.9769 8.28478 45.7908 7.82134 45.7287 7.1841H51.3751C51.4371 6.6048 51.3751 6.08344 51.251 5.56207C51.1269 5.0407 50.8787 4.57726 50.5684 4.17175C50.2582 3.76624 49.8239 3.41866 49.3275 3.18694C48.8311 2.95522 48.2727 2.83936 47.5902 2.83936C46.9697 2.83936 46.4733 2.95522 45.9769 3.12901C45.4806 3.3028 45.0462 3.59245 44.736 3.94003C44.3637 4.28761 44.1155 4.69312 43.9294 5.15656C43.7432 5.62 43.6191 6.14137 43.6191 6.66274C43.6191 7.24204 43.7432 7.7634 43.9294 8.22684C43.9914 8.69028 44.2396 9.0958 44.6119 9.44338ZM45.7908 5.38828C45.8528 5.21449 45.9149 5.0407 46.101 4.92484C46.2251 4.75105 46.4113 4.63519 46.6595 4.51933C46.9076 4.40347 47.1558 4.34554 47.5281 4.34554C48.0245 4.34554 48.4588 4.4614 48.707 4.75105C48.9552 5.0407 49.1414 5.38828 49.2655 5.90965H45.7908C45.7288 5.73586 45.7288 5.62 45.7908 5.38828Z" fill="#7D7F86"/>
<path d="M52.8637 9.32828C53.174 9.67587 53.5463 9.96553 53.9806 10.1973C54.4149 10.429 54.9113 10.4869 55.5318 10.4869C56.0282 10.4869 56.5245 10.3711 56.8968 10.1973C57.3311 10.0235 57.6414 9.7338 57.8896 9.32828V10.2552H59.9371V0.23291H57.7655V3.88264C57.5173 3.53505 57.2071 3.24539 56.7727 3.07159C56.3384 2.89779 55.9041 2.78193 55.4697 2.78193C54.9113 2.78193 54.4149 2.89779 53.9806 3.07159C53.5463 3.30332 53.174 3.59298 52.9258 3.94058C52.6156 4.28817 52.4294 4.6937 52.3053 5.15715C52.1812 5.62061 52.0571 6.08407 52.0571 6.60546C52.0571 7.12685 52.1192 7.59031 52.3053 8.05377C52.3053 8.57516 52.5535 8.98068 52.8637 9.32828ZM54.2288 5.79441C54.2908 5.50475 54.4149 5.27302 54.539 5.04129C54.6631 4.80956 54.9113 4.63576 55.0974 4.5199C55.3456 4.40403 55.6559 4.3461 55.9661 4.3461C56.3384 4.3461 56.5866 4.40403 56.8348 4.5199C57.083 4.63576 57.2691 4.80956 57.3932 5.04129C57.5173 5.27302 57.6414 5.50475 57.7034 5.79441C57.7655 6.08407 57.7655 6.37373 57.7655 6.66339C57.7655 6.95305 57.7655 7.24272 57.7034 7.53238C57.6414 7.82204 57.5173 8.05377 57.3932 8.2855C57.2691 8.51723 57.083 8.69102 56.8348 8.80689C56.5866 8.92275 56.2763 8.98068 55.9661 8.98068C55.6559 8.98068 55.3456 8.92275 55.0974 8.74895C54.8493 8.63309 54.6631 8.45929 54.477 8.22756C54.2908 7.99584 54.2288 7.76411 54.1667 7.47444C54.1047 7.18478 54.0426 6.89512 54.0426 6.60546C54.1047 6.37373 54.1667 6.08407 54.2288 5.79441Z" fill="#7D7F86"/>
<path d="M3.72284 91.4745C2.2337 91.4745 1.67528 90.2579 1.67528 89.0992C1.67528 87.8826 2.2337 86.666 3.72284 86.666C4.52945 86.666 5.27402 87.1874 5.39811 87.8826H7.01134C6.8252 86.2604 5.39811 85.3335 3.72284 85.3335C1.36504 85.3335 0 86.9557 0 89.0992C0 91.1269 1.36504 92.807 3.72284 92.807C5.58425 92.807 6.88725 91.6483 7.07339 89.9103H5.46016C5.33606 90.8373 4.77764 91.4745 3.72284 91.4745Z" fill="#7D7F86"/>
<path d="M10.6105 87.3618C8.87319 87.3618 7.75635 88.4626 7.75635 90.0849C7.75635 91.7071 8.87319 92.8079 10.6105 92.8079C12.3478 92.8079 13.4647 91.7071 13.4647 90.0849C13.4647 88.4047 12.3478 87.3618 10.6105 87.3618ZM10.6105 91.7071C9.61776 91.7071 9.30752 90.896 9.30752 90.0849C9.30752 89.2737 9.61776 88.4047 10.6105 88.4047C11.6653 88.4047 11.9755 89.2158 11.9755 90.0849C11.9135 90.896 11.6033 91.7071 10.6105 91.7071Z" fill="#7D7F86"/>
<path d="M15.8226 88.4626V87.5356H14.3955V92.6921H15.8847V90.3746C15.8847 89.4476 16.257 88.6944 17.3738 88.6944C17.56 88.6944 17.7461 88.6944 17.9323 88.7523V87.4197C17.8082 87.3618 17.6841 87.3618 17.622 87.3618C16.8774 87.3618 16.1329 87.7674 15.8226 88.4626Z" fill="#7D7F86"/>
<path d="M21.5926 87.3618C20.91 87.3618 20.2896 87.5935 19.9793 88.1729V87.4777H18.5522V94.4298H20.0414V91.9965C20.4137 92.5179 21.0341 92.7497 21.7166 92.7497C23.3299 92.7497 24.1365 91.4751 24.1365 90.0847C24.1365 88.6364 23.3299 87.3618 21.5926 87.3618ZM21.2823 91.7069C20.2896 91.7069 19.9793 90.8958 19.9793 90.0847C19.9793 89.2736 20.2896 88.4046 21.2823 88.4046C22.2751 88.4046 22.5853 89.2736 22.5853 90.0847C22.5853 90.8958 22.2751 91.7069 21.2823 91.7069Z" fill="#7D7F86"/>
<path d="M27.4255 87.3618C25.6881 87.3618 24.5713 88.4626 24.5713 90.0849C24.5713 91.7071 25.6881 92.8079 27.4255 92.8079C29.1628 92.8079 30.2797 91.7071 30.2797 90.0849C30.2797 88.4047 29.1628 87.3618 27.4255 87.3618ZM27.4255 91.7071C26.4327 91.7071 26.1225 90.896 26.1225 90.0849C26.1225 89.2737 26.4327 88.4047 27.4255 88.4047C28.4803 88.4047 28.7905 89.2158 28.7905 90.0849C28.7905 90.896 28.4803 91.7071 27.4255 91.7071Z" fill="#7D7F86"/>
<path d="M32.6991 88.4626V87.5356H31.272V92.6921H32.7611V90.3746C32.7611 89.4476 33.1334 88.6944 34.2502 88.6944C34.4364 88.6944 34.6846 88.6944 34.8087 88.7523V87.4197C34.6846 87.3618 34.5605 87.3618 34.4984 87.3618C33.6918 87.3618 32.9472 87.7674 32.6991 88.4626Z" fill="#7D7F86"/>
<path d="M40.2691 88.8102C40.2691 87.5936 38.9661 87.3618 37.8493 87.3618C36.6083 87.3618 35.3674 87.7674 35.2433 89.0998H36.7324C36.7945 88.5205 37.1667 88.3467 37.7252 88.3467C38.2836 88.3467 38.7179 88.4626 38.7179 89.0419C38.7179 89.6212 37.8493 89.5633 36.9185 89.7371C35.9878 89.853 35.0571 90.1427 35.0571 91.3013C35.0571 92.3442 35.8637 92.8656 36.9185 92.8656C37.6011 92.8656 38.2836 92.6918 38.78 92.2283C38.78 92.4021 38.842 92.5759 38.9041 92.7497H40.4552C40.3311 92.518 40.2691 92.0545 40.2691 91.591V88.8102ZM38.7179 90.6641C38.7179 90.9537 38.6559 91.8228 37.477 91.8228C36.9806 91.8228 36.5463 91.7069 36.5463 91.1855C36.5463 90.6641 36.9806 90.4903 37.4149 90.4323C37.9113 90.3744 38.4077 90.3165 38.6559 90.1427V90.6641H38.7179Z" fill="#7D7F86"/>
<path d="M43.3095 85.9707H41.8204V87.535H40.8896V88.4619H41.8204V91.4746C41.8204 92.5174 42.627 92.6912 43.5577 92.6912C43.8679 92.6912 44.1782 92.6912 44.4263 92.6333V91.5325C44.2402 91.5325 44.1161 91.5904 43.93 91.5904C43.4336 91.5904 43.3095 91.4746 43.3095 91.0111V88.4619H44.4263V87.477H43.3095V85.9707Z" fill="#7D7F86"/>
<path d="M47.0321 85.5078H45.543V86.6669H47.0321V85.5078Z" fill="#7D7F86"/>
<path d="M47.0321 87.478H45.543V92.6339H47.0321V87.478Z" fill="#7D7F86"/>
<path d="M50.9411 87.3618C49.2038 87.3618 48.0869 88.4626 48.0869 90.0849C48.0869 91.7071 49.2038 92.8079 50.9411 92.8079C52.6784 92.8079 53.7953 91.7071 53.7953 90.0849C53.7953 88.4047 52.6784 87.3618 50.9411 87.3618ZM50.9411 91.7071C49.9483 91.7071 49.6381 90.896 49.6381 90.0849C49.6381 89.2737 49.9483 88.4047 50.9411 88.4047C51.9959 88.4047 52.3062 89.2158 52.3062 90.0849C52.2441 90.896 51.9339 91.7071 50.9411 91.7071Z" fill="#7D7F86"/>
<path d="M57.89 87.3618C57.2695 87.3618 56.587 87.6515 56.2147 88.2308H56.1527V87.4777H54.7256V92.6339H56.2147V89.911C56.2147 88.8681 56.587 88.4626 57.3936 88.4626C58.0762 88.4626 58.3864 88.8681 58.3864 89.7372V92.6339H59.8755V89.4475C59.9376 88.1729 59.5032 87.3618 57.89 87.3618Z" fill="#7D7F86"/>
</svg>
