<svg width="233" height="24" viewBox="0 0 233 24" fill="none" xmlns="http://www.w3.org/2000/svg">
<g id="Group 2778">
<path id="Vector" d="M212.026 23.7007C194.629 18.7051 176.532 16.925 158.552 15.6043H158.669C155.283 15.432 151.897 15.3172 148.569 15.1449C129.713 14.6281 110.916 15.7766 92.118 16.5805C80.5592 17.0972 68.942 17.1547 57.3833 17.9586C36.4257 19.4515 47.9844 4.34975 23.6409 18.5901C22.415 19.1643 20.5469 19.2218 20.6637 17.4417C20.3718 15.5468 21.1891 11.4126 18.6205 11.1255C12.1405 12.4462 7.29519 17.5566 1.57418 20.5425C-1.75335 21.2316 1.04878 16.6379 2.21633 15.7766C2.21633 15.7766 2.21633 15.7765 2.21633 15.834C2.21633 15.834 2.21633 15.834 2.21633 15.8914C2.68336 15.0875 3.90929 15.7766 3.44227 16.5805C2.80011 17.2695 2.15796 18.016 1.74931 18.9347C6.65304 15.8914 11.1481 12.1591 16.6356 10.1493C22.0647 8.02477 22.1231 13.9391 22.1815 17.5566C25.2171 16.8101 27.669 14.743 30.4711 13.4223C45.2407 5.61304 40.8624 18.9921 59.3097 16.4082C72.3279 15.6043 85.3462 15.5469 98.306 14.8578C118.154 13.9965 138.12 12.9055 157.968 14.1113C173.788 15.2023 189.725 16.7527 205.196 20.3703C207.647 21.0019 210.041 21.6335 212.493 22.2652C213.368 22.4948 213.018 23.8155 212.143 23.5858L212.026 23.7007Z" fill="#F4775E"/>
<g id="Group 2778_2">
<path id="Vector_2" d="M216.946 12.741C215.777 12.1285 217.726 10.0127 218.004 9.12176C219.396 6.4491 220.788 3.72077 222.18 1.04811C222.57 0.268581 223.795 0.93672 223.35 1.71625C222.459 3.44234 221.568 5.1684 220.677 6.89449C219.73 8.73195 218.673 10.6251 217.837 12.4069C217.67 12.741 217.281 12.908 216.946 12.7966V12.741Z" fill="#F4775E"/>
<path id="Vector_3" d="M216 16.5828C216 16.1931 216.278 15.9147 216.668 15.9147C217.058 15.9147 217.336 16.1931 217.336 16.5828C217.336 16.9169 217.058 17.251 216.668 17.251C216.278 17.251 216 16.9726 216 16.5828Z" fill="#F4775E"/>
<path id="Vector_4" d="M221.289 14.3558C220.955 14.1888 220.844 13.7433 221.011 13.4649C222.18 11.4047 223.517 9.45588 224.797 7.45138C225.688 6.22641 226.189 4.66731 227.303 3.66507C228.361 3.21962 228.751 5.27982 227.637 5.3355C225.911 8.34225 223.906 11.1819 222.18 14.1887C222.013 14.5228 221.568 14.6341 221.289 14.4671V14.3558Z" fill="#F4775E"/>
<path id="Vector_5" d="M220.398 17.8636C220.398 17.4738 220.677 17.1954 221.067 17.1954C221.456 17.1954 221.735 17.4738 221.735 17.8636C221.735 18.1977 221.456 18.5318 221.067 18.5318C220.677 18.5318 220.398 18.2533 220.398 17.8636Z" fill="#F4775E"/>
<path id="Vector_6" d="M224.575 16.583C224.296 16.3603 224.241 15.9148 224.463 15.6364C226.524 12.7967 228.806 10.0684 230.755 7.11733C230.755 6.67189 231.145 6.2264 231.479 5.948C231.98 5.6696 232.648 6.11507 232.481 6.67188C230.644 10.2354 227.804 13.1308 225.521 16.416C225.299 16.6944 224.853 16.7501 224.575 16.5273V16.583Z" fill="#F4775E"/>
<path id="Vector_7" d="M224.352 19.3113C224.352 18.9772 224.63 18.6431 225.02 18.6431C225.41 18.6431 225.688 18.9215 225.688 19.3113C225.688 19.6454 225.41 19.9794 225.02 19.9794C224.63 19.9794 224.352 19.7011 224.352 19.3113Z" fill="#F4775E"/>
</g>
</g>
</svg>
