<svg width="177" height="6" viewBox="0 0 177 6" fill="none" xmlns="http://www.w3.org/2000/svg">
<path id="Vector" d="M0.743766 5.20075C-1.40218 4.68052 1.7192 2.01436 2.30445 3.64008C27.2105 2.14442 52.1815 0.713764 77.0875 0.0634766C108.106 0.323591 139.06 0.0634607 170.079 0.453633C171.834 0.713748 178.272 -0.196634 176.777 2.40451C174.761 4.09526 171.834 4.35537 169.363 5.13571C168.973 5.20074 168.518 4.94065 168.453 4.55048C168.388 4.09527 168.648 3.70511 169.038 3.64008C170.794 3.18488 172.355 2.7947 174.045 2.20944C141.466 1.55915 108.887 1.94931 76.3722 1.68919C51.141 2.33948 25.9099 4.03025 0.743766 5.2658V5.20075Z" fill="#D5D1C6"/>
</svg>
