<svg width="36" height="22" viewBox="0 0 36 22" fill="none" xmlns="http://www.w3.org/2000/svg">
<path d="M29.1566 20.4912C28.7425 20.4912 28.4468 20.8461 28.4468 21.201C28.4468 21.615 28.8017 21.9108 29.1566 21.9108C29.5115 21.9108 29.8664 21.5559 29.8664 21.201C29.8664 20.787 29.5115 20.4912 29.1566 20.4912Z" fill="#425CC3"/>
<path d="M30.3989 12.8288L30.5804 11.8629C25.9734 10.068 21.1348 9.18853 16.3503 8.33205L16.1416 8.2947C11.4217 7.44996 6.75848 6.61537 2.32752 4.95014C1.32855 4.44014 0.828204 3.96674 0.622191 3.58746C0.438776 3.24978 0.468686 2.95414 0.666738 2.64944C0.885695 2.31258 1.31698 1.96712 1.93068 1.66462C2.53365 1.3674 3.2697 1.13301 4.04271 0.991961C11.107 -0.11615 18.4835 0.757008 25.4205 2.52018C25.5905 2.56706 25.7608 2.61388 25.9312 2.66076C29.2172 3.56439 32.5845 4.4904 35.3736 6.28974C35.4176 6.32605 35.4232 6.35484 35.424 6.3806C35.4254 6.42417 35.4073 6.49276 35.3556 6.56004C35.3037 6.62744 35.2461 6.6575 35.2112 6.66482C35.1935 6.66854 35.1597 6.67432 35.096 6.62127L35.0961 6.62119L35.0883 6.61494C34.2532 5.94685 33.3165 5.56899 32.4456 5.21766C32.3181 5.16625 32.1921 5.11541 32.068 5.06431L32.068 5.06417L32.0568 5.05987C25.3869 2.4991 18.2303 0.94624 11.0632 0.945345C9.25572 0.900808 7.36459 0.97543 5.74142 1.15828C4.142 1.33846 2.72497 1.63124 1.92515 2.06255C1.55356 2.26294 1.10899 2.60556 1.11456 3.14814C1.1173 3.41448 1.23349 3.64503 1.38821 3.83208C1.54132 4.01717 1.7516 4.18449 2.0001 4.33978C2.97331 4.9479 4.9191 5.60153 8.10942 6.31049L8.11711 6.31219L8.12484 6.31366C9.55376 6.58429 10.9854 6.8426 12.4165 7.10082C18.8328 8.2585 25.2379 9.41418 31.3345 11.6685C31.4372 11.7139 31.5299 11.7521 31.6157 11.7875C31.7907 11.8597 31.9373 11.9202 32.0825 12.0056C32.2631 12.1119 32.3541 12.2119 32.3966 12.3309C32.4103 12.4331 32.3784 12.5408 32.2752 12.6604C32.1612 12.7927 31.9819 12.9082 31.7909 12.9742C30.5723 13.3039 29.3103 13.3218 27.9967 13.2419C27.5005 13.2118 26.9827 13.166 26.457 13.1194C25.6302 13.0463 24.7838 12.9714 23.9711 12.953C20.757 12.7748 17.4629 12.8334 14.2767 13.4345L14.2688 13.436L14.261 13.4378C13.7241 13.5571 12.3957 13.8763 11.3041 14.364C10.7672 14.6039 10.227 14.9103 9.87992 15.2971C9.70167 15.4957 9.55163 15.7407 9.5023 16.0313C9.4512 16.3324 9.51732 16.6296 9.68192 16.904L9.7305 16.9849L9.80526 17.0426C10.9303 17.9105 12.2322 18.3152 13.5363 18.544C14.3581 18.6882 15.2267 18.7676 16.0578 18.8437C16.5161 18.8856 16.963 18.9265 17.3843 18.9766C17.4837 18.9893 17.5118 19.0253 17.5235 19.043C17.543 19.0729 17.5605 19.1302 17.5493 19.2067C17.5381 19.2834 17.5035 19.3416 17.4694 19.3721C17.4452 19.3938 17.4097 19.4144 17.3338 19.4043L17.3338 19.4042L17.3229 19.403C16.9306 19.3594 16.5385 19.3214 16.1474 19.2834C15.1794 19.1896 14.2172 19.0963 13.2704 18.9204C11.9613 18.6771 10.7451 18.2846 9.70731 17.5523C9.14977 17.0783 8.99537 16.658 9.00244 16.316C9.01001 15.9492 9.20512 15.5457 9.58993 15.131C10.3654 14.2954 11.7169 13.6276 12.7034 13.4084L12.7156 13.4057L12.7277 13.4023C15.5585 12.6224 18.4903 12.4742 21.4661 12.5256C22.7926 12.5485 24.1208 12.6109 25.4519 12.6733C25.614 12.681 25.7763 12.6886 25.9385 12.6961C27.4292 12.7654 28.9221 12.8288 30.3989 12.8288Z" fill="#425CC3" stroke="#425CC3"/>
</svg>
