<svg width="305" height="9" viewBox="0 0 305 9" fill="none" xmlns="http://www.w3.org/2000/svg">
<path d="M297.201 6.94127C297.135 6.47876 297.399 6.08232 297.796 6.01625C298.192 5.95018 298.523 5.81802 298.853 5.75195C236.414 2.51437 173.843 0.862518 111.338 2.58042C84.5118 3.24115 57.8183 4.76083 30.9926 5.88408C26.7639 5.68586 -0.392142 7.73413 0.0042971 4.03404C0.202516 3.17509 1.25969 2.91079 1.59005 3.76974C2.25078 4.03403 3.04367 4.10014 3.7044 4.16621C35.0891 5.55375 66.4739 1.91969 97.8586 1.3911C143.053 -0.194655 188.313 -0.0624801 233.507 1.52328C257.161 2.18401 280.815 2.97686 304.403 4.49655C306.584 6.14837 302.157 6.47877 301.232 6.74306C300.108 6.74306 297.664 8.32879 297.135 6.87518L297.201 6.94127Z" fill="#D5D1C6"/>
<path d="M276.652 8.13065C232.78 3.24123 188.511 4.29841 144.374 3.43946C101.559 2.51444 58.8093 5.15734 16.06 5.48771C13.8796 5.15734 6.67765 6.14843 8.39555 3.76979C8.65985 3.5055 9.12236 3.50551 9.45272 3.57158C11.6992 3.96802 14.0778 3.76982 16.3904 3.90197C40.2428 4.10019 64.0952 2.44833 87.9476 2.11797C117.813 1.45723 147.678 1.91977 177.543 2.25014C201.99 2.38229 226.371 3.04299 250.752 4.2323C258.945 4.69482 267.138 5.48771 275.331 6.41273C275.793 6.41273 276.256 6.47878 276.785 6.54485C277.644 6.74307 277.577 8.19672 276.586 8.13065H276.652Z" fill="#D5D1C6"/>
</svg>
