<svg width="196" height="9" viewBox="0 0 196 9" fill="none" xmlns="http://www.w3.org/2000/svg">
<path d="M188.516 8.7428C150.424 7.91471 112.036 2.88703 74.0625 7.61897C73.2344 7.79642 72.8795 6.37682 73.8259 6.19938C90.7426 3.71511 107.955 4.30662 124.99 4.48406C147.348 4.83896 169.648 7.20492 192.006 7.26407C136.169 -2.90962 79.031 2.47297 22.6617 4.4249C16.1553 4.7798 9.53058 5.1347 3.0833 5.8445C2.31436 5.90364 1.48627 6.02195 0.65818 5.9628C0.244135 5.9628 -0.0516127 5.54875 0.00753661 5.19385C0.00753661 4.83895 0.421582 4.48405 0.776478 4.5432C5.39012 4.36576 9.94462 3.71512 14.5583 3.53768C61.6411 1.29 108.842 -1.72661 155.984 1.23086C169.234 2.29554 182.661 3.47852 195.555 6.79088C197.625 9.4526 189.64 8.5062 188.457 8.7428H188.516Z" fill="#425CC3"/>
</svg>
