<svg width="36" height="36" viewBox="0 0 36 36" fill="none" xmlns="http://www.w3.org/2000/svg">
<path d="M0 18C0 8.05888 8.05888 0 18 0C27.9411 0 36 8.05888 36 18C36 27.9411 27.9411 36 18 36C8.05888 36 0 27.9411 0 18Z" fill="#E8E5DD"/>
<path d="M32.2462 14.7588C32.2462 14.8342 32.2462 14.8342 32.2462 14.7588V14.7588Z" fill="black"/>
<path d="M32.3216 12.0452C32.3216 11.6683 32.2462 11.3668 32.0955 10.99C32.0201 10.8392 31.9447 10.6884 31.8693 10.4623C31.794 10.3869 31.794 10.3116 31.6432 10.2362C31.5678 10.1608 31.4925 10.1608 31.4171 10.1608C31.2663 10.1608 31.1156 10.0854 31.0402 10.0854C30.8894 10.0101 30.7387 10.0101 30.5126 9.93467C30.2864 9.8593 30.1357 9.78392 29.9095 9.78392C29.608 9.78392 29.2312 9.78392 28.9296 9.78392H29.005C28.6281 9.78392 28.2513 9.78392 27.8744 9.78392C27.5729 9.78392 27.196 9.78392 26.8945 9.78392C26.8191 9.78392 26.6683 9.78392 26.593 9.78392C26.3668 9.78392 26.1407 9.78392 25.9146 9.78392C25.6884 9.78392 25.4623 9.78392 25.2362 9.8593C25.1608 9.8593 25.0854 9.8593 25.0101 9.8593C24.9347 9.8593 24.7839 9.78392 24.7085 9.78392H24.6332C24.6332 9.70854 24.6332 9.70854 24.7085 9.63317C24.7085 9.63317 24.7085 9.55779 24.7839 9.55779V9.63317C24.9347 9.40704 25.01 9.1809 25.0854 8.8794C25.1608 8.57789 25.2362 8.35176 25.2362 8.05025C25.2362 7.67337 25.2362 7.37186 25.2362 6.99498C25.2362 6.61809 25.1608 6.16583 25.0101 5.78894C24.9347 5.63819 24.8593 5.48744 24.7085 5.26131C24.6332 5.11055 24.5578 4.9598 24.407 4.80905C24.2563 4.80905 24.1809 4.65829 24.1055 4.50754C24.0302 4.43216 23.9548 4.28141 23.804 4.20603C23.5025 3.9799 23.201 3.75377 22.8995 3.60302C22.7487 3.52764 22.598 3.45226 22.4472 3.37688C22.2965 3.30151 22.0704 3.22613 21.9196 3.15075C21.6935 3.07538 21.5427 3 21.3166 3C21.0905 3 20.8643 3 20.7136 3C20.4874 3 20.3367 3.07538 20.1106 3.15075C19.8844 3.22613 19.7337 3.30151 19.5075 3.37688C19.3568 3.45226 19.206 3.52764 19.0553 3.60302C18.9045 3.67839 18.6784 3.82915 18.5276 3.90452C18.2261 4.13065 17.9246 4.28141 17.6231 4.58291C17.4724 4.73367 17.3216 4.88442 17.2462 5.03518C17.1709 5.18593 17.0201 5.33668 16.9447 5.48744C16.8693 5.63819 16.794 5.78894 16.7186 6.01508C16.6432 6.16583 16.6432 6.39196 16.5678 6.61809C16.5678 6.84422 16.5678 7.22111 16.5678 7.59799C16.5678 7.74874 16.6432 7.97487 16.6432 8.12563C16.7186 8.27638 16.794 8.42714 16.8693 8.57789C16.9447 8.72864 17.0201 8.8794 17.0955 9.03015C17.1709 9.1809 17.2462 9.25628 17.3216 9.40704C17.3216 9.48241 17.397 9.48241 17.397 9.55779V9.63317C17.397 9.63317 17.397 9.63317 17.397 9.70854V9.78392C17.397 9.78392 17.397 9.78392 17.3216 9.78392C17.2462 9.78392 17.1709 9.78392 17.0201 9.8593C16.8693 9.8593 16.7186 9.8593 16.5678 9.93467C16.4171 9.93467 16.2663 10.0101 16.1156 10.0101C15.9648 10.0101 15.8141 10.0101 15.6633 10.0854H15.5879C15.5126 10.0854 15.4372 10.0101 15.3618 10.0101C15.1357 10.0101 14.9095 10.0101 14.6834 10.0101C14.4573 10.0101 14.3065 10.0101 14.0804 10.0101C13.7789 10.0101 13.4774 10.0101 13.1759 10.0101C13.1005 10.0101 12.9497 10.0101 12.8744 10.0101C12.799 10.0101 12.7236 10.0101 12.6482 10.0101C12.4221 10.0101 12.2714 10.0854 12.0452 10.1608C11.7437 10.2362 11.4422 10.3116 11.1407 10.3116C10.99 10.3116 10.8392 10.3116 10.6884 10.3869C10.5377 10.3869 10.4623 10.4623 10.3116 10.5377C10.2362 10.6131 10.1608 10.6884 10.0854 10.8392C9.93467 11.0653 9.93467 11.2915 9.8593 11.593C9.78392 11.8191 9.78392 12.0452 9.78392 12.2714C9.78392 12.5729 9.78392 12.799 9.78392 13.0251C9.78392 13.402 9.70854 13.7035 9.70854 14.0804C9.70854 14.3819 9.63317 14.6834 9.63317 14.9849C9.63317 15.2864 9.63317 15.5879 9.55779 15.8894C9.55779 16.191 9.48241 16.4925 9.48241 16.794C9.48241 16.9447 9.40704 17.0955 9.40704 17.2462C9.33166 17.2462 9.33166 17.1709 9.25628 17.1709C8.95477 17.0201 8.72864 16.8693 8.42714 16.794C8.12563 16.6432 7.82412 16.6432 7.52261 16.5678C7.37186 16.5678 7.14573 16.5678 6.99498 16.5678C6.84422 16.5678 6.61809 16.5678 6.46734 16.6432C6.31658 16.7186 6.16583 16.7186 6.09045 16.794C5.9397 16.8693 5.78894 16.9447 5.63819 17.0201C5.33668 17.1709 5.03518 17.397 4.73367 17.5477C4.43216 17.7739 4.13065 18 3.90452 18.3015C3.60302 18.603 3.37688 18.9045 3.22613 19.2814C3.15075 19.4322 3.07538 19.6583 3.07538 19.8844C3.07538 20.0352 3 20.2613 3 20.4121C3 20.8643 3 21.2412 3.15075 21.6935C3.30151 22.0704 3.45226 22.3719 3.67839 22.6734C3.75377 22.8241 3.90452 22.9749 3.9799 23.1256C4.13065 23.2764 4.20603 23.4271 4.35678 23.5025C4.65829 23.7286 4.88442 23.9548 5.26131 24.1809C5.56281 24.407 5.86432 24.5578 6.16583 24.7085C6.31658 24.7839 6.46734 24.8593 6.69347 24.8593C6.84422 24.9347 6.99497 24.9347 7.22111 24.9347C7.8995 25.0101 8.57789 24.7085 9.10553 24.2563C9.1809 24.1809 9.1809 24.1809 9.25628 24.1809C9.33166 24.1055 9.33166 24.1055 9.40704 24.0302C9.40704 24.0302 9.40704 24.0302 9.48241 24.0302V24.1055C9.48241 24.1809 9.48241 24.1809 9.48241 24.2563C9.48241 24.4824 9.48241 24.6332 9.48241 24.8593C9.48241 25.01 9.48241 25.2362 9.48241 25.3869C9.48241 25.5377 9.48241 25.6884 9.48241 25.8392C9.48241 26.2161 9.48241 26.5176 9.48241 26.8945C9.48241 27.0452 9.48241 27.2714 9.48241 27.4221C9.48241 27.5729 9.48241 27.799 9.48241 27.9497C9.48241 28.3266 9.48241 28.6281 9.48241 29.005C9.48241 29.005 9.48241 29.005 9.48241 29.0804C9.48241 29.3065 9.48241 29.4573 9.48241 29.6834C9.48241 30.0603 9.48241 30.3618 9.48241 30.7387C9.48241 30.8894 9.48241 31.0402 9.48241 31.2663C9.48241 31.4171 9.55779 31.5678 9.63317 31.7186C9.70854 31.8693 9.8593 31.9447 10.0101 31.9447C10.0854 31.9447 10.1608 31.9447 10.2362 32.0201C10.5377 32.0955 10.8392 32.0955 11.0653 32.0955C11.4422 32.0955 11.7437 32.0955 12.1206 32.1709C12.4975 32.1709 12.799 32.1709 13.1759 32.2462C13.3266 32.2462 13.4774 32.3216 13.6281 32.3216C14.3065 32.4724 15.0603 32.6231 15.7387 32.6231C16.1156 32.6231 16.4925 32.6985 16.794 32.6985C17.1709 32.7739 17.4724 32.7739 17.8492 32.8492C18.603 32.9246 19.2814 32.9246 20.0352 32.9246C20.4121 32.9246 20.7889 33 21.0905 33C21.2412 33 21.3166 33 21.4673 33C21.6935 33 21.995 33 22.2211 33C22.598 33 22.9749 33 23.3518 33C23.7286 33 24.1055 33 24.4824 33C25.2362 33 25.9146 32.8492 26.6683 32.8492C26.8945 32.8492 27.1206 32.8492 27.3467 32.8492C27.5729 32.8492 27.799 32.8492 27.9497 32.8492C28.1759 32.8492 28.3266 32.8492 28.5528 32.7739C28.7789 32.7739 29.005 32.7739 29.2312 32.6985C29.3819 32.6985 29.5327 32.6985 29.6834 32.6985C29.7588 32.6985 29.9095 32.6985 29.9849 32.6231C30.0603 32.6231 30.1357 32.6231 30.2864 32.5477C30.4372 32.4724 30.5126 32.397 30.6633 32.3216C30.7387 32.2462 30.8141 32.1709 30.8141 32.0201C30.8141 31.9447 30.8894 31.794 30.8894 31.7186C30.8894 31.4925 30.9648 31.191 30.9648 30.9648C30.9648 30.7387 31.0402 30.5126 31.0402 30.2864C31.0402 30.0603 31.1156 29.8342 31.1156 29.608C31.1156 29.608 31.1156 29.608 31.1156 29.6834C31.1156 29.4573 31.191 29.2312 31.191 29.005C31.191 28.9296 31.191 28.8543 31.191 28.7789C31.191 28.402 31.2663 28.1005 31.2663 27.7236C31.2663 27.4221 31.3417 27.0452 31.3417 26.7437C31.3417 26.3668 31.4171 26.0653 31.4171 25.6884C31.4171 25.3116 31.4171 25.0101 31.4925 24.6332C31.4925 24.3317 31.5678 23.9548 31.4925 23.6533C31.4171 23.3518 31.2663 23.1256 31.0402 22.9749C30.9648 22.8995 30.8894 22.8241 30.7387 22.7487C30.5879 22.6734 30.5126 22.6734 30.3618 22.7487C30.1357 22.8241 29.9849 22.8995 29.7588 22.9749C29.5327 23.0503 29.3065 23.1256 29.1558 23.201C28.9296 23.2764 28.7035 23.4271 28.4774 23.5025C28.3266 23.5779 28.2513 23.5779 28.1005 23.5779C28.0251 23.5779 27.9497 23.5779 27.8744 23.6533C27.799 23.6533 27.7236 23.6533 27.5729 23.6533C27.4975 23.6533 27.4975 23.6533 27.4221 23.6533C27.2714 23.6533 27.196 23.5779 27.0452 23.5779C26.9698 23.5779 26.8191 23.5025 26.7437 23.5025C26.6683 23.5025 26.593 23.4271 26.5176 23.3518C26.4422 23.2764 26.3668 23.2764 26.2915 23.201C26.2161 23.1256 26.0653 23.0503 25.99 22.9749C25.9146 22.8995 25.8392 22.8241 25.7638 22.7487C25.6884 22.6734 25.6131 22.598 25.6131 22.4472C25.5377 22.3719 25.5377 22.2211 25.4623 22.1457C25.3869 21.9196 25.3116 21.7688 25.2362 21.5427C25.2362 21.392 25.1608 21.2412 25.1608 21.1658C25.1608 21.0905 25.1608 21.0151 25.1608 20.9397C25.1608 20.8643 25.1608 20.7889 25.1608 20.7136C25.1608 20.5628 25.2362 20.3367 25.2362 20.1859C25.3116 19.9598 25.3869 19.7337 25.4623 19.5075C25.5377 19.2814 25.6884 19.0553 25.7638 18.9045C25.8392 18.8291 25.9146 18.6784 25.99 18.603C26.0653 18.5276 26.1407 18.3769 26.2915 18.3015C26.3668 18.2261 26.4422 18.2261 26.4422 18.1508C26.5176 18.0754 26.593 18.0754 26.6683 18C26.7437 17.9246 26.8191 17.9246 26.8945 17.9246C26.9699 17.9246 26.9698 17.9246 27.0452 17.8492C27.1206 17.8492 27.196 17.8492 27.2714 17.7739C27.3467 17.7739 27.4975 17.7739 27.5729 17.7739C27.6482 17.7739 27.7236 17.7739 27.799 17.7739C27.9498 17.7739 28.1005 17.8492 28.1759 17.8492C28.1759 17.8492 28.1759 17.8492 28.2513 17.8492C28.402 17.8492 28.4774 17.9246 28.6281 18C28.7035 18 28.7789 18.0754 28.8543 18.0754C29.005 18.1508 29.2312 18.3015 29.3819 18.4523C29.5327 18.603 29.6834 18.7538 29.8342 18.9045C29.9849 18.9799 30.1357 19.0553 30.2111 19.1307C30.2864 19.1307 30.3618 19.206 30.4372 19.206C30.5126 19.206 30.5126 19.2814 30.5879 19.2814C30.7387 19.3568 30.9648 19.3568 31.1156 19.206C31.2663 19.1307 31.2663 18.9799 31.3417 18.8291C31.4925 18.2261 31.4925 17.5477 31.6432 16.9447C31.7186 16.5678 31.7186 16.2663 31.7186 15.8894C31.7186 15.5126 31.7186 15.1357 31.7186 14.8342C31.7186 14.8342 31.7186 14.8342 31.7186 14.7588C31.7186 14.2312 31.794 13.7035 31.794 13.1005C32.3216 12.799 32.3216 12.4221 32.3216 12.0452ZM25.8392 10.6131C25.99 10.6131 26.1407 10.6131 26.3668 10.6131C26.2915 10.6131 26.2161 10.6131 26.2161 10.6131C26.0653 10.6131 25.9146 10.6131 25.7638 10.6131C25.6884 10.6131 25.6131 10.6131 25.6131 10.6131C25.6884 10.6884 25.7638 10.6131 25.8392 10.6131ZM20.3367 4.05528C20.4874 4.05528 20.5628 3.9799 20.7136 3.9799H20.7889C20.8643 3.9799 20.8643 3.9799 20.9397 3.9799C21.0151 3.9799 21.1658 4.05528 21.2412 4.05528C21.3166 4.05528 21.392 4.13065 21.4673 4.13065C21.5427 4.13065 21.5427 4.20603 21.6181 4.20603C21.7688 4.28141 21.995 4.43216 22.1457 4.58291C22.2965 4.73367 22.5226 4.80905 22.6734 4.9598C22.7487 5.03518 22.8995 5.11055 22.9749 5.26131C23.0503 5.33668 23.1256 5.48744 23.201 5.56281C23.3518 5.71357 23.4271 5.9397 23.5779 6.09045C23.6533 6.16583 23.7286 6.31658 23.7286 6.39196C23.7286 6.46734 23.7286 6.46734 23.804 6.54271C23.804 6.61809 23.8794 6.76884 23.8794 6.84422C23.8794 7.14573 23.9548 7.37186 23.9548 7.67337C23.9548 7.82412 23.9548 8.05025 23.8794 8.201C23.8794 8.35176 23.804 8.57789 23.804 8.72864C23.804 8.8794 23.804 9.03015 23.804 9.1809C23.804 9.25628 23.804 9.40704 23.804 9.48241V9.55779C23.804 9.70854 23.804 9.93467 23.8794 10.0854C23.9548 10.2362 24.0302 10.3116 24.1809 10.3869C24.3317 10.4623 24.4824 10.4623 24.6332 10.5377C24.8593 10.6131 25.0854 10.6131 25.3116 10.6131C25.2362 10.6131 25.2362 10.6131 25.1608 10.6131C25.0854 10.6131 25.0101 10.6131 24.9347 10.6131C24.7839 10.6131 24.7085 10.5377 24.5578 10.5377C24.4824 10.5377 24.407 10.4623 24.3317 10.4623C24.2563 10.3869 24.1055 10.3869 24.0302 10.3116C23.9548 10.2362 23.8794 10.2362 23.804 10.1608C23.7286 10.1608 23.7286 10.0854 23.6533 10.0854C23.6533 10.0854 23.6533 10.0101 23.5779 10.0101C23.5779 10.0101 23.5779 9.93467 23.5025 9.93467C23.5025 9.8593 23.4271 9.8593 23.4271 9.78392C23.4271 9.70854 23.3518 9.63317 23.3518 9.55779C23.3518 9.48241 23.2764 9.40704 23.2764 9.25628V9.1809C23.2764 9.10553 23.2764 9.03015 23.2764 8.95477C23.2764 8.80402 23.2764 8.72864 23.2764 8.57789C23.2764 8.42714 23.3518 8.27638 23.3518 8.12563C23.3518 7.97487 23.3518 7.82412 23.4271 7.74874C23.4271 7.67337 23.4271 7.59799 23.4271 7.52261C23.4271 7.44724 23.4271 7.37186 23.4271 7.37186C23.4271 7.29648 23.4271 7.22111 23.4271 7.14573C23.4271 7.07035 23.4271 6.99497 23.4271 6.9196C23.4271 6.76884 23.3518 6.54271 23.3518 6.39196C23.3518 6.31658 23.2764 6.24121 23.2764 6.16583C23.2764 6.09045 23.201 6.01508 23.1256 5.9397C23.0503 5.86432 23.0503 5.78894 22.9749 5.71357C22.8995 5.63819 22.8995 5.56281 22.8241 5.48744C22.6734 5.33668 22.598 5.26131 22.598 5.18593C22.5226 5.11055 22.5226 5.03518 22.4472 4.9598C22.3719 4.80905 22.2965 4.73367 22.1457 4.58291C21.995 4.50754 21.8442 4.43216 21.7688 4.35678C21.6181 4.28141 21.4673 4.20603 21.3166 4.13065C21.2412 4.13065 21.1658 4.05528 21.0905 4.05528C21.0151 4.05528 20.9397 4.05528 20.8643 4.05528C20.6382 4.05528 20.4874 4.05528 20.3367 4.05528C20.2613 4.13065 20.1859 4.13065 20.1106 4.13065C20.1106 4.05528 20.1859 4.05528 20.3367 4.05528ZM30.7387 23.5779C30.8141 23.6533 30.8141 23.6533 30.7387 23.5779C30.8141 23.6533 30.8894 23.6533 30.8894 23.7286L30.9648 23.804V23.8794C30.9648 23.9548 30.9648 23.9548 30.9648 24.0302C30.9648 24.3317 30.9648 24.6332 30.8894 24.8593C30.8894 25.1608 30.8141 25.4623 30.8141 25.7638C30.8141 26.0653 30.7387 26.2915 30.7387 26.593C30.7387 26.8945 30.6633 27.1206 30.6633 27.4221C30.6633 27.5729 30.6633 27.7236 30.6633 27.8744C30.6633 28.0251 30.6633 28.2513 30.6633 28.402C30.6633 28.7035 30.5879 29.005 30.5879 29.3065C30.5879 29.4573 30.5879 29.608 30.5879 29.7588C30.5879 29.9095 30.5879 30.0603 30.5126 30.2864C30.5126 30.5126 30.4372 30.7387 30.4372 30.9648C30.4372 31.1156 30.3618 31.2663 30.3618 31.4925C30.3618 31.6432 30.2864 31.794 30.2864 31.8693C30.2111 31.8693 30.0603 31.9447 29.9849 31.9447C29.608 32.0201 29.1558 32.0955 28.7789 32.1709C28.402 32.2462 28.1005 32.2462 27.7236 32.2462C27.4975 32.2462 27.2714 32.2462 27.0452 32.2462C26.9698 32.2462 26.8945 32.2462 26.8191 32.2462C26.0653 32.2462 25.3116 32.397 24.5578 32.397C24.1809 32.397 23.804 32.397 23.4271 32.397C23.0503 32.397 22.6734 32.397 22.2965 32.397C22.2211 32.397 22.2211 32.397 22.1457 32.397C22.1457 32.397 22.1457 32.397 22.2211 32.397C21.9196 32.397 21.6935 32.397 21.392 32.397C21.0905 32.397 20.8643 32.3216 20.5628 32.3216C20.0352 32.3216 19.4322 32.3216 18.9045 32.2462C18.5276 32.2462 18.1508 32.1709 17.8492 32.1709C17.4724 32.1709 17.1709 32.0955 16.794 32.0955C16.4171 32.0955 16.0402 32.0955 15.6633 32.0201C15.2864 32.0201 14.9849 31.9447 14.608 31.8693C14.0804 31.794 13.5528 31.6432 13.1005 31.5678C12.799 31.5678 12.5729 31.4925 12.2714 31.4925C12.0452 31.4925 11.7437 31.4171 11.5176 31.4171C11.2161 31.4171 10.9899 31.3417 10.6884 31.2663C10.5377 31.2663 10.4623 31.191 10.3116 31.191C10.3116 31.191 10.3116 31.191 10.3869 31.191H10.3116C10.3116 31.1156 10.3116 31.0402 10.3116 30.9648C10.3116 30.8894 10.3116 30.7387 10.3116 30.6633C10.3116 30.3618 10.3116 30.0603 10.3116 29.8342C10.3116 29.5327 10.3116 29.2312 10.3116 28.8543C10.3116 28.7035 10.3116 28.6281 10.3116 28.4774C10.3116 27.9497 10.3116 27.4221 10.3116 26.8945C10.3116 26.6683 10.3116 26.3668 10.3116 26.1407C10.3116 25.99 10.3116 25.9146 10.3116 25.7638C10.3116 25.6131 10.3116 25.5377 10.3116 25.3869C10.3116 25.3869 10.3116 25.3869 10.3116 25.4623C10.3116 25.1608 10.3116 24.8593 10.3116 24.5578C10.3116 24.3317 10.3116 24.0302 10.2362 23.804C10.2362 23.6533 10.0854 23.4271 9.78392 23.3518C9.70854 23.3518 9.55779 23.2764 9.48241 23.2764C9.40704 23.2764 9.40703 23.2764 9.33166 23.2764C9.40703 23.201 9.55779 23.1256 9.63317 22.9749C9.63317 22.9749 9.70854 22.9749 9.70854 22.8995C9.78392 22.8995 9.78392 22.8241 9.8593 22.8241H10.0101C10.0101 22.8241 10.0101 22.8241 10.0854 22.8241C10.0854 22.8241 10.0854 22.8241 10.1608 22.8241C10.2362 22.8995 10.2362 22.8995 10.3116 22.9749C10.3869 23.0503 10.4623 23.1256 10.5377 23.201C10.6131 23.2764 10.6131 23.3518 10.6884 23.3518C10.6884 23.4271 10.7638 23.5025 10.7638 23.5779C10.7638 23.6533 10.7638 23.6533 10.8392 23.7286C10.8392 23.804 10.8392 23.8794 10.9146 23.9548C10.9146 24.1809 10.9146 24.3317 10.99 24.5578C10.99 24.7839 10.99 24.9347 10.99 25.1608C10.99 25.4623 10.9899 25.7638 10.9146 26.0653C10.9146 26.2161 10.9146 26.3668 10.9146 26.5176C10.9146 26.6683 10.9146 26.8191 10.8392 26.9698C10.7638 27.4221 10.7638 27.799 10.7638 28.2513C10.7638 28.4774 10.7638 28.7035 10.7638 28.9296C10.7638 29.1558 10.8392 29.3819 10.8392 29.608C10.8392 29.6834 10.9146 29.8342 10.9146 29.9095C10.9146 29.9849 10.99 30.1357 10.99 30.2111C11.0653 30.3618 11.1407 30.5126 11.3668 30.5879C11.4422 30.6633 11.5176 30.6633 11.6683 30.6633C11.7437 30.6633 11.8191 30.7387 11.9698 30.7387C12.196 30.8141 12.4221 30.8141 12.6482 30.8894C12.8744 30.8894 13.1005 30.9648 13.3266 30.9648C13.5528 30.9648 13.7789 31.0402 14.005 31.0402C14.2312 31.0402 14.4573 31.0402 14.6834 31.0402C14.9095 31.0402 15.1357 31.0402 15.3618 31.0402C15.4372 31.0402 15.5879 31.0402 15.6633 31.0402C15.7387 31.0402 15.8894 31.0402 15.9648 31.0402C15.9648 31.0402 15.9648 31.0402 16.0402 31.0402C16.4171 31.0402 16.7186 31.1156 17.0955 31.1156C17.5477 31.1156 18 31.191 18.4523 31.191C18.6784 31.191 18.9045 31.191 19.1307 31.2663C19.3568 31.2663 19.5829 31.2663 19.809 31.2663C20.1106 31.2663 20.3367 31.2663 20.6382 31.2663C20.8643 31.2663 21.1658 31.2663 21.392 31.2663H21.4673C21.8442 31.2663 22.1457 31.2663 22.5226 31.2663C22.8241 31.2663 23.201 31.2663 23.5025 31.2663C23.7286 31.2663 23.8794 31.2663 24.1055 31.2663C24.2563 31.2663 24.4824 31.2663 24.6332 31.2663H24.7085C24.9347 31.3417 25.1608 31.3417 25.3869 31.3417C25.6131 31.3417 25.8392 31.3417 26.0653 31.3417C26.1407 31.3417 26.2161 31.3417 26.2915 31.3417C26.6683 31.3417 26.9698 31.3417 27.3467 31.3417C27.5729 31.3417 27.799 31.3417 28.0251 31.3417C28.1005 31.3417 28.2513 31.3417 28.3266 31.3417C28.402 31.3417 28.4774 31.3417 28.6281 31.3417C29.005 31.2663 29.3065 30.9648 29.5327 30.6633C29.7588 30.3618 29.8342 30.0603 29.9849 29.6834C30.1357 29.3065 30.2111 28.9296 30.3618 28.5528C30.3618 28.4774 30.4372 28.3266 30.4372 28.2513C30.4372 28.1005 30.5126 28.0251 30.5126 27.8744C30.5126 27.7236 30.5126 27.5729 30.5879 27.4221C30.5879 27.2714 30.5879 27.1206 30.6633 26.9698C30.6633 26.6683 30.7387 26.4422 30.8141 26.2161C30.8141 26.0653 30.8894 25.9146 30.8894 25.7638C30.8894 25.6131 30.9648 25.5377 30.9648 25.3869C30.9648 25.0101 31.0402 24.7085 31.0402 24.3317C31.0402 24.1809 31.0402 24.1055 31.0402 23.9548C31.0402 23.8794 31.0402 23.7286 31.0402 23.6533C30.8141 23.7286 30.8141 23.6533 30.7387 23.5779ZM31.1156 16.3417C31.1156 16.5678 31.0402 16.8693 30.9648 17.1709C30.9648 17.4724 30.8894 17.6985 30.8894 18C30.8894 18.1508 30.8141 18.3015 30.8141 18.3769C30.7387 18.3769 30.7387 18.3769 30.6633 18.3015C30.6633 18.3015 30.5879 18.3015 30.5879 18.2261C30.5126 18.1508 30.4372 18.0754 30.2864 18C30.1357 17.9246 29.9849 17.7739 29.8342 17.6985C29.6834 17.6231 29.4573 17.4724 29.3065 17.397C29.1558 17.3216 29.005 17.3216 28.8543 17.2462C28.402 17.0955 27.8744 17.0201 27.4221 17.1709C27.196 17.2462 26.9699 17.3216 26.7437 17.4724C26.593 17.5477 26.5176 17.6231 26.4422 17.6985C26.2915 17.7739 26.2161 17.8492 26.1407 18C25.9146 18.2261 25.6884 18.4523 25.5377 18.7538C25.3869 19.0553 25.2362 19.2814 25.1608 19.5829C25.0854 19.7337 25.0101 19.8844 25.0101 20.0352C24.9347 20.1859 24.8593 20.4121 24.8593 20.5628C24.8593 20.7136 24.7839 20.9397 24.7839 21.0905C24.7839 21.2412 24.7839 21.4673 24.8593 21.6181C24.9347 21.995 25.01 22.2965 25.1608 22.598C25.3116 22.8995 25.4623 23.201 25.7638 23.5025C25.99 23.804 26.2915 24.0302 26.593 24.1809C26.9698 24.3317 27.2714 24.4824 27.6482 24.5578C28.0251 24.6332 28.402 24.5578 28.7789 24.4824C28.9296 24.407 29.0804 24.407 29.2312 24.3317C29.3819 24.2563 29.5327 24.1809 29.6834 24.1055C29.8342 24.0302 29.9849 23.9548 30.2111 23.8794H30.2864C30.2864 23.8794 30.2864 23.8794 30.2111 23.8794C30.2111 23.8794 30.2864 23.8794 30.2864 23.804H30.4372C30.4372 23.804 30.4372 23.804 30.4372 23.8794V23.9548C30.4372 24.0302 30.4372 24.1055 30.4372 24.1809C30.4372 24.3317 30.3618 24.4824 30.3618 24.6332C30.3618 24.8593 30.2864 25.0854 30.2864 25.3116C30.2864 25.3116 30.2864 25.3116 30.2864 25.3869C30.2864 25.5377 30.2111 25.6131 30.2111 25.7638C30.2111 25.9146 30.1357 26.0653 30.1357 26.2161C30.0603 26.5176 29.9849 26.7437 29.9849 27.0452C29.9849 27.196 29.9095 27.3467 29.9095 27.4975C29.9095 27.6482 29.9095 27.799 29.8342 27.9497C29.8342 28.0251 29.7588 28.1759 29.7588 28.2513C29.7588 28.3266 29.6834 28.402 29.6834 28.4774C29.6834 28.5528 29.608 28.7035 29.608 28.7789C29.5327 29.005 29.4573 29.3065 29.3819 29.5327C29.3065 29.608 29.3065 29.7588 29.2312 29.8342C29.2312 29.9095 29.1558 29.9849 29.1558 30.0603C29.1558 30.1357 29.0804 30.1357 29.0804 30.2111C29.0804 30.2864 29.005 30.2864 29.005 30.3618C28.9296 30.4372 28.9296 30.4372 28.8543 30.5126C28.7789 30.5879 28.7035 30.6633 28.5528 30.7387C28.4774 30.7387 28.4774 30.8141 28.402 30.8141C28.402 30.8141 28.3266 30.8141 28.3266 30.8894H28.1759C28.1759 30.8894 28.1759 30.8894 28.1005 30.8894C27.8744 30.8894 27.7236 30.8894 27.4975 30.8894C27.2714 30.8894 27.0452 30.8894 26.8191 30.8894C26.593 30.8894 26.4422 30.8894 26.2161 30.8894C25.99 30.8894 25.7638 30.8894 25.5377 30.8894H25.4623C25.2362 30.8894 24.9347 30.8894 24.7085 30.8141C24.7085 30.8141 24.7085 30.8141 24.6332 30.8141C24.4824 30.8141 24.3317 30.7387 24.1809 30.7387C24.1055 30.7387 23.9548 30.7387 23.8794 30.7387C23.804 30.7387 23.7286 30.7387 23.7286 30.7387H23.5779C23.3518 30.7387 23.1256 30.7387 22.8995 30.7387C22.6734 30.7387 22.4472 30.7387 22.2211 30.7387C21.7688 30.7387 21.3166 30.7387 20.8643 30.7387C20.6382 30.7387 20.4121 30.7387 20.1859 30.7387C19.9598 30.7387 19.7337 30.7387 19.5075 30.7387C19.3568 30.7387 19.206 30.7387 19.0553 30.7387C18.9045 30.7387 18.7538 30.7387 18.603 30.7387C18.3015 30.7387 18 30.7387 17.6985 30.7387C17.6231 30.7387 17.6231 30.7387 17.5477 30.7387C17.5477 30.7387 17.5477 30.7387 17.4724 30.7387C17.2462 30.7387 17.0201 30.7387 16.794 30.7387C16.5678 30.7387 16.3417 30.7387 16.1156 30.6633C16.0402 30.6633 15.8894 30.6633 15.8141 30.6633C15.7387 30.6633 15.5879 30.6633 15.5126 30.6633C15.2864 30.6633 15.0603 30.6633 14.8342 30.6633C14.608 30.6633 14.3065 30.6633 14.0804 30.6633C13.8543 30.6633 13.5528 30.6633 13.3266 30.5879C13.1005 30.5879 12.8744 30.5126 12.5729 30.4372C12.4221 30.4372 12.3467 30.3618 12.196 30.3618C12.0452 30.3618 11.9698 30.2864 11.8191 30.2864C11.6683 30.2111 11.5176 30.2111 11.3668 30.1357C11.2915 30.1357 11.2915 30.0603 11.2161 30.0603C11.2161 30.0603 11.2161 30.0603 11.2161 29.9849C11.2161 29.9095 11.2161 29.9095 11.1407 29.8342C11.0653 29.6834 11.0653 29.4573 11.0653 29.3065C11.0653 29.005 10.99 28.7035 10.99 28.402C10.99 28.1005 10.99 27.8744 10.99 27.5729C10.99 27.3467 10.99 27.0452 10.99 26.8191C10.99 26.593 10.99 26.2915 10.99 26.0653C10.99 25.9146 10.99 25.6884 10.99 25.5377C10.99 25.3116 10.99 25.1608 10.99 24.9347C10.99 24.7085 10.99 24.4824 10.99 24.2563C10.99 24.0302 10.9899 23.804 10.9146 23.6533C10.8392 23.4271 10.8392 23.2764 10.6884 23.0503C10.6131 22.9749 10.5377 22.8241 10.4623 22.7487C10.3869 22.6734 10.3869 22.598 10.3116 22.598C10.2362 22.5226 10.1608 22.4472 10.1608 22.3719C10.4623 22.6734 10.3869 22.598 10.3116 22.598C10.2362 22.598 10.1608 22.598 10.1608 22.598C10.0854 22.598 10.0101 22.598 9.8593 22.6734C9.78392 22.6734 9.78392 22.7487 9.70854 22.7487L9.63317 22.8241C9.55779 22.8995 9.48241 22.9749 9.40704 23.0503C9.25628 23.1256 9.1809 23.2764 9.03015 23.3518C8.95477 23.4271 8.95477 23.5025 8.8794 23.5025C8.80402 23.5779 8.72864 23.6533 8.57789 23.7286C8.50251 23.804 8.42714 23.8794 8.35176 23.8794C8.42714 24.0302 8.35176 24.1055 8.27638 24.1055C8.201 24.1055 8.12563 24.1809 8.05025 24.1809C7.97487 24.1809 7.8995 24.2563 7.82412 24.2563H7.74874C7.67337 24.2563 7.59799 24.2563 7.59799 24.2563C7.52261 24.2563 7.52261 24.2563 7.44724 24.2563C7.29648 24.2563 7.22111 24.1809 7.07035 24.1809C6.99498 24.1809 6.9196 24.1055 6.9196 24.1055C6.76884 24.0302 6.61809 23.9548 6.54271 23.8794C6.31658 23.7286 6.16583 23.6533 6.01508 23.5025C5.71357 23.3518 5.48744 23.201 5.26131 22.9749C5.18593 22.8995 5.11055 22.7487 5.03518 22.6734C4.88442 22.5226 4.80905 22.2965 4.65829 22.0704C4.58291 21.8442 4.43216 21.6935 4.35678 21.4673C4.28141 21.3166 4.28141 21.2412 4.20603 21.0905C4.20603 21.0151 4.20603 20.9397 4.13065 20.8643C4.13065 20.7136 4.13065 20.6382 4.13065 20.4874C4.13065 20.3367 4.13065 20.1859 4.13065 20.1106C4.13065 20.0352 4.13065 19.9598 4.20603 19.809C4.20603 19.7337 4.28141 19.5829 4.35678 19.5075C4.35678 19.4322 4.43216 19.3568 4.43216 19.2814C4.50754 19.1307 4.65829 18.9799 4.80905 18.8291C4.88442 18.6784 5.03518 18.603 5.11055 18.5276C5.26131 18.3769 5.41206 18.2261 5.63819 18.0754C5.86432 17.9246 6.09045 17.7739 6.39196 17.6231C6.54271 17.5477 6.61809 17.4724 6.76884 17.4724C6.76884 17.4724 6.84422 17.4724 6.9196 17.4724C6.99497 17.4724 7.07035 17.4724 7.22111 17.397C7.37186 17.397 7.52261 17.397 7.67337 17.397C7.82412 17.397 7.97487 17.397 8.12563 17.397C8.20101 17.397 8.27638 17.397 8.35176 17.4724C8.42714 17.4724 8.50251 17.5477 8.57789 17.5477C8.8794 17.6985 9.10553 17.8492 9.40704 17.8492C9.48241 17.8492 9.63317 17.8492 9.70854 17.8492C9.8593 17.8492 9.93467 17.6985 10.0101 17.5477C10.0854 17.4724 10.0854 17.397 10.0854 17.3216C10.1608 17.1709 10.1608 17.0201 10.2362 16.8693C10.3116 16.5678 10.3116 16.2663 10.3869 15.9648C10.4623 15.5879 10.5377 15.2864 10.5377 15.0603C10.5377 14.8342 10.5377 14.608 10.5377 14.3819C10.5377 14.1558 10.5377 13.9296 10.5377 13.7035C10.5377 13.4774 10.5377 13.2513 10.5377 13.0251C10.5377 12.7236 10.4623 12.3467 10.4623 12.0452C10.4623 11.9698 10.4623 11.8191 10.4623 11.7437C10.4623 11.593 10.5377 11.3668 10.5377 11.2161V11.0653C10.5377 11.0653 10.5377 11.0653 10.5377 10.99C10.6131 10.99 10.6131 10.9899 10.6884 10.9146C10.8392 10.8392 10.9899 10.8392 11.2161 10.8392C11.3668 10.8392 11.5176 10.7638 11.6683 10.7638C11.9698 10.6884 12.196 10.6884 12.4975 10.6131C12.6482 10.6131 12.7236 10.6131 12.8744 10.6131C13.3266 10.6131 13.7789 10.6131 14.1558 10.5377C14.3065 10.5377 14.4573 10.5377 14.608 10.4623C14.7588 10.4623 14.9095 10.3869 15.0603 10.3869C15.2111 10.3869 15.4372 10.3869 15.5879 10.3869C15.8141 10.3869 16.0402 10.3869 16.191 10.3869H16.2663C16.3417 10.3869 16.4925 10.3869 16.5678 10.3869C16.6432 10.3869 16.7186 10.3869 16.794 10.3869C16.9447 10.3869 17.1709 10.3869 17.3216 10.3869C17.397 10.3869 17.5477 10.3116 17.6231 10.2362C17.6985 10.1608 17.6985 10.0854 17.7739 10.0101C17.7739 9.93467 17.8492 9.78392 17.8492 9.70854C17.8492 9.55779 17.7739 9.48241 17.7739 9.40704C17.6985 9.25628 17.6231 9.1809 17.6231 9.03015C17.5477 8.8794 17.4724 8.72864 17.4724 8.57789C17.397 8.42714 17.397 8.27638 17.3216 8.12563C17.3216 7.97487 17.2462 7.8995 17.2462 7.74874C17.2462 7.59799 17.2462 7.44724 17.2462 7.29648C17.2462 7.07035 17.2462 6.9196 17.3216 6.69347C17.3216 6.54271 17.397 6.39196 17.397 6.24121C17.397 6.16583 17.4724 6.09045 17.4724 6.01508C17.5477 5.9397 17.5477 5.78894 17.6231 5.71357C17.6985 5.63819 17.6985 5.56281 17.7739 5.56281C17.8492 5.48744 17.8492 5.41206 17.9246 5.41206C18.0754 5.26131 18.1508 5.11055 18.3015 5.03518C18.603 4.80905 18.9045 4.65829 19.206 4.50754H19.2814C19.4322 4.43216 19.6583 4.35678 19.809 4.35678C19.9598 4.28141 20.1106 4.28141 20.3367 4.28141C20.4874 4.28141 20.6382 4.28141 20.7136 4.28141C20.7889 4.28141 20.7889 4.28141 20.8643 4.28141C20.9397 4.28141 21.0151 4.28141 21.0151 4.28141C21.0905 4.28141 21.0905 4.28141 21.1658 4.35678C21.2412 4.43216 21.392 4.43216 21.4673 4.50754C21.6181 4.50754 21.6935 4.50754 21.7688 4.58291C21.8442 4.58291 21.8442 4.65829 21.9196 4.65829L21.995 4.73367C22.0704 4.80905 22.0704 4.80905 22.1457 4.88442C22.1457 4.9598 22.2211 4.9598 22.2211 5.03518C22.2965 5.18593 22.3719 5.33668 22.4472 5.48744C22.5226 5.56281 22.5226 5.63819 22.598 5.71357C22.6734 5.78894 22.6734 5.86432 22.7487 5.9397C22.7487 6.01508 22.8241 6.01508 22.8241 6.09045C22.8241 6.16583 22.8995 6.16583 22.8995 6.24121C22.8995 6.31658 22.9749 6.39196 22.9749 6.39196C22.9749 6.54271 23.0503 6.69347 23.0503 6.84422C23.0503 6.99497 23.1256 7.14573 23.1256 7.29648C23.1256 7.37186 23.1256 7.44724 23.1256 7.52261C23.1256 7.74874 23.1256 7.8995 23.0503 8.05025C22.9749 8.35176 22.8995 8.65327 22.8995 8.95477C22.8995 9.03015 22.8995 9.10553 22.8995 9.10553C22.8995 9.1809 22.8995 9.1809 22.8995 9.25628C22.8995 9.25628 22.8995 9.25628 22.8995 9.33166C22.8995 9.40703 22.8995 9.40704 22.9749 9.48241C22.9749 9.55779 22.9749 9.55779 23.0503 9.63317C23.0503 9.70854 23.1256 9.8593 23.1256 9.93467C23.1256 10.0101 23.201 10.0854 23.201 10.0854C23.2764 10.1608 23.2764 10.2362 23.3518 10.2362C23.4271 10.3116 23.5025 10.3869 23.5779 10.3869C23.6533 10.4623 23.7286 10.4623 23.804 10.5377C23.8794 10.5377 23.9548 10.6131 24.0302 10.6131C24.1055 10.6131 24.1809 10.6884 24.2563 10.6884C24.3317 10.6884 24.407 10.7638 24.5578 10.7638C24.6332 10.7638 24.7085 10.7638 24.8593 10.7638C25.01 10.7638 25.1608 10.7638 25.3116 10.7638C25.4623 10.7638 25.6884 10.7638 25.8392 10.7638C26.0653 10.7638 26.2161 10.7638 26.4422 10.6884C26.6683 10.6884 26.8191 10.6131 27.0452 10.6131C27.0452 10.6131 27.0452 10.6131 27.1206 10.6131C27.2714 10.6131 27.4221 10.6131 27.4975 10.6131C27.6482 10.6131 27.799 10.6131 27.9497 10.6131C28.0251 10.6131 28.1759 10.6131 28.2513 10.6131C28.6281 10.6131 29.005 10.6131 29.3819 10.6884C29.5327 10.6884 29.6834 10.6884 29.7588 10.6884C29.8342 10.6884 29.9095 10.6884 29.9849 10.6884C30.2111 10.6884 30.3618 10.7638 30.5879 10.8392H30.6633C30.6633 10.8392 30.6633 10.8392 30.7387 10.8392C30.7387 10.8392 30.8141 10.8392 30.8141 10.9146C30.8141 10.9146 30.8141 10.99 30.8894 10.99L30.8141 10.9146C30.8141 10.9146 30.7387 10.9146 30.7387 10.8392C30.8894 10.8392 30.9648 10.9146 31.1156 10.9146C31.1156 10.9146 31.1156 10.9146 31.1156 10.99C31.1156 11.0653 31.191 11.1407 31.191 11.2161C31.191 11.2915 31.2663 11.4422 31.2663 11.5176C31.2663 11.593 31.2663 11.6683 31.3417 11.7437C31.3417 11.9698 31.3417 12.196 31.3417 12.4975C31.3417 13.1005 31.2663 13.7789 31.191 14.3819C31.2663 15.0603 31.2663 15.7387 31.1156 16.3417Z" fill="black"/>
</svg>
