<svg width="36" height="36" viewBox="0 0 36 36" fill="none" xmlns="http://www.w3.org/2000/svg">
<path d="M0 18C0 8.05888 8.05888 0 18 0C27.9411 0 36 8.05888 36 18C36 27.9411 27.9411 36 18 36C8.05888 36 0 27.9411 0 18Z" fill="#E8E5DD"/>
<path d="M11.5709 12.6511C11.5051 12.717 11.5051 12.717 11.5709 12.6511V12.6511Z" fill="#2D2E31"/>
<path d="M32.9069 19.4996C32.841 19.302 32.7093 19.1045 32.5776 18.9069C32.3801 18.5118 32.2484 18.1826 32.0508 17.7875C31.8532 17.1948 31.6557 16.5363 31.3923 15.9436V15.8778C31.3264 15.8119 31.3264 15.6802 31.2606 15.6144C31.1947 15.4826 31.1289 15.2851 30.9313 15.2192C30.7996 15.1534 30.6679 15.1534 30.5362 15.1534C30.4704 15.1534 30.4045 15.1534 30.3387 15.2192C30.2728 15.2192 30.1411 15.2851 30.0752 15.2851C29.8118 15.3509 29.4826 15.4168 29.2192 15.4168C28.7582 15.4826 28.2973 15.4826 27.8363 15.4826C27.7704 15.4826 27.6387 15.4826 27.5729 15.4826C27.4412 15.4826 27.3095 15.4168 27.1778 15.4168C27.1119 15.4168 27.1119 15.4168 27.0461 15.3509C26.9802 15.3509 26.9802 15.2851 26.9144 15.2851C26.8485 15.2192 26.7827 15.2192 26.7168 15.1534L26.651 15.0875C26.651 15.0875 26.651 15.0217 26.5851 15.0217C26.5851 14.9558 26.5193 14.89 26.5193 14.89C26.5193 14.8241 26.4534 14.8241 26.4534 14.7583C26.4534 14.6924 26.4534 14.6924 26.3875 14.6266C26.3875 14.5607 26.3876 14.4949 26.3217 14.429C26.3217 14.3632 26.3217 14.3632 26.3217 14.2973C26.3217 14.2315 26.3217 14.2315 26.3217 14.1656C26.3217 14.0339 26.3876 13.8364 26.4534 13.7047C26.5193 13.5729 26.5851 13.4412 26.651 13.2437C26.7168 13.1778 26.7168 13.112 26.7827 13.0461C26.8485 12.9803 26.9144 12.9144 26.9802 12.8486C27.0461 12.7169 27.1778 12.651 27.3095 12.5193C27.3753 12.4535 27.4412 12.4535 27.507 12.3876C27.5729 12.3876 27.5729 12.3218 27.6387 12.3218C27.7046 12.2559 27.8363 12.2559 27.9021 12.1901C27.968 12.1242 28.0997 12.1242 28.1655 12.0584C28.2972 11.9267 28.429 11.9267 28.5607 11.8608C28.6924 11.9267 28.8899 11.795 28.9558 11.6632C28.9558 11.5315 28.9558 11.4657 28.9558 11.3998C28.9558 11.334 28.9558 11.2681 28.9558 11.2681C28.8899 11.0047 28.8241 10.6755 28.7582 10.4121C28.6265 9.75355 28.429 9.09503 28.2314 8.50237C28.1655 8.17311 28.0338 7.84385 27.968 7.58044C27.9021 7.44874 27.9021 7.31703 27.8363 7.18533C27.7704 7.05363 27.7704 6.92192 27.7046 6.79022C27.7046 6.72437 27.6387 6.59267 27.6387 6.52681C27.6387 6.39511 27.5729 6.32926 27.507 6.26341C27.3753 6 27.2436 6 27.1119 6C26.9802 6 26.9144 6.06585 26.8485 6.1317C26.7827 6.19756 26.7827 6.19756 26.7168 6.26341C26.5851 6.39511 26.4534 6.52681 26.3217 6.65852C26.19 6.79022 26.0583 6.85607 25.9266 6.98778C25.729 7.11948 25.4656 7.25118 25.2681 7.38289C25.2022 7.38289 25.2022 7.44874 25.1364 7.44874C25.1364 7.44874 25.0705 7.44874 25.0705 7.51459C25.0705 7.51459 25.0705 7.51459 25.0047 7.51459C24.8071 7.64629 24.6096 7.71214 24.412 7.84385C23.8852 8.10726 23.3584 8.30481 22.8316 8.56822C22.2389 8.83162 21.5804 9.09503 20.9219 9.29259C20.7902 9.35844 20.6585 9.42429 20.5267 9.42429C20.1316 9.55599 19.7365 9.6877 19.4073 9.8194C18.7488 10.017 18.0902 10.2804 17.4976 10.4779C16.8391 10.6755 16.1805 10.9389 15.5879 11.1364C14.2708 11.5315 12.8879 11.9267 11.5709 12.2559C11.0441 12.3876 10.5831 12.5193 10.188 12.5852C9.52951 12.7169 8.87099 12.8486 8.14662 13.0461C7.81736 13.112 7.4881 13.2437 7.15885 13.3095C6.96129 13.3754 6.82959 13.3754 6.63203 13.4412C6.50033 13.5071 6.30277 13.5071 6.17107 13.5729C5.90766 13.6388 5.64426 13.7047 5.315 13.7047C5.24915 13.7047 5.18329 13.7047 5.11744 13.7047C4.85404 13.7047 4.59063 13.7705 4.39307 13.7705C4.19552 13.7705 3.93211 13.8364 3.73456 13.8364C3.6687 13.8364 3.537 13.8364 3.47115 13.8364C3.4053 13.8364 3.33945 13.8364 3.33945 13.8364C3.27359 13.8364 3.14189 13.9022 3.07604 13.9681C2.94434 14.1656 3.01019 14.429 3.07604 14.6266C3.14189 14.6924 3.14189 14.8241 3.20774 14.89C3.4053 15.3509 3.537 15.8119 3.73456 16.207C3.93211 16.668 4.06381 17.0631 4.26137 17.5241C4.26137 17.5241 4.26137 17.5899 4.32722 17.5899C4.26137 17.7875 4.26137 17.7875 4.26137 17.8533C4.45893 18.446 4.65648 19.0386 4.85404 19.6313C5.05159 20.1581 5.18329 20.7508 5.315 21.2776C5.315 21.4093 5.38085 21.541 5.4467 21.6727C5.51255 21.8044 5.5784 21.9361 5.71011 22.002C5.77596 22.002 5.90766 22.0678 5.97351 22.002C6.03937 22.002 6.10522 21.9361 6.17107 21.9361C6.43448 21.8044 6.69788 21.7386 6.96129 21.6069C7.02714 21.6069 7.09299 21.541 7.15885 21.541C7.29055 21.541 7.42225 21.4752 7.55396 21.4752C7.61981 21.4752 7.75151 21.4752 7.81736 21.4752C7.88321 21.4752 7.94907 21.4752 7.94907 21.4752C8.01492 21.4752 8.01492 21.4752 8.08077 21.541C8.14662 21.541 8.21247 21.6069 8.27833 21.6069C8.34418 21.6069 8.41003 21.6727 8.47588 21.7386L8.54173 21.8044C8.60758 21.8703 8.60758 21.8703 8.67344 21.9361C8.73929 22.0678 8.87099 22.1337 8.93684 22.2654C9.00269 22.3312 9.00269 22.3971 9.06855 22.4629C9.06855 22.5288 9.1344 22.5946 9.1344 22.5946C9.20025 22.7263 9.20025 22.7922 9.20025 22.9239C9.20025 22.9897 9.20025 23.1215 9.2661 23.1873C9.2661 23.2532 9.2661 23.319 9.2661 23.3849C9.2661 23.5166 9.2661 23.6483 9.20025 23.78C9.20025 23.8458 9.20025 23.9117 9.1344 23.9775C9.1344 24.0434 9.06855 24.1092 9.06855 24.1751C9.00269 24.3068 8.93684 24.4385 8.87099 24.5043C8.80514 24.5702 8.73929 24.7019 8.67344 24.7677C8.54173 24.8994 8.41003 25.0312 8.34418 25.097C8.27833 25.1629 8.14662 25.2287 8.08077 25.2946C8.01492 25.3604 7.94907 25.3604 7.94907 25.3604H7.81736C7.75151 25.3604 7.68566 25.3604 7.68566 25.4263C7.4881 25.558 7.42225 25.7555 7.4881 25.9531C7.55396 26.2823 7.68566 26.3482 7.81736 26.414C7.88321 26.4799 7.94907 26.5457 8.01492 26.6774C8.21247 26.875 8.41003 27.1384 8.60758 27.336C8.80514 27.5335 8.93684 27.7969 9.1344 27.9945C9.2661 28.192 9.3978 28.4554 9.52951 28.653C9.59536 28.8506 9.66121 28.9823 9.79291 29.1798C9.85877 29.2457 9.85877 29.3115 9.92462 29.4432C9.92462 29.5091 9.99047 29.5091 9.99047 29.5749C10.0563 29.6408 10.1222 29.7066 10.188 29.7725C10.2539 29.8383 10.3197 29.8383 10.3856 29.8383C10.4514 29.8383 10.5831 29.8383 10.649 29.7725C10.7807 29.7066 10.9782 29.5749 11.11 29.5091C11.2417 29.4432 11.3734 29.3115 11.5051 29.2457C11.7685 29.0481 12.0977 28.8506 12.3611 28.653C12.6245 28.4554 12.9538 28.3237 13.2172 28.1262C13.3489 28.0603 13.4806 27.9945 13.6123 27.9286C13.9416 27.7969 14.2708 27.5994 14.6001 27.4677C14.8635 27.336 15.1928 27.2043 15.4562 27.0726C15.7854 26.9408 16.1147 26.8091 16.4439 26.6116C16.7732 26.4799 17.1025 26.2823 17.3659 26.1506C18.617 25.558 19.9341 25.097 21.1853 24.5043C21.8438 24.2409 22.5023 23.9117 23.1608 23.5824C23.4242 23.4507 23.6876 23.319 24.0169 23.1873C24.1486 23.1215 24.3461 23.0556 24.4778 22.9897C24.6754 22.9239 24.8071 22.858 25.0047 22.7922C25.3339 22.6605 25.6632 22.5946 25.9924 22.4629C26.3217 22.3312 26.651 22.2654 26.9802 22.1995C27.3095 22.1337 27.6387 22.002 27.968 21.9361C28.1655 21.8703 28.2972 21.8044 28.4948 21.7386C28.6265 21.6727 28.8241 21.6069 28.9558 21.6069C29.285 21.4752 29.5484 21.4093 29.8777 21.3435C30.2069 21.2776 30.4704 21.1459 30.7996 21.08C31.1289 20.9483 31.4581 20.8825 31.7215 20.7508C31.8532 20.6849 32.0508 20.6191 32.1825 20.6191C32.3142 20.5532 32.4459 20.5532 32.5776 20.4874C32.7093 20.4215 32.7752 20.3557 32.841 20.2898C32.9069 20.1581 32.9727 19.9606 32.9727 19.8289C33.0386 19.763 32.9727 19.6313 32.9069 19.4996ZM30.207 20.224C29.9435 20.2898 29.6801 20.3557 29.4167 20.4874C29.285 20.5532 29.1533 20.6191 29.0216 20.6849C28.8899 20.7508 28.8241 20.8166 28.6924 20.8825C28.3631 21.0142 28.0997 21.1459 27.7704 21.2776H27.8363C27.7046 21.3435 27.6387 21.3435 27.507 21.4093C26.8485 21.6727 26.1241 21.8703 25.4656 22.1337C25.2681 22.1995 25.1364 22.2654 24.9388 22.3312C24.9388 22.3312 24.9388 22.3312 25.0047 22.3312C24.412 22.5288 23.8193 22.7922 23.2925 23.0556C22.7657 23.319 22.2389 23.5166 21.6462 23.78C21.0536 24.0434 20.4609 24.3068 19.8024 24.5702C19.8682 24.5043 19.9341 24.3726 19.9999 24.3068C20.0658 24.2409 20.0658 24.1751 20.1316 24.1092C20.1975 24.0434 20.1975 23.9775 20.2633 23.8458C20.3292 23.78 20.3292 23.7141 20.395 23.6483C20.4609 23.5166 20.4609 23.4507 20.5267 23.319C20.5926 23.1214 20.5926 22.9239 20.6585 22.7922C20.6585 22.7263 20.6584 22.6605 20.7243 22.5288C20.7243 22.4629 20.7243 22.4629 20.7243 22.3971V22.2654C20.7243 22.1995 20.6585 22.1337 20.6585 22.0678L20.5926 22.002C20.6584 22.002 20.6584 22.002 20.7243 22.002C20.7902 22.002 20.856 21.9361 20.856 21.8703V21.8044C20.9219 21.541 21.0536 21.3435 21.1853 21.08C21.1853 21.0142 21.2511 21.0142 21.2511 20.9483C21.2511 20.8825 21.317 20.8166 21.317 20.7508V20.6849C21.4487 20.3557 21.6462 20.0264 21.7779 19.6972C21.8438 19.5655 21.9096 19.3679 21.9755 19.2362C21.9755 19.1703 22.0413 19.0386 22.0413 18.9728C22.0413 18.9069 22.1072 18.8411 22.1072 18.7094C22.1072 18.6435 22.173 18.5777 22.173 18.446C22.173 18.446 22.173 18.446 22.173 18.3801C22.2389 18.1826 22.3047 17.985 22.3047 17.7875C22.3706 17.6558 22.3706 17.4582 22.4364 17.3265C22.4364 17.1289 22.5023 16.9972 22.5023 16.7997C22.5023 16.7338 22.5023 16.6021 22.5023 16.5363C22.5023 16.4704 22.5023 16.3387 22.5023 16.2729C22.5023 16.207 22.5023 16.0753 22.5023 16.0095C22.5023 15.9436 22.5023 15.8119 22.5023 15.7461C22.5023 15.6144 22.5023 15.4826 22.4364 15.2851C22.4364 15.0875 22.3706 14.89 22.3706 14.6924C22.3047 14.4949 22.2389 14.2973 22.173 14.0998C22.0413 13.7047 21.8438 13.3095 21.5145 13.0461C21.4487 12.9803 21.3828 12.8486 21.2511 12.8486C21.1853 12.7827 21.1194 12.7827 20.9877 12.7827C20.9877 12.7827 20.9877 12.7827 20.9219 12.7827C20.856 12.7827 20.7902 12.7827 20.6585 12.7827C20.5926 12.7827 20.5267 12.8486 20.4609 12.9144C20.395 12.9803 20.3292 13.0461 20.2633 13.0461C20.1975 13.112 20.1316 13.112 20.1316 13.1778C20.0658 13.2437 19.9999 13.2437 19.9341 13.3095C19.8682 13.3754 19.8682 13.3754 19.8024 13.4412C19.7365 13.5071 19.6707 13.5729 19.6048 13.6388C19.539 13.7047 19.4731 13.7705 19.4073 13.9022C19.4073 13.9681 19.3414 13.9681 19.3414 14.0339C19.3414 14.0339 19.3414 14.0339 19.2756 14.0998L19.2097 14.1656C19.2097 14.1656 19.2097 14.2315 19.1439 14.2315L19.0122 14.3632C19.0122 14.3632 19.0122 14.3632 19.0122 14.429C19.0122 14.429 19.0122 14.4949 18.9463 14.4949L18.8805 14.5607C18.8146 14.6266 18.8146 14.6924 18.7487 14.7583C18.6829 14.8241 18.6829 14.89 18.617 14.9558C18.617 14.9558 18.617 15.0217 18.5512 15.0217C18.4853 15.1534 18.4195 15.2851 18.2878 15.3509C18.2219 15.4168 18.1561 15.4826 18.1561 15.6144C18.0902 15.7461 18.0244 15.8119 17.9585 15.9436C17.9585 16.0095 17.8927 16.0753 17.8927 16.1412C17.8268 16.207 17.8268 16.3387 17.761 16.4046C17.6951 16.4704 17.6951 16.5363 17.6293 16.6021C17.4976 16.8655 17.4317 17.1289 17.3659 17.3923C17.3 17.5241 17.3 17.7216 17.2342 17.8533C17.2342 17.8533 17.2342 17.9192 17.1683 17.9192C17.1025 17.8533 17.0366 17.8533 16.9708 17.7875C16.7732 17.6558 16.5756 17.5899 16.3122 17.5241C16.1805 17.4582 15.983 17.4582 15.8513 17.3923H15.7854C15.6537 17.3265 15.4562 17.3265 15.3245 17.2606C15.2586 17.2606 15.1928 17.2606 15.1928 17.2606C15.1269 17.2606 15.0611 17.2606 15.0611 17.2606C14.8635 17.1948 14.6001 17.1948 14.4025 17.1289C14.2708 17.1289 14.1391 17.0631 14.0074 17.0631C13.8757 17.0631 13.744 17.0631 13.6123 17.0631C13.2172 17.0631 12.8879 17.3923 12.7562 17.7216C12.6904 17.7216 12.6245 17.7875 12.6245 17.7875C12.5587 17.8533 12.427 17.9192 12.427 18.0509C12.427 18.1167 12.3611 18.1826 12.3611 18.2484C12.3611 18.3143 12.3611 18.3801 12.3611 18.3801C12.3611 18.5777 12.427 18.7752 12.4928 18.9069C12.5587 19.0386 12.6245 19.1703 12.6245 19.3021C12.6904 19.4338 12.7562 19.5655 12.8879 19.6972C12.9538 19.763 13.0196 19.8289 13.0196 19.8289C13.0855 19.8947 13.0855 19.8947 13.1514 19.9606C13.2831 20.0923 13.4148 20.2898 13.6123 20.3557C13.744 20.4874 13.9416 20.5532 14.1391 20.6849C14.2708 20.7508 14.4684 20.8166 14.6001 20.8825C14.7976 20.9483 14.9952 21.0142 15.1928 21.0142C15.2586 21.0142 15.2586 21.0142 15.3245 21.0142C15.3903 21.0142 15.522 21.08 15.5879 21.08C15.6537 21.08 15.6537 21.08 15.7196 21.1459C15.9171 21.2117 16.0488 21.2776 16.2464 21.3435C16.4439 21.4093 16.5756 21.4752 16.7732 21.4752C16.8391 21.4752 16.9708 21.541 17.0366 21.541C17.1025 21.541 17.2342 21.6069 17.3 21.6069C17.4976 21.6727 17.6293 21.6727 17.8268 21.7386C17.9585 21.8044 18.1561 21.8044 18.2878 21.8703C18.4853 21.9361 18.6829 21.9361 18.8146 22.002C18.9463 22.002 19.1439 22.002 19.2756 22.002C19.3414 22.002 19.4731 22.0678 19.539 22.0678C19.7365 22.0678 19.8682 22.1337 20.0658 22.1337C20.1316 22.1337 20.1975 22.1337 20.2633 22.1995L20.3292 22.2654C20.3292 22.2654 20.3292 22.2654 20.3292 22.3312C20.3292 22.3971 20.3292 22.4629 20.3292 22.4629C20.3292 22.5946 20.3292 22.7263 20.2633 22.858C20.2633 22.858 20.2633 22.858 20.2633 22.9239C20.2633 22.9239 20.2633 22.9239 20.2633 22.9897C20.2633 23.1215 20.1975 23.2532 20.1975 23.3849C20.1975 23.4507 20.1316 23.5166 20.1316 23.5824C19.9999 23.78 19.8682 24.0434 19.7365 24.2409C19.6707 24.3726 19.6048 24.4385 19.539 24.5043C19.4731 24.5702 19.4073 24.636 19.3414 24.7019C18.8146 24.8994 18.2878 25.097 17.8268 25.3604C17.4976 25.4921 17.1683 25.6238 16.9049 25.7555C16.5756 25.8872 16.2464 26.0848 15.983 26.2165C15.6537 26.3482 15.3245 26.4799 15.0611 26.6774C14.7318 26.8091 14.4684 26.9408 14.1391 27.0726C13.8099 27.2043 13.4806 27.4018 13.1514 27.5335C12.8221 27.6652 12.5587 27.8628 12.2294 28.0603C11.7026 28.3896 11.1758 28.7188 10.649 29.0481C10.649 28.9823 10.5831 28.9823 10.5831 28.9164L10.5173 28.8506C10.2539 28.5213 10.0563 28.1262 9.79291 27.7969C9.59536 27.4677 9.33195 27.2043 9.1344 26.875C8.93684 26.5457 8.87099 26.414 8.73929 26.2165C8.67344 26.1506 8.67344 26.0848 8.60758 26.0848C8.73929 25.9531 8.87099 25.8872 9.00269 25.7555C9.1344 25.6238 9.2661 25.4921 9.3978 25.3604C9.52951 25.2287 9.66121 25.0312 9.72706 24.8994C9.79292 24.7677 9.92462 24.636 9.99047 24.4385C10.0563 24.2409 10.1222 24.0434 10.1222 23.8458C10.1222 23.5824 10.188 23.3849 10.1222 23.1214C10.1222 22.9239 10.0563 22.6605 9.99047 22.4629C9.92462 22.2654 9.79291 22.002 9.66121 21.8044C9.59536 21.7386 9.52951 21.6727 9.46366 21.541C9.33195 21.4093 9.20025 21.2117 9.06855 21.08C8.87099 20.9483 8.73929 20.8825 8.54173 20.7508C8.27833 20.6849 8.08077 20.6191 7.81736 20.6191C7.68566 20.6191 7.61981 20.6191 7.4881 20.6191C7.29055 20.6191 7.15885 20.6849 6.96129 20.6849C6.69788 20.7508 6.36863 20.8825 6.10522 20.9483C5.97352 20.6191 5.84181 20.2898 5.71011 19.9606C5.5784 19.8289 5.4467 19.4996 5.38085 19.2362C4.91989 17.9192 4.45893 16.668 3.93211 15.3509C3.93211 15.3509 3.93211 15.3509 3.93211 15.4168C3.93211 15.3509 3.86626 15.2851 3.86626 15.2192C3.86626 15.1534 3.86626 15.1534 3.80041 15.0875C3.73456 14.9558 3.73456 14.89 3.6687 14.7583C3.6687 14.6924 3.6687 14.5607 3.60285 14.4949C3.60285 14.4949 3.60285 14.4949 3.6687 14.4949C3.73456 14.4949 3.86626 14.4949 3.93211 14.429C4.12967 14.429 4.32722 14.3632 4.52478 14.3632C4.72233 14.3632 4.91989 14.2973 5.11744 14.2973C5.315 14.2973 5.51255 14.2315 5.71011 14.1656C6.03937 14.0998 6.36863 14.0339 6.69788 13.9022C7.02714 13.8364 7.42225 13.7047 7.75151 13.5729C8.41003 13.3754 9.06855 13.2437 9.72706 13.0461C9.92462 12.9803 10.0563 12.9803 10.2539 12.9144C10.4514 12.8486 10.649 12.8486 10.9124 12.7827C11.11 12.7169 11.3075 12.7169 11.5051 12.651C11.8343 12.5852 12.1636 12.4535 12.4928 12.3876C12.7562 12.3218 13.0196 12.2559 13.3489 12.1242C14.0074 11.9267 14.6659 11.7291 15.3903 11.5315C15.983 11.334 16.6415 11.1364 17.2342 10.9389C17.5634 10.8072 17.9585 10.6755 18.2878 10.5438C18.617 10.4121 18.9463 10.3462 19.2756 10.2145C19.4731 10.1487 19.7365 10.0828 19.9341 9.9511C20.5267 9.75355 21.1194 9.49014 21.7121 9.29259C22.3706 9.02918 22.9633 8.76577 23.6218 8.50237C23.951 8.37066 24.2144 8.23896 24.5437 8.10726C24.873 7.97555 25.2681 7.778 25.5973 7.64629C25.6632 7.64629 25.6632 7.64629 25.729 7.58044C25.729 7.58044 25.729 7.58044 25.7949 7.58044C25.8607 7.58044 25.9266 7.58044 25.9266 7.44874V7.38289C25.9924 7.38289 25.9924 7.31703 26.0583 7.31703C26.2558 7.18533 26.4534 7.11948 26.651 6.98778C26.7827 6.92192 26.9144 6.79022 27.0461 6.65852C27.0461 6.72437 27.1119 6.79022 27.1119 6.85607C27.1778 6.98778 27.1778 7.18533 27.2436 7.31703C27.3095 7.44874 27.3753 7.58044 27.4412 7.71214C27.507 7.97555 27.6387 8.23896 27.7046 8.50237C27.7704 8.76577 27.9021 9.02918 27.968 9.35844C28.0997 9.88525 28.2314 10.4779 28.3631 11.0047C28.3631 11.1364 28.429 11.2023 28.429 11.334C28.3631 11.334 28.2973 11.3998 28.2314 11.3998C28.0997 11.4657 28.0338 11.4657 27.9021 11.4657C27.8363 11.4657 27.7704 11.4657 27.7046 11.4657C27.4412 11.5315 27.2436 11.6632 27.0461 11.8608C26.9144 11.9925 26.7827 12.0584 26.651 12.1901C26.5193 12.3218 26.4534 12.4535 26.3217 12.651C26.1241 12.9144 26.0583 13.2437 25.9266 13.5729C25.8607 13.7705 25.8607 13.9022 25.7949 14.0998C25.7949 14.1656 25.7949 14.2973 25.7949 14.3632C25.7949 14.5607 25.8607 14.7583 25.9924 14.9558C25.9924 14.9558 25.9924 14.9558 25.9924 15.0217C26.0583 15.2192 26.19 15.3509 26.3875 15.4826C26.5193 15.5485 26.5851 15.6802 26.7168 15.7461C26.9144 15.8778 27.1119 15.9436 27.3095 15.9436C27.3753 15.9436 27.4412 16.0095 27.5729 16.0095C27.6387 16.0095 27.7704 16.0753 27.8363 16.0753C28.0338 16.0753 28.1655 16.0753 28.3631 16.0753C28.4948 16.0753 28.6924 16.0753 28.8241 16.0753C29.1533 16.0753 29.4826 16.0095 29.8118 16.0095C30.0752 16.0095 30.2728 15.9436 30.5362 15.9436C30.5362 16.0095 30.5362 16.0095 30.6021 16.0753C30.6679 16.207 30.7338 16.3387 30.7338 16.4704C30.9313 17.0631 31.1289 17.6558 31.3264 18.2484C31.4581 18.7094 31.6557 19.1703 31.8532 19.5655C31.1947 19.8947 30.7338 20.0264 30.207 20.224ZM20.3292 21.2776C20.3292 21.3435 20.3292 21.4093 20.3292 21.4752C20.3292 21.541 20.3292 21.541 20.3292 21.6069C20.3292 21.6069 20.3292 21.6069 20.2633 21.6069C20.1975 21.541 20.0658 21.541 19.9999 21.541C19.9341 21.541 19.9341 21.541 19.8682 21.541C19.9341 21.4752 19.9999 21.4093 19.9999 21.3435V21.2776C20.1316 21.0142 20.2633 20.7508 20.3292 20.4215C20.4609 20.0923 20.5267 19.763 20.6585 19.4338C20.856 18.7752 20.9877 18.1167 21.1853 17.4582C21.2511 17.1948 21.317 16.9972 21.3828 16.7338C21.3828 16.668 21.4487 16.6021 21.4487 16.5363C21.5145 16.4046 21.5145 16.3387 21.5804 16.207C21.5804 16.1412 21.6462 16.0753 21.6462 16.0095C21.6462 15.9436 21.7121 15.8119 21.7121 15.7461C21.7121 15.7461 21.7121 15.7461 21.7121 15.6802C21.7121 15.6144 21.7121 15.4826 21.7779 15.4168C21.8438 15.3509 21.8438 15.2851 21.8438 15.1534C21.9096 15.0217 21.9096 14.89 21.8438 14.8241C21.8438 14.7583 21.7779 14.6924 21.7121 14.6266C21.7121 14.5607 21.7121 14.4949 21.7121 14.4949C21.7121 14.429 21.7121 14.2973 21.7121 14.2315C21.7121 14.1656 21.7121 14.0998 21.7121 14.0998C21.7779 14.1656 21.7779 14.2973 21.8438 14.3632C21.9096 14.4949 21.9096 14.6924 21.9755 14.8241C21.9755 14.89 21.9755 14.9558 22.0413 15.0217C22.0413 15.0875 22.0413 15.1534 22.0413 15.2192C22.0413 15.2851 22.0413 15.2851 22.0413 15.3509C22.0413 15.4168 22.0413 15.4168 22.0413 15.4826C22.0413 15.5485 22.0413 15.5485 22.0413 15.6144C22.0413 15.9436 21.9755 16.2729 21.9096 16.6021C21.8438 16.8655 21.7779 17.1289 21.7121 17.4582C21.6462 17.7216 21.5804 17.985 21.4487 18.3143C21.4487 18.3143 21.4487 18.3143 21.4487 18.3801V18.5118C21.3828 18.7752 21.2511 19.1045 21.1853 19.3679C21.1194 19.6313 20.9877 19.8947 20.9219 20.1581C20.856 20.2898 20.856 20.4215 20.7902 20.5532C20.7243 20.6849 20.7243 20.8166 20.6585 20.8825C20.395 21.0142 20.3292 21.1459 20.3292 21.2776ZM20.856 13.112C20.9219 13.112 20.9219 13.112 20.9219 13.112C20.9877 13.1778 21.0536 13.2437 21.0536 13.2437C21.1194 13.3095 21.1194 13.3095 21.1194 13.3754C21.1853 13.4412 21.2511 13.5729 21.2511 13.6388C21.2511 13.7047 21.317 13.7047 21.317 13.7705V13.8364L21.2511 13.7705C21.2511 13.7047 21.1853 13.6388 21.1853 13.6388C21.1194 13.5071 20.9877 13.3754 20.856 13.3095C20.7902 13.2437 20.6584 13.2437 20.5926 13.1778C20.7243 13.112 20.7902 13.112 20.856 13.112ZM20.3292 14.5607C20.3292 14.6266 20.3292 14.6266 20.3292 14.6924L20.2633 14.6266C20.2633 14.6266 20.2633 14.6266 20.3292 14.5607ZM18.5512 21.3435C18.617 21.3435 18.7487 21.3435 18.8146 21.3435H18.8805C18.9463 21.4093 19.078 21.4752 19.2097 21.4752C19.2097 21.4752 19.2097 21.4752 19.2756 21.4752C19.2097 21.4752 19.078 21.4752 19.0122 21.4752C18.8805 21.4752 18.8146 21.4093 18.6829 21.4093C18.617 21.4093 18.5512 21.4093 18.5512 21.3435ZM19.9341 21.8044C19.9999 21.8044 19.9999 21.8044 20.0658 21.8044C20.1316 21.8703 20.1316 21.8703 20.1316 21.9361C20.0658 21.9361 19.9999 21.8703 19.9341 21.8703C19.8682 21.8703 19.8024 21.8044 19.6707 21.8044H19.7365C19.8682 21.8044 19.9341 21.8044 19.9341 21.8044ZM21.2511 19.5655C21.2511 19.6313 21.2511 19.6313 21.2511 19.5655C21.2511 19.6313 21.1853 19.6313 21.1853 19.6313C21.1853 19.6313 21.1853 19.6972 21.1194 19.6972C21.1194 19.6972 21.1194 19.763 21.0536 19.763C21.0536 19.763 21.0536 19.763 21.0536 19.6972C21.1853 19.6972 21.1853 19.6313 21.2511 19.5655C21.2511 19.4338 21.2511 19.3679 21.317 19.3021C21.317 19.2362 21.3828 19.1703 21.3828 19.1045C21.3828 19.0386 21.4487 18.9728 21.4487 18.9069C21.4487 18.8411 21.5145 18.7752 21.5145 18.7094C21.5804 18.3801 21.7121 18.1167 21.7779 17.7875C21.7779 17.7216 21.8438 17.6558 21.8438 17.5241C21.8438 17.4582 21.9096 17.3923 21.9096 17.2606C21.9755 17.0631 21.9755 16.8655 22.0413 16.668C22.0413 16.4704 22.1072 16.3387 22.1072 16.1412C22.1072 16.207 22.1072 16.2729 22.1072 16.4046C22.1072 16.4704 22.1072 16.5363 22.1072 16.6021C22.1072 16.7997 22.1072 16.9972 22.0413 17.1289C21.9755 17.3923 21.9096 17.5899 21.8438 17.8533C21.7779 17.985 21.7779 18.1167 21.7121 18.2484C21.6462 18.3801 21.6462 18.446 21.5804 18.5777C21.5145 18.7094 21.5145 18.8411 21.4487 18.9069C21.4487 19.1703 21.3828 19.3679 21.2511 19.5655Z" fill="#2D2E31"/>
</svg>
