<svg width="36" height="36" viewBox="0 0 36 36" fill="none" xmlns="http://www.w3.org/2000/svg">
<path d="M0 18C0 8.05888 8.05888 0 18 0C27.9411 0 36 8.05888 36 18C36 27.9411 27.9411 36 18 36C8.05888 36 0 27.9411 0 18Z" fill="#E8E5DD"/>
<path d="M18.1396 27.2082C18.1396 27.2115 18.1396 27.2148 18.1363 27.2148C18.1363 27.2181 18.1363 27.2214 18.1329 27.2248C18.1363 27.2181 18.1396 27.2115 18.1396 27.2082Z" fill="#2D2E31"/>
<path d="M26.2111 21.4134C26.2179 21.4167 26.2212 21.4233 26.228 21.4266C26.2212 21.42 26.2145 21.4167 26.2111 21.4134Z" fill="#2D2E31"/>
<path d="M12.252 15.3763C12.2452 15.373 12.2385 15.3697 12.2317 15.3663C12.2385 15.3697 12.2486 15.373 12.252 15.3763Z" fill="#2D2E31"/>
<path d="M9.54849 13.8363C9.54484 13.8363 9.54484 13.8327 9.54118 13.8327C9.54484 13.8363 9.54484 13.8363 9.54849 13.8363Z" fill="#2D2E31"/>
<path d="M15.6589 6.74928C15.6589 6.74603 15.6556 6.74278 15.6556 6.73953C15.649 6.72653 15.6424 6.71029 15.639 6.69729C15.6457 6.71354 15.6523 6.73303 15.6589 6.74928Z" fill="#2D2E31"/>
<path d="M16.9527 3.30484C16.9626 3.30159 16.9725 3.29834 16.9824 3.29509C16.9857 3.29509 16.989 3.29184 16.9923 3.29184C16.9758 3.29509 16.9659 3.30159 16.9527 3.30484Z" fill="#2D2E31"/>
<path d="M29.0917 21.666H29.096C29.096 21.666 29.096 21.666 29.0917 21.666Z" fill="#2D2E31"/>
<path d="M29.5651 21.8331C29.5717 21.8363 29.5784 21.8396 29.585 21.8428C29.5949 21.8461 29.6048 21.8493 29.6114 21.8525C29.5949 21.8461 29.5817 21.8363 29.5651 21.8331Z" fill="#2D2E31"/>
<path d="M28.1746 14.4914C28.1647 14.4881 28.1581 14.4849 28.1482 14.4816H28.1449C28.1548 14.4849 28.1647 14.4881 28.1746 14.4914Z" fill="#2D2E31"/>
<path d="M31.9089 11.506C31.8789 11.3782 31.8389 11.2504 31.8022 11.1225C31.7889 11.0767 31.7689 11.034 31.7555 10.9914C31.7555 10.9882 31.7555 10.9849 31.7555 10.9816C31.7555 10.9783 31.7522 10.9718 31.7489 10.9685C31.7289 10.9095 31.7122 10.8505 31.6855 10.7948C31.6588 10.7391 31.6255 10.6899 31.5955 10.6375C31.5922 10.6342 31.5922 10.6309 31.5888 10.6244C31.5888 10.6211 31.5855 10.6211 31.5855 10.6211C31.4821 10.4441 31.3621 10.2737 31.2154 10.1294C31.0587 9.9754 30.8787 9.85741 30.692 9.73942C30.5053 9.62471 30.3186 9.50016 30.1152 9.41167C29.9552 9.34284 29.7885 9.2904 29.6184 9.25763C29.4617 9.22485 29.2984 9.2183 29.1383 9.19863C28.9283 9.17569 28.7216 9.16586 28.5116 9.19208C28.2882 9.2183 28.0581 9.27074 27.8614 9.37889C27.7948 9.41495 27.7314 9.45755 27.6714 9.50344C27.6147 9.53294 27.558 9.56571 27.508 9.60177C27.418 9.66732 27.3313 9.73287 27.248 9.80497C27.1546 9.88363 27.0646 9.96885 26.9846 10.0606C26.8946 10.1655 26.8179 10.2769 26.7479 10.3916C26.6045 10.6178 26.4945 10.8571 26.4145 11.1094C26.3378 11.352 26.2745 11.5945 26.2411 11.8501C26.2278 11.9616 26.2178 12.073 26.2178 12.1845C26.2178 12.3057 26.2144 12.4303 26.2278 12.5483C26.2545 12.7646 26.3311 12.9645 26.4378 13.1546C26.4245 13.1612 26.4078 13.171 26.3945 13.1775C26.2811 13.2365 26.1644 13.2923 26.0444 13.3381C25.9511 13.3742 25.8577 13.407 25.7644 13.443H25.7677C25.621 13.4987 25.481 13.5676 25.3409 13.6331C25.1976 13.6987 25.0542 13.7609 24.9109 13.8199C24.7008 13.8986 24.4908 13.9707 24.2774 14.0363C24.2574 14.0428 24.2407 14.0494 24.2207 14.0526C24.2074 13.8757 24.1774 13.6987 24.1174 13.5315C24.0674 13.384 24.0007 13.2365 23.8907 13.1218C23.7873 13.0104 23.6439 12.9219 23.4906 12.899C23.3839 12.8826 23.2739 12.8695 23.1672 12.876C23.0172 12.8826 22.8705 12.9186 22.7271 12.9579C22.447 13.0366 22.1637 13.1218 21.8903 13.2267C21.6636 13.3152 21.4469 13.4299 21.2435 13.5676C20.9601 13.7609 20.69 13.9674 20.4533 14.2165C20.4133 14.2591 20.38 14.305 20.34 14.3476C20.2666 14.4066 20.1866 14.4558 20.1199 14.5181C19.9032 14.718 19.6965 14.931 19.4831 15.1375C19.3464 15.2653 19.2064 15.3899 19.0697 15.5177C18.9797 15.6062 18.8897 15.6947 18.7963 15.7799C18.7697 15.8061 18.743 15.8356 18.7163 15.8618C18.6596 15.7537 18.6063 15.6455 18.553 15.5341C18.5496 15.4128 18.5496 15.2915 18.543 15.1703C18.5229 14.8097 18.4796 14.4525 18.4363 14.0953C18.4363 14.1018 18.4363 14.1051 18.4396 14.1116C18.4363 14.0723 18.4296 14.0363 18.4263 13.9969C18.4263 14.0035 18.4263 14.01 18.4263 14.0166C18.4096 13.8593 18.3929 13.7019 18.3829 13.5413C18.3796 13.3414 18.3763 13.1448 18.3796 12.9448C18.3796 12.9186 18.3796 12.8924 18.3796 12.8629C18.3796 12.8727 18.3796 12.8826 18.3796 12.8891C18.3796 12.7973 18.3829 12.7023 18.3829 12.6105V12.6138C18.3829 12.6073 18.3829 12.604 18.3829 12.5974C18.3829 12.5876 18.3829 12.5778 18.3829 12.5679C18.3829 12.545 18.3829 12.5188 18.3829 12.4958C18.3829 12.5057 18.3829 12.5155 18.3829 12.522C18.3829 12.4991 18.3829 12.4762 18.3829 12.4532V12.4565C18.3829 12.4401 18.3829 12.427 18.3829 12.4106V12.4139C18.3829 12.3877 18.3829 12.3614 18.3829 12.3352C18.3829 12.3451 18.3829 12.3549 18.3829 12.3614C18.3863 12.1222 18.3963 11.8829 18.3996 11.6437C18.4029 11.3913 18.3963 11.1356 18.3963 10.8833C18.3963 10.4933 18.3963 10.1032 18.3796 9.7132C18.3696 9.49688 18.3562 9.28385 18.3429 9.06753C18.3362 8.9692 18.3329 8.8676 18.3262 8.76928C18.3229 8.72339 18.3196 8.67423 18.3162 8.62834C18.3129 8.59229 18.2996 8.55951 18.2862 8.52674C18.3763 8.51363 18.4663 8.51035 18.5563 8.48741C18.6696 8.47758 18.7863 8.46447 18.893 8.43825C19.0631 8.39564 19.2264 8.33992 19.3898 8.27765C19.5331 8.22193 19.6665 8.15638 19.7965 8.08427C19.9132 8.01872 20.0299 7.95317 20.1399 7.87779C20.2366 7.81224 20.3366 7.74341 20.4267 7.66803C20.5267 7.58281 20.6234 7.48776 20.7134 7.38944C20.8101 7.278 20.8967 7.16001 20.9668 7.02891C21.0268 6.91747 21.0801 6.80604 21.1268 6.68805C21.2268 6.44551 21.3035 6.18986 21.3568 5.93094C21.4035 5.6884 21.4135 5.44914 21.4002 5.20333C21.3868 4.96735 21.3368 4.72481 21.2535 4.50194C21.2001 4.35445 21.1368 4.2168 21.0501 4.0857C20.9668 3.95787 20.8734 3.8366 20.7667 3.72845C20.5633 3.52524 20.3133 3.38103 20.0366 3.29909C19.9032 3.25976 19.7699 3.23354 19.6332 3.20732C19.5598 3.19421 19.4831 3.1811 19.4098 3.16799C19.2464 3.12538 19.0797 3.08605 18.9164 3.04672C18.8263 3.02706 18.7363 3.00411 18.643 3.00084C18.533 2.99756 18.4229 3.00411 18.3129 3.01722C18.2329 3.02706 18.1529 3.04017 18.0762 3.05328C18.0295 3.05655 17.9828 3.06311 17.9362 3.06966C17.8695 3.0795 17.8061 3.08605 17.7428 3.09916C17.6061 3.12538 17.4661 3.14505 17.3327 3.17782C17.216 3.20732 17.1027 3.2532 16.9893 3.29581C16.856 3.34825 16.7259 3.41053 16.6059 3.48591C16.5426 3.52524 16.4759 3.56457 16.4225 3.61373C16.3659 3.66289 16.3125 3.71534 16.2558 3.76778C16.1558 3.86282 16.0625 3.96115 15.9791 4.06931C15.8891 4.18402 15.8258 4.3184 15.7691 4.4495C15.7191 4.56421 15.6791 4.6822 15.6391 4.8002C15.599 4.92474 15.5624 5.05256 15.5357 5.18039C15.5057 5.30821 15.4924 5.43603 15.4857 5.56714C15.4824 5.69496 15.4757 5.8195 15.4824 5.94733C15.4924 6.22264 15.559 6.48484 15.6591 6.74049C15.6757 6.77982 15.6891 6.81915 15.7091 6.8552C15.8224 7.09446 15.9691 7.32717 16.1392 7.53037C16.2158 7.61886 16.2958 7.70736 16.3759 7.79257C16.4592 7.88107 16.5426 7.96956 16.6392 8.04494C16.8193 8.18915 17.0127 8.33009 17.236 8.40875C17.3327 8.44152 17.4327 8.46774 17.5361 8.49069C17.6228 8.51035 17.7128 8.53329 17.7995 8.5464C17.8228 8.54968 17.8461 8.54968 17.8662 8.54968C17.8662 8.58901 17.8662 8.63162 17.8662 8.67095C17.8662 8.83483 17.8695 8.9987 17.8762 9.16258C17.8828 9.34612 17.8995 9.53294 17.9095 9.71648C17.9195 9.91313 17.9328 10.1131 17.9462 10.3097C17.9595 10.5129 17.9728 10.7161 17.9862 10.9226C17.9928 11.0242 17.9995 11.1258 18.0028 11.2274C17.9995 11.3323 17.9928 11.4405 17.9895 11.5486C17.9828 11.742 17.9695 11.9321 17.9628 12.1255C17.9562 12.3057 17.9528 12.486 17.9495 12.6695C17.9395 13.0661 17.9228 13.4627 17.9395 13.8593C17.9495 14.1444 17.9662 14.4263 17.9862 14.7114C17.8795 14.5738 17.7795 14.4361 17.6661 14.3083C17.4794 14.1018 17.276 13.9117 17.0593 13.7347C16.6859 13.4332 16.3559 13.0727 15.9024 12.8826C15.5824 12.7482 15.229 12.699 14.8822 12.6925C14.7289 12.6925 14.5722 12.6925 14.4188 12.7121C14.3188 12.722 14.2188 12.7384 14.1221 12.7711C14.0321 12.8006 13.9454 12.8465 13.8654 12.8957C13.672 13.0169 13.4886 13.1907 13.3953 13.4004C13.3186 13.5741 13.2819 13.7577 13.2519 13.9445C13.2219 14.128 13.1986 14.3148 13.1986 14.5017C13.1986 14.6688 13.2186 14.8327 13.2419 14.9966C13.2586 15.1113 13.2786 15.2227 13.2986 15.3374C13.0552 15.2162 12.8018 15.108 12.5518 14.9966C12.3684 14.9179 12.1884 14.836 12.0083 14.754C11.8416 14.6754 11.6749 14.5869 11.5149 14.4984C11.3382 14.4001 11.1582 14.3083 10.9781 14.2132C10.8781 14.1608 10.7748 14.1084 10.6714 14.0592C10.4347 13.9347 10.188 13.8232 9.95795 13.6888C9.85126 13.6233 9.74124 13.561 9.63455 13.4955C9.58121 13.4627 9.52786 13.4266 9.47452 13.3939C9.46785 13.3906 9.46118 13.384 9.45451 13.3807C9.48452 13.3316 9.52119 13.2857 9.54787 13.2365C9.60454 13.1382 9.66122 13.0333 9.6979 12.9252C9.7379 12.8105 9.77124 12.6957 9.79791 12.5778C9.84792 12.3713 9.8746 12.1615 9.8746 11.9485C9.8746 11.7158 9.83125 11.4863 9.76124 11.2635C9.69456 11.0537 9.62121 10.8505 9.51786 10.6571C9.46452 10.5588 9.41451 10.4605 9.3545 10.3654C9.29448 10.2671 9.22447 10.1786 9.15112 10.0934C9.09444 10.0246 9.03443 9.95902 8.98109 9.89019C8.92441 9.82136 8.86107 9.75581 8.79105 9.69681C8.50433 9.47066 8.17427 9.28057 7.8242 9.17241C7.66083 9.11997 7.4908 9.07736 7.32077 9.04459C7.11739 9.00198 6.89735 8.98559 6.69064 9.02492C6.46393 9.06753 6.25056 9.15275 6.05385 9.27074C5.98717 9.31334 5.92049 9.35595 5.85381 9.40184C5.79047 9.43133 5.73046 9.45755 5.66711 9.48705C5.56376 9.53294 5.46374 9.57882 5.36372 9.63454C5.2737 9.6837 5.18702 9.75581 5.12034 9.83447C5.107 9.85086 5.09367 9.87052 5.08033 9.88691C5.03032 9.92624 4.98031 9.96229 4.93697 10.0049C4.79694 10.136 4.68025 10.2868 4.57356 10.4441C4.46354 10.6014 4.37019 10.7686 4.29351 10.9423C4.0568 11.4405 3.92677 12.0107 4.04346 12.5614C4.10014 12.8334 4.20683 13.0923 4.35019 13.3316C4.49355 13.5676 4.69025 13.7741 4.9103 13.9412C5.34371 14.269 5.88382 14.3968 6.40059 14.5279C6.54061 14.5639 6.68398 14.6 6.82734 14.6131C6.88735 14.6197 6.94736 14.6197 7.00737 14.6197C7.08072 14.6197 7.15407 14.6164 7.22741 14.6065C7.3041 14.5967 7.38078 14.577 7.45746 14.5607C7.46746 14.5607 7.4808 14.5607 7.4908 14.5574C7.6775 14.5344 7.86087 14.5049 8.04424 14.4591C8.25095 14.4099 8.45765 14.3378 8.63102 14.2165C8.72104 14.1542 8.80772 14.092 8.88774 14.0166C8.97109 13.9379 9.04777 13.8593 9.12445 13.7773C9.16446 13.7347 9.20113 13.6888 9.23781 13.6462C9.26781 13.6659 9.30115 13.6856 9.33116 13.7052C9.33116 13.7085 9.33449 13.7085 9.33449 13.7118C9.34449 13.7249 9.36116 13.7347 9.3745 13.7347C9.43118 13.7708 9.48785 13.8035 9.54453 13.8396C9.67456 13.915 9.80458 13.9904 9.93794 14.0625C10.068 14.1313 10.2047 14.1936 10.338 14.2591C10.4947 14.3542 10.6514 14.4492 10.8014 14.5508C10.9681 14.6623 11.1315 14.777 11.3015 14.8884C11.4616 14.9933 11.6216 15.0982 11.795 15.1834C11.9283 15.2489 12.0684 15.3079 12.2084 15.3571C12.2217 15.3637 12.2351 15.3735 12.2484 15.38C12.3918 15.4653 12.5385 15.5472 12.6885 15.6193C12.8418 15.6947 12.9985 15.7701 13.1519 15.8454C13.2419 15.8913 13.3353 15.9339 13.4253 15.9798C13.4353 15.9864 13.4486 15.9962 13.4586 16.0028C13.5253 16.2093 13.6053 16.4092 13.712 16.6026C14.0521 17.2253 14.5222 17.7628 15.0089 18.2806C15.1356 18.415 15.2623 18.5461 15.3957 18.6707C15.4323 18.7067 15.4724 18.7395 15.509 18.7723C15.6324 18.9296 15.7524 19.0869 15.8791 19.241C15.9258 19.2967 15.9691 19.3524 16.0158 19.4081C15.9958 19.4179 15.9758 19.4278 15.9558 19.4409C15.8724 19.4901 15.7924 19.5392 15.7124 19.5917C15.6124 19.6605 15.5157 19.7326 15.419 19.8014C15.429 19.7949 15.439 19.7883 15.449 19.7818C15.439 19.7883 15.4323 19.7949 15.4223 19.7981C15.4257 19.7981 15.4257 19.7949 15.429 19.7949C15.179 19.9751 14.9356 20.1619 14.6889 20.3455C14.6922 20.3422 14.6955 20.3389 14.6989 20.3389C14.6955 20.3422 14.6889 20.3455 14.6855 20.3488C14.6822 20.352 14.6755 20.3553 14.6722 20.3586C14.6755 20.3553 14.6789 20.352 14.6855 20.3488C14.6722 20.3586 14.6589 20.3684 14.6455 20.375C14.6489 20.3717 14.6522 20.3717 14.6555 20.3684C14.4455 20.5159 14.2321 20.6569 14.0121 20.7912C13.8987 20.8601 13.782 20.9289 13.6687 21.001C13.562 21.0698 13.4586 21.1419 13.3553 21.214C13.3653 21.2075 13.3719 21.2009 13.3786 21.1944C13.3653 21.2042 13.3553 21.2108 13.3453 21.2206C13.3486 21.2206 13.3486 21.2173 13.3519 21.2173C13.3319 21.2304 13.3153 21.2435 13.2953 21.2566C13.3053 21.2501 13.3119 21.2435 13.3186 21.237C13.3019 21.2468 13.2886 21.2599 13.2719 21.2697C13.2719 21.2697 13.2753 21.2665 13.2786 21.2665C13.2586 21.2796 13.2419 21.2927 13.2219 21.3058C13.1919 21.3287 13.1586 21.3517 13.1286 21.3746C13.1386 21.3681 13.1452 21.3648 13.1519 21.3582C13.1186 21.3812 13.0886 21.4041 13.0552 21.4271C13.0285 21.4467 12.9985 21.4664 12.9719 21.4893C12.9785 21.4828 12.9885 21.4795 12.9952 21.473C12.9252 21.5221 12.8585 21.5713 12.7885 21.6204C12.7985 21.6139 12.8052 21.6106 12.8118 21.6041C12.7818 21.6237 12.7518 21.6467 12.7218 21.6696C12.6218 21.7286 12.5218 21.7876 12.4218 21.8466C12.2517 21.9449 12.085 22.0465 11.915 22.1448C11.755 22.2399 11.5949 22.3349 11.4316 22.4234C11.4416 22.4202 11.4482 22.4136 11.4582 22.4103C11.4349 22.4234 11.4116 22.4365 11.3882 22.4464C11.3982 22.4431 11.4049 22.4365 11.4149 22.4333C11.2382 22.5283 11.0582 22.6234 10.8848 22.725C10.7181 22.8233 10.5581 22.9282 10.398 23.0331C10.2747 23.115 10.1513 23.1969 10.0313 23.2821C9.96128 23.1937 9.8946 23.1084 9.81125 23.0331C9.74791 22.9806 9.68456 22.9282 9.61455 22.8823C9.50452 22.8135 9.38784 22.7577 9.26781 22.7086C9.05777 22.6201 8.82773 22.5709 8.60435 22.5381C8.501 22.5218 8.40098 22.5086 8.30096 22.4988C8.13092 22.4398 7.95756 22.4005 7.77752 22.3907C7.4908 22.3743 7.20074 22.43 6.92069 22.4923C6.67397 22.5447 6.42726 22.6004 6.18388 22.6692C5.91716 22.7446 5.68711 22.8823 5.48041 23.0593C5.38039 23.1445 5.28704 23.2363 5.20369 23.3379C5.11367 23.446 5.03365 23.5575 4.96031 23.6787C4.96364 23.6722 4.97031 23.6656 4.97364 23.6591C4.95364 23.6886 4.93697 23.7213 4.91696 23.7508C4.92697 23.7377 4.93363 23.7246 4.94364 23.7115C4.85362 23.8557 4.77027 24.0065 4.69359 24.1572C4.61691 24.3015 4.54356 24.4522 4.49021 24.6063C4.40687 24.8521 4.33352 25.111 4.33018 25.3732C4.32685 25.6321 4.34019 25.8976 4.42687 26.1467C4.47021 26.2745 4.52022 26.3991 4.58023 26.5203C4.64024 26.6383 4.71026 26.7498 4.78361 26.8612C4.85695 26.9661 4.93697 27.0677 5.02032 27.166C5.10033 27.2578 5.18368 27.3463 5.27703 27.4217C5.28037 27.4217 5.28037 27.4249 5.2837 27.4249C5.2837 27.4249 5.28037 27.4249 5.28037 27.4217C5.28704 27.4249 5.29037 27.4315 5.29704 27.4348C5.30371 27.4413 5.31371 27.4479 5.32038 27.4544C5.31371 27.4479 5.30704 27.4413 5.30037 27.438C5.46707 27.5724 5.65711 27.6806 5.84381 27.7822C6.01718 27.8772 6.20055 27.9559 6.39058 28.0149C6.57062 28.0739 6.75399 28.1296 6.94403 28.1493C7.05738 28.1591 7.17074 28.1657 7.28743 28.1657C7.36411 28.1657 7.44412 28.1624 7.52081 28.1591C7.77419 28.146 8.02424 28.1099 8.27095 28.0411C8.39431 28.0051 8.51433 27.9493 8.62769 27.8903C8.74438 27.8313 8.8544 27.7658 8.96109 27.6937C9.07444 27.6216 9.17446 27.5364 9.27448 27.4479C9.3745 27.3594 9.46785 27.2643 9.5512 27.1627C9.7079 26.9694 9.85793 26.7694 9.98128 26.5531C10.0446 26.4417 10.0913 26.3171 10.138 26.1959C10.178 26.0943 10.2247 25.9927 10.258 25.8911C10.298 25.7698 10.3347 25.6485 10.3647 25.524C10.3914 25.4191 10.4247 25.3142 10.448 25.2061C10.4747 25.0848 10.4914 24.9635 10.5047 24.8422C10.5181 24.7144 10.5247 24.5833 10.5147 24.4555C10.4914 24.2195 10.4447 23.9803 10.3447 23.7639C10.3347 23.7443 10.3214 23.7246 10.3113 23.7049C10.5514 23.5706 10.7914 23.4362 11.0282 23.292C11.3782 23.0822 11.7283 22.8692 12.0684 22.6463C12.3951 22.43 12.7218 22.2104 13.0452 21.9908C13.3286 21.8171 13.602 21.6336 13.8787 21.45C13.9554 21.4041 14.0354 21.3615 14.1121 21.3189C14.1088 21.3222 14.1054 21.3222 14.1021 21.3255C14.1221 21.3156 14.1388 21.3058 14.1588 21.296C14.1554 21.296 14.1521 21.2992 14.1488 21.2992C14.1688 21.2894 14.1888 21.2763 14.2121 21.2665C14.2088 21.2665 14.2088 21.2697 14.2054 21.2697C14.2788 21.2304 14.3488 21.1911 14.4221 21.1518C14.4221 21.1518 14.4188 21.1518 14.4188 21.155C14.7055 20.9977 14.9889 20.8306 15.2556 20.6437C15.5157 20.4569 15.7691 20.2603 16.0291 20.0735C16.0225 20.0767 16.0158 20.0833 16.0125 20.0866C16.0391 20.0669 16.0625 20.0505 16.0891 20.0308C16.1825 19.9653 16.2825 19.903 16.3759 19.8407C16.3959 19.867 16.4192 19.8899 16.4392 19.9161C16.6793 20.2472 16.8926 20.5946 17.146 20.9125C17.2527 21.0469 17.3627 21.1845 17.4961 21.296C17.6028 21.3845 17.7195 21.4533 17.8261 21.5385C17.8962 21.5942 17.9662 21.6532 18.0362 21.7057C18.0462 21.7122 18.0562 21.7188 18.0662 21.7253C18.0629 21.7778 18.0595 21.8302 18.0595 21.8826C18.0595 22.0793 18.0729 22.2792 18.0729 22.4759C18.0729 22.5676 18.0695 22.6594 18.0662 22.7512C18.0662 22.7709 18.0629 22.7905 18.0629 22.8135C18.0562 22.9216 18.0495 23.0265 18.0462 23.1347C18.0395 23.2232 18.0329 23.3084 18.0262 23.3969C18.0028 23.7574 17.9928 24.1179 17.9795 24.4784C17.9795 24.4817 17.9795 24.485 17.9795 24.4883C17.9362 24.7603 17.8962 25.0323 17.8695 25.3077C17.8495 25.4978 17.8495 25.6878 17.8295 25.8779C17.8128 26.0451 17.7995 26.2155 17.7828 26.3827C17.7661 26.5564 17.7561 26.7301 17.7328 26.9038C17.7328 26.9005 17.7328 26.9005 17.7328 26.8973C17.7128 27.0251 17.6961 27.1529 17.6795 27.2807C17.6728 27.3168 17.6694 27.3496 17.6628 27.3856C17.5361 27.4118 17.4127 27.4446 17.2927 27.4905C17.2027 27.5233 17.116 27.5593 17.0293 27.6019C16.8926 27.6445 16.7559 27.697 16.6259 27.7592C16.5059 27.8182 16.4059 27.9067 16.3025 27.9919C16.2125 28.0673 16.1258 28.146 16.0425 28.2246C15.8391 28.4147 15.6457 28.618 15.5024 28.8539C15.369 29.0735 15.2423 29.2964 15.1523 29.5389C15.1123 29.6504 15.0823 29.7716 15.0623 29.8864C15.0389 30.0142 15.0323 30.1486 15.0456 30.2764C15.0556 30.3976 15.0689 30.5189 15.0989 30.6369C15.129 30.7582 15.1623 30.8762 15.199 30.9942C15.2323 31.1023 15.269 31.2105 15.3157 31.3121C15.369 31.4235 15.4323 31.5284 15.4957 31.6333C15.619 31.8299 15.7724 32.0036 15.9358 32.1708C16.0858 32.3216 16.2492 32.4592 16.4292 32.5706C16.5792 32.6591 16.7293 32.7411 16.8926 32.8034C17.0293 32.8558 17.1694 32.8951 17.3094 32.9344C17.4394 32.9705 17.5761 32.9967 17.7128 33C17.7328 33 17.7528 33 17.7728 33C17.8895 33 18.0028 32.9934 18.1162 32.9803C18.3362 32.9541 18.5496 32.8853 18.7663 32.8296C18.8297 32.8132 18.8964 32.7968 18.9597 32.7739C19.0397 32.7476 19.1131 32.7116 19.1864 32.6722C19.3164 32.6001 19.4431 32.5149 19.5598 32.4264C19.6865 32.3314 19.7899 32.2036 19.8832 32.079C19.9599 31.9741 20.0332 31.866 20.1033 31.7545C20.1666 31.6529 20.2266 31.5513 20.28 31.4432C20.3233 31.3514 20.3633 31.2596 20.4 31.1679C20.4066 31.1515 20.4133 31.1351 20.42 31.1187C20.4167 31.122 20.4166 31.1253 20.4133 31.1285C20.4166 31.122 20.42 31.1121 20.4233 31.1056C20.4267 31.099 20.43 31.0892 20.4333 31.0827C20.4333 31.0859 20.43 31.0892 20.43 31.0925C20.44 31.0728 20.45 31.0499 20.4567 31.0302C20.4567 31.0335 20.4533 31.0368 20.4533 31.04C20.5333 30.8598 20.59 30.6697 20.64 30.4796C20.6634 30.3911 20.6834 30.3026 20.7 30.2141C20.72 30.1027 20.7234 29.9945 20.72 29.8831C20.7134 29.7126 20.7067 29.5389 20.6667 29.3718C20.6234 29.1915 20.5667 29.0014 20.4767 28.8375C20.4167 28.7228 20.3466 28.6147 20.2566 28.5196C20.1766 28.4344 20.0933 28.3557 20.0099 28.2771C19.9332 28.205 19.8565 28.1329 19.7699 28.0706C19.6865 28.0116 19.5965 27.9624 19.5065 27.9133C19.1597 27.7199 18.7997 27.5495 18.4163 27.4413C18.3096 27.4118 18.1996 27.3889 18.0929 27.3758C18.1095 27.3266 18.1229 27.2774 18.1395 27.225C18.1762 27.0972 18.2129 26.9694 18.2396 26.8383C18.2662 26.7104 18.2796 26.5793 18.2862 26.4515C18.2996 26.2417 18.3096 26.032 18.3396 25.8222C18.3396 25.8321 18.3362 25.8386 18.3362 25.8484C18.3963 25.4486 18.4396 25.0422 18.4696 24.639C18.4896 24.3703 18.4963 24.1015 18.5096 23.8328C18.5229 23.5607 18.553 23.292 18.5763 23.0232C18.5963 22.7938 18.6063 22.5676 18.583 22.3382C18.5663 22.1612 18.5263 21.9875 18.5029 21.8105C18.4996 21.7909 18.4996 21.7712 18.4963 21.7515C18.5063 21.7483 18.5196 21.745 18.5296 21.7384C18.5663 21.7188 18.5996 21.6925 18.633 21.6663C18.6796 21.6204 18.7197 21.568 18.763 21.5188C18.793 21.5025 18.8197 21.4861 18.8497 21.4697C18.9797 21.3943 19.1097 21.3124 19.2364 21.2271C19.4398 21.0895 19.6398 20.942 19.8299 20.788C19.9566 20.6831 20.0833 20.5749 20.2133 20.4733C20.3766 20.3422 20.5367 20.2111 20.6867 20.0636C20.9134 19.8473 21.1235 19.6212 21.3335 19.3884C21.5169 19.1852 21.7036 18.982 21.8869 18.7756C21.9103 18.7952 21.9303 18.8149 21.9536 18.8345C22.1703 19.0345 22.387 19.2377 22.6037 19.4376C22.7438 19.5687 22.8838 19.7031 23.0338 19.8244C23.1805 19.9456 23.3372 20.0571 23.5006 20.1554C23.6673 20.2537 23.8473 20.3291 24.024 20.4176C24.2007 20.5061 24.3741 20.5979 24.5441 20.6962C24.5408 20.6962 24.5375 20.6929 24.5375 20.6929C24.5508 20.7027 24.5641 20.7093 24.5775 20.7191C24.6441 20.7716 24.7075 20.824 24.7742 20.8797C24.9375 21.0141 25.0942 21.1518 25.2543 21.2861C25.4076 21.4172 25.5577 21.5516 25.7077 21.686C25.8477 21.8171 25.9944 21.9416 26.1411 22.0662C26.2945 22.1973 26.4478 22.3284 26.6012 22.4562C26.6612 22.5086 26.7212 22.5578 26.7812 22.6103C26.7345 22.6594 26.6845 22.7053 26.6379 22.7577C26.4778 22.9347 26.3345 23.1248 26.2278 23.3379C26.1244 23.5411 26.0477 23.7607 25.9777 23.977C25.9377 24.1015 25.9077 24.2261 25.891 24.3539C25.8744 24.4817 25.8744 24.6063 25.881 24.7341C25.8877 24.8554 25.9011 24.9766 25.9344 25.0946C25.9411 25.1143 25.9511 25.1372 25.9577 25.1569C25.9577 25.1634 25.9577 25.1667 25.9577 25.1733C25.9677 25.4125 26.0177 25.6583 26.1344 25.8714C26.1911 25.9763 26.2545 26.0746 26.3278 26.1696C26.3978 26.2581 26.4778 26.3401 26.5612 26.4155C26.7279 26.5695 26.9146 26.7039 27.1113 26.8186C27.2046 26.871 27.298 26.9202 27.398 26.9628C27.3913 26.9595 27.3813 26.9562 27.3747 26.953C27.4213 26.9726 27.468 26.9923 27.518 27.012C27.7347 27.0972 27.9581 27.1595 28.1815 27.2185C28.3082 27.2512 28.4349 27.2676 28.5616 27.2676C28.6983 27.2676 28.835 27.2479 28.965 27.2053C29.1884 27.1332 29.4084 27.0251 29.6118 26.9071C29.8185 26.7825 30.0085 26.6351 30.1852 26.4712C30.2619 26.3991 30.3352 26.327 30.4019 26.2483C30.4753 26.1598 30.5453 26.068 30.6086 25.973C30.7387 25.7796 30.8687 25.583 30.942 25.3601C30.982 25.2323 31.012 25.1012 31.0321 24.9668C31.0587 24.8914 31.0887 24.816 31.1087 24.7406C31.1821 24.4686 31.1787 24.1835 31.1454 23.9049C31.1321 23.7869 31.1121 23.6722 31.0921 23.5542C31.0687 23.4362 31.032 23.3215 30.9887 23.21C30.9187 23.0363 30.8287 22.8692 30.712 22.7184C30.6686 22.6627 30.622 22.6103 30.5753 22.5578C30.5253 22.4988 30.4753 22.4431 30.4253 22.3874C30.3019 22.2563 30.1652 22.1448 30.0052 22.0564C29.8718 21.981 29.7285 21.9187 29.5851 21.8564C29.4417 21.7974 29.2984 21.7384 29.1517 21.6958C29.145 21.6925 29.1417 21.6925 29.135 21.6925C29.125 21.6893 29.1117 21.686 29.1017 21.6827C29.035 21.6663 28.9683 21.6434 28.9016 21.6336C28.815 21.6204 28.7283 21.6204 28.6416 21.627C28.4282 21.6434 28.2148 21.6598 28.0015 21.7057C27.9048 21.7286 27.8048 21.7515 27.7147 21.7909C27.6247 21.8302 27.5414 21.8826 27.4614 21.9384C27.3447 22.017 27.248 22.1153 27.148 22.2137C27.138 22.2038 27.1246 22.194 27.1146 22.1809C27.0313 22.1022 26.9446 22.0269 26.8579 21.9482C26.6545 21.7712 26.4412 21.6073 26.2311 21.4402C26.2211 21.4336 26.2111 21.4238 26.2011 21.4172C26.0377 21.2894 25.8744 21.1616 25.7077 21.037C25.5443 20.9125 25.3743 20.7945 25.2076 20.6765C25.0442 20.5585 24.8809 20.4438 24.7142 20.3324C24.3708 20.0997 24.0407 19.8571 23.714 19.6048C23.694 19.5884 23.6706 19.572 23.6506 19.5556L23.6473 19.5523C23.6439 19.549 23.6406 19.5458 23.6373 19.5425C23.6373 19.5425 23.6373 19.5425 23.6406 19.5425C23.6173 19.5228 23.5939 19.5064 23.5706 19.4868C23.4106 19.3557 23.2505 19.2246 23.0872 19.0968C22.9205 18.9689 22.7504 18.8411 22.5771 18.7198C22.4437 18.6248 22.3104 18.5297 22.177 18.4347C22.2837 18.3101 22.3904 18.1889 22.4904 18.0611C22.4904 18.0578 22.4937 18.0578 22.4937 18.0545L22.4971 18.0512C22.5171 18.0283 22.5371 18.0021 22.5571 17.9791C22.6037 17.9234 22.6504 17.8644 22.6971 17.8087C22.6771 17.8316 22.6604 17.8546 22.6437 17.8742C22.8104 17.671 22.9738 17.4613 23.1405 17.2548C23.3372 17.009 23.5173 16.75 23.6706 16.478C23.8273 16.1961 23.9473 15.8881 24.044 15.5832C24.104 15.3866 24.144 15.1932 24.1707 14.9867C24.1874 14.836 24.2041 14.6885 24.2174 14.5377C24.2207 14.5115 24.2174 14.4886 24.2174 14.4623C24.3441 14.4099 24.4674 14.3575 24.5941 14.3017C24.6608 14.2722 24.7242 14.2427 24.7875 14.2132C24.7942 14.2132 24.7975 14.21 24.8042 14.21C24.8008 14.21 24.7942 14.2132 24.7908 14.2132C24.9409 14.1772 25.0976 14.151 25.2476 14.1084C25.4143 14.0625 25.5777 13.9936 25.741 13.9248C25.9011 13.856 26.0577 13.7773 26.2144 13.6987C26.2678 13.6724 26.3211 13.643 26.3745 13.6135C26.4212 13.5971 26.4645 13.5807 26.5112 13.561C26.5612 13.5413 26.6145 13.5184 26.6612 13.4922C26.7112 13.561 26.7546 13.6364 26.8146 13.6987C26.9846 13.8888 27.1813 14.0559 27.4013 14.1903C27.528 14.2657 27.6614 14.3378 27.8014 14.3869C27.9181 14.4296 28.0381 14.4656 28.1582 14.4984C28.1915 14.5082 28.2315 14.5082 28.2648 14.5148C28.4515 14.5869 28.6416 14.6557 28.8383 14.695C28.9483 14.718 29.0683 14.7311 29.1817 14.7311C29.2117 14.7311 29.245 14.7311 29.275 14.7278C29.4551 14.7147 29.6218 14.659 29.7885 14.5902C29.9385 14.5279 30.0852 14.4558 30.2219 14.3673C30.2919 14.3247 30.3586 14.2755 30.4253 14.2264C30.4319 14.2231 30.4386 14.2231 30.4453 14.2198C30.5653 14.1542 30.692 14.092 30.8087 14.0231C30.9354 13.9478 31.0554 13.8494 31.1554 13.7446C31.2454 13.6495 31.3321 13.5545 31.4055 13.4463C31.4821 13.3381 31.5522 13.2267 31.6222 13.112C31.7555 12.8924 31.8289 12.6466 31.9056 12.404C31.9556 12.2467 31.9856 12.0894 31.9822 11.9223C31.9622 11.7715 31.9422 11.6371 31.9089 11.506ZM7.60749 9.89674C7.60415 9.89674 7.60415 9.89347 7.60082 9.89347C7.60415 9.89347 7.60749 9.89674 7.60749 9.89674ZM6.95403 9.68698C7.04738 9.7132 7.14073 9.7427 7.23408 9.76892H7.23075C7.35411 9.80169 7.47746 9.8443 7.59749 9.89347C7.74418 9.95574 7.89088 10.0246 8.0309 10.1065C8.08091 10.1393 8.13092 10.1721 8.1776 10.2081C8.23094 10.2507 8.28095 10.2999 8.32763 10.3458C8.3743 10.3916 8.42098 10.4343 8.46766 10.4801C8.53434 10.5522 8.59435 10.6276 8.65436 10.7063C8.70104 10.7718 8.74104 10.8374 8.78105 10.9062C8.8644 11.0603 8.93441 11.2209 9.00109 11.3847C9.03443 11.4732 9.06777 11.5617 9.09111 11.6535C9.09111 11.6797 9.09444 11.7027 9.09444 11.7289C9.09444 11.7944 9.08778 11.86 9.08111 11.9288C9.07777 11.9583 9.07111 11.9878 9.06444 12.014C9.02443 12.1386 8.98109 12.2598 8.92775 12.3811C8.88107 12.4827 8.82773 12.5843 8.77105 12.6794C8.72437 12.7547 8.67103 12.8268 8.61769 12.8957C8.56434 12.9579 8.50433 13.0169 8.44765 13.0727C8.36097 13.1546 8.27762 13.2365 8.18427 13.3086C8.1576 13.3283 8.12759 13.3447 8.10092 13.3611C7.92088 13.4561 7.73085 13.5381 7.54081 13.6135C7.44746 13.6462 7.35744 13.679 7.26075 13.7052C7.28076 13.7019 7.29743 13.6954 7.31743 13.6921C7.30076 13.6954 7.28076 13.7019 7.26409 13.7052C7.20074 13.7183 7.1374 13.7314 7.07405 13.738C7.02738 13.7413 6.9807 13.7478 6.93402 13.7478C6.90735 13.7478 6.88068 13.7446 6.85734 13.7413C6.72732 13.7216 6.60063 13.6888 6.47393 13.6593C6.36058 13.6331 6.25056 13.6036 6.14054 13.5741C5.97717 13.5282 5.81381 13.4824 5.65377 13.4201C5.59376 13.3939 5.53375 13.3644 5.47707 13.3316C5.47374 13.3316 5.47374 13.3283 5.47041 13.3283C5.43373 13.2955 5.39372 13.266 5.36038 13.23C5.2737 13.1382 5.19702 13.0464 5.12034 12.9448C5.07366 12.8793 5.02699 12.8137 4.98698 12.7416C4.97031 12.7121 4.95697 12.6794 4.94364 12.6499C4.9203 12.5876 4.90029 12.522 4.88029 12.4598C4.86696 12.4008 4.85695 12.3418 4.84695 12.2828C4.83695 12.1812 4.83028 12.0796 4.82695 11.9747C4.83362 12.0239 4.84028 12.0697 4.85362 12.1189C4.87696 12.2238 4.92363 12.3221 4.97364 12.4139C4.97364 12.4172 4.98031 12.4139 4.97698 12.4139C4.97031 12.3975 4.96364 12.3811 4.95697 12.3647C4.93697 12.3156 4.9203 12.2664 4.90696 12.2172C4.89696 12.1713 4.88696 12.1255 4.88362 12.0796C4.88362 12.0796 4.88362 12.0796 4.88362 12.0829C4.88029 12.0402 4.87696 12.0009 4.87696 11.9583C4.88029 11.8338 4.89363 11.7059 4.90363 11.5814C4.91363 11.4634 4.9203 11.3454 4.93697 11.2307C4.94364 11.1815 4.95364 11.1324 4.96697 11.0832C5.00031 10.9685 5.04366 10.8538 5.09033 10.7423C5.13367 10.6473 5.18368 10.5555 5.23703 10.467C5.27037 10.4146 5.30704 10.3654 5.34371 10.3163C5.37705 10.2737 5.41706 10.2343 5.45374 10.1983C5.50041 10.1557 5.55042 10.1131 5.60377 10.0737C5.65711 10.0377 5.71045 10.0049 5.76713 9.9754C5.90049 9.9033 6.03718 9.83447 6.17721 9.77875H6.17388C6.17721 9.77875 6.17721 9.77547 6.18054 9.77547C6.18721 9.7722 6.19721 9.76892 6.20388 9.76564C6.20055 9.76892 6.19721 9.76892 6.19055 9.7722C6.2839 9.73942 6.37725 9.70992 6.47393 9.6837C6.51394 9.67387 6.55728 9.66732 6.59729 9.66076C6.63397 9.65748 6.67064 9.65421 6.70731 9.65421C6.76399 9.65421 6.81733 9.66076 6.87401 9.66732C6.90068 9.67387 6.92736 9.68043 6.95403 9.68698ZM6.55395 27.0775C6.54728 27.0742 6.54061 27.071 6.53395 27.0677C6.53728 27.0677 6.54061 27.071 6.54395 27.071C6.53728 27.0677 6.53395 27.0677 6.52728 27.0644C6.53395 27.0677 6.54061 27.071 6.55062 27.0742C6.55062 27.0775 6.55395 27.0775 6.55395 27.0775ZM9.10778 23.4919C9.10111 23.4886 9.09778 23.4854 9.09111 23.4788C9.08778 23.4755 9.08444 23.4722 9.08111 23.469C9.08444 23.4722 9.08778 23.4755 9.09111 23.4755C9.08444 23.4722 9.08111 23.4657 9.07444 23.4624C9.08444 23.4755 9.09444 23.4821 9.10778 23.4919ZM9.09111 23.4788C9.14112 23.5181 9.1878 23.5607 9.23114 23.6033C9.28782 23.6656 9.34449 23.7344 9.3945 23.8C9.45451 23.8819 9.51119 23.9671 9.5612 24.0556C9.58454 24.1015 9.60788 24.1507 9.62788 24.1999C9.64122 24.2293 9.65122 24.2621 9.65789 24.2916C9.66456 24.3211 9.66789 24.3473 9.67122 24.3768C9.67789 24.4621 9.68123 24.544 9.68456 24.6292C9.68456 24.7079 9.67789 24.7865 9.66789 24.8652C9.66789 24.8652 9.66789 24.8652 9.66789 24.8619C9.65455 24.9537 9.64122 25.0422 9.62788 25.1339C9.63122 25.1176 9.63122 25.1012 9.63455 25.0815C9.61455 25.2192 9.58454 25.3568 9.55787 25.4945C9.53786 25.5928 9.51786 25.6878 9.49452 25.7862C9.46118 25.8517 9.43118 25.9206 9.39117 25.9861C9.30449 26.1238 9.2078 26.2549 9.10445 26.3827C9.02777 26.4777 8.94442 26.5695 8.85773 26.6547C8.79439 26.7137 8.72771 26.7662 8.65769 26.8186C8.541 26.9005 8.42098 26.9792 8.29429 27.0513C8.29762 27.0513 8.29762 27.048 8.30096 27.048C8.29762 27.0513 8.29429 27.0513 8.28762 27.0546C8.28095 27.0579 8.27429 27.0611 8.26762 27.0644C8.27095 27.0644 8.27095 27.0611 8.27428 27.0611C8.19094 27.107 8.10425 27.1463 8.01423 27.1824C7.98089 27.1955 7.94422 27.2053 7.90755 27.2152C7.8142 27.2381 7.72084 27.2545 7.62749 27.2676C7.52747 27.2774 7.42745 27.2807 7.33077 27.284C7.28076 27.284 7.23408 27.2807 7.18407 27.2742C7.15407 27.2676 7.12406 27.2643 7.09406 27.2545C6.91402 27.2021 6.72732 27.1496 6.55395 27.0808C6.56062 27.0841 6.56729 27.0873 6.57395 27.0873C6.56729 27.0841 6.56062 27.0808 6.55062 27.0775C6.55062 27.0775 6.55062 27.0775 6.54728 27.0775C6.47393 27.0447 6.40059 27.0087 6.32724 26.9694C6.30057 26.953 6.2739 26.9333 6.24722 26.9136C6.18388 26.8579 6.12053 26.7989 6.06052 26.7399C6.00718 26.6842 5.95383 26.6252 5.90716 26.5629C5.87048 26.5105 5.83381 26.4548 5.8038 26.3991C5.72712 26.2647 5.65711 26.127 5.5971 25.9861C5.57709 25.9304 5.55709 25.8714 5.54042 25.8157C5.51375 25.6977 5.49374 25.5797 5.47707 25.4584C5.46707 25.3535 5.4604 25.2519 5.45707 25.1471C5.4604 25.0389 5.46707 24.9307 5.48041 24.8226C5.49041 24.7636 5.50041 24.7046 5.51708 24.6456C5.53709 24.58 5.56042 24.521 5.5871 24.4588C5.63044 24.367 5.67711 24.2785 5.72712 24.19C5.77713 24.1146 5.83048 24.0425 5.88715 23.9737C5.9505 23.8983 6.01384 23.8262 6.08386 23.7574C6.15387 23.6951 6.22722 23.6328 6.3039 23.5771C6.37058 23.5312 6.44059 23.4886 6.51394 23.4493C6.72398 23.3379 6.94736 23.2395 7.17074 23.151C7.27742 23.1117 7.38745 23.0757 7.49747 23.0396C7.56748 23.0363 7.63749 23.0298 7.70751 23.0298C7.74418 23.0331 7.78086 23.0363 7.81753 23.0396C7.95089 23.0593 8.08091 23.0888 8.21427 23.1215C8.21094 23.1215 8.21094 23.1215 8.20761 23.1183C8.21427 23.1183 8.22094 23.1215 8.22428 23.1215C8.22761 23.1215 8.23428 23.1248 8.23761 23.1248H8.24095C8.24095 23.1248 8.24095 23.1248 8.24428 23.1248C8.45765 23.1871 8.66436 23.269 8.86773 23.3542C8.91774 23.3772 8.97109 23.4001 9.0211 23.4264C9.04444 23.446 9.06777 23.4624 9.09111 23.4788ZM29.4351 22.5578C29.4451 22.5611 29.4551 22.5676 29.4651 22.5709C29.4751 22.5742 29.4851 22.5775 29.4918 22.584C29.4884 22.584 29.4851 22.5808 29.4817 22.5808C29.4817 22.5808 29.4784 22.5808 29.4784 22.5775C29.4784 22.5775 29.4817 22.5775 29.4817 22.5808C29.5551 22.6135 29.6284 22.643 29.6985 22.6824C29.7451 22.7119 29.7885 22.7414 29.8352 22.7774C29.9218 22.8462 30.0019 22.9216 30.0785 23.0003C30.0885 23.0134 30.1019 23.0232 30.1119 23.0363L30.1085 23.0331C30.1119 23.0363 30.1152 23.0396 30.1152 23.0396C30.1219 23.0462 30.1319 23.056 30.1385 23.0626C30.1352 23.0593 30.1319 23.056 30.1319 23.0527C30.1519 23.0724 30.1685 23.092 30.1886 23.1117C30.2252 23.151 30.2619 23.1904 30.2952 23.233C30.3086 23.2526 30.3219 23.2723 30.3352 23.2953C30.3586 23.3379 30.3786 23.3837 30.3986 23.4296C30.4253 23.4952 30.4486 23.564 30.4686 23.6328C30.4853 23.7148 30.4986 23.8 30.5119 23.8819C30.5253 24.0032 30.532 24.1245 30.5353 24.2457C30.532 24.3113 30.5286 24.3768 30.5186 24.4424C30.5086 24.4916 30.4986 24.5407 30.4853 24.5899C30.4519 24.7046 30.4086 24.816 30.3653 24.9242C30.3252 25.016 30.2786 25.1044 30.2286 25.1929C30.1886 25.2585 30.1452 25.3208 30.0985 25.3798C30.0052 25.4912 29.9052 25.5994 29.8018 25.701C29.7285 25.7698 29.6518 25.8321 29.5684 25.8911C29.5718 25.8878 29.5718 25.8878 29.5751 25.8845C29.5618 25.8943 29.5518 25.9009 29.5384 25.9107C29.5451 25.9074 29.5484 25.9042 29.5551 25.8976C29.4451 25.973 29.3317 26.0484 29.215 26.1172C29.155 26.1467 29.095 26.1729 29.0317 26.1991C29.005 26.209 28.9783 26.2155 28.9516 26.2254C28.9083 26.2352 28.865 26.2417 28.8216 26.2483C28.7416 26.2581 28.6649 26.2614 28.5849 26.2647C28.5916 26.2647 28.5982 26.2647 28.6049 26.2647C28.5816 26.2647 28.5582 26.2647 28.5316 26.2647C28.5482 26.2647 28.5616 26.2647 28.5782 26.2647C28.4982 26.2614 28.4182 26.2581 28.3382 26.2516C28.3315 26.2516 28.3215 26.2483 28.3149 26.2483C28.2782 26.2417 28.2415 26.2352 28.2048 26.2254C28.1115 26.1991 28.0181 26.1696 27.9281 26.1336C27.8581 26.1008 27.7881 26.068 27.7181 26.0287C27.6347 25.9763 27.5547 25.914 27.4714 25.855C27.378 25.7862 27.2847 25.7173 27.1946 25.6485C27.1746 25.6321 27.1513 25.6157 27.1313 25.5994C27.1446 25.6092 27.158 25.619 27.168 25.6289C27.0746 25.5502 26.9879 25.4683 26.9012 25.383C26.8579 25.3372 26.8179 25.288 26.7779 25.2388C26.7512 25.2028 26.7279 25.1634 26.7045 25.1274C26.6979 25.1143 26.6912 25.1012 26.6879 25.0881C26.6845 25.0389 26.6812 24.9865 26.6812 24.9373C26.6845 24.8422 26.6912 24.7505 26.7045 24.6554C26.7312 24.4916 26.7712 24.331 26.8179 24.1704C26.8646 24.0065 26.9246 23.8492 26.9913 23.6918C27.0913 23.4722 27.2013 23.2592 27.3247 23.0527C27.3947 22.9413 27.4647 22.8331 27.5447 22.7315C27.5747 22.6955 27.6081 22.6627 27.6381 22.6332C27.6714 22.6037 27.7047 22.5775 27.7381 22.5513C27.7948 22.5119 27.8514 22.4792 27.9114 22.4431C27.9448 22.43 27.9781 22.4202 28.0148 22.4103C28.0681 22.3972 28.1248 22.3874 28.1782 22.3808C28.3349 22.3644 28.4916 22.3579 28.6483 22.3579C28.7083 22.3579 28.7649 22.3612 28.825 22.3677C28.9183 22.3841 29.0117 22.4103 29.1017 22.4365C29.2184 22.4759 29.3284 22.5152 29.4351 22.5578ZM14.5655 13.9609C14.4588 14.092 14.3555 14.2362 14.2988 14.3968C14.2588 14.5148 14.3188 14.6065 14.3955 14.6918C14.4955 14.8065 14.6022 14.9179 14.6922 15.0392C14.6922 15.0425 14.6955 15.0425 14.6955 15.0457C14.8622 15.2719 15.0056 15.5111 15.1423 15.757C15.149 15.7668 15.1523 15.7766 15.159 15.7865C15.3023 16.0487 15.4423 16.3109 15.5557 16.5862C15.6391 16.7992 15.7124 17.0155 15.8058 17.222C15.8658 17.3597 15.9324 17.4973 16.0025 17.635C15.8258 17.4318 15.6491 17.2286 15.4724 17.0254C15.2723 16.7959 15.0856 16.5567 14.8856 16.324C14.7922 16.2158 14.6989 16.1109 14.6055 16.0028C14.5122 15.8946 14.4255 15.7799 14.3388 15.6652C14.2855 15.5931 14.2354 15.5177 14.1821 15.4423C14.1654 15.3571 14.1454 15.2719 14.1321 15.1867C14.1088 14.9835 14.1088 14.777 14.1088 14.5738C14.1121 14.4689 14.1188 14.364 14.1321 14.2591C14.1454 14.1608 14.1688 14.0625 14.1888 13.9674C14.2254 13.9347 14.2655 13.9019 14.3055 13.8724C14.3455 13.8462 14.3855 13.8199 14.4288 13.797C14.4622 13.7806 14.4955 13.7642 14.5322 13.7478C14.5888 13.7282 14.6422 13.7085 14.7022 13.6921C14.7389 13.6823 14.7789 13.679 14.8156 13.6725C14.8256 13.6725 14.8356 13.6724 14.8456 13.6692C14.8256 13.6856 14.8089 13.7052 14.7889 13.7216C14.7089 13.797 14.6355 13.8789 14.5655 13.9609ZM18.1629 20.493C18.1029 20.3881 18.0362 20.2898 17.9728 20.1882C17.9028 20.0702 17.8295 19.9522 17.7561 19.8342C17.5961 19.5785 17.4294 19.3295 17.246 19.0869C17.0627 18.8444 16.8626 18.6084 16.6626 18.379C16.6292 18.3396 16.5959 18.3036 16.5626 18.2643C16.5359 18.2053 16.5059 18.1495 16.4792 18.0938C16.2925 17.7333 16.1025 17.376 15.9491 16.9991C15.9491 17.0024 15.9524 17.009 15.9524 17.0122C15.8791 16.8221 15.8058 16.6321 15.7224 16.4452C15.6291 16.242 15.5224 16.0454 15.4057 15.852C15.2923 15.6619 15.179 15.4718 15.0489 15.2948C14.9256 15.1277 14.7922 14.9736 14.6455 14.8229C14.5655 14.7409 14.4855 14.6557 14.4155 14.5672C14.4088 14.5574 14.3988 14.5443 14.3921 14.5312V14.5344C14.3888 14.5279 14.3855 14.5213 14.3821 14.5148C14.3821 14.5115 14.3821 14.5082 14.3788 14.5049C14.3788 14.4984 14.3755 14.4951 14.3755 14.4886C14.3755 14.4853 14.3755 14.4787 14.3755 14.4754C14.3755 14.4689 14.3755 14.4623 14.3755 14.4558C14.3788 14.4459 14.3788 14.4361 14.3821 14.4263C14.3888 14.4099 14.3921 14.3968 14.3988 14.3804C14.3988 14.3804 14.3988 14.3837 14.3955 14.3837C14.4188 14.3312 14.4455 14.2821 14.4755 14.2329C14.5155 14.1674 14.5588 14.1084 14.6055 14.0461C14.6855 13.9478 14.7689 13.856 14.8589 13.7675C14.8789 13.7478 14.8989 13.7314 14.9222 13.7151C14.9322 13.7085 14.9456 13.7019 14.9556 13.6954C14.9689 13.6888 14.9823 13.6823 14.9956 13.6757C15.0023 13.6724 15.0056 13.6724 15.0123 13.6692C15.0389 13.6757 15.0656 13.679 15.0923 13.6856C15.1756 13.7118 15.2556 13.738 15.3357 13.7708C15.3323 13.7708 15.3257 13.7675 15.3223 13.7642C15.3323 13.7675 15.3423 13.7741 15.3523 13.7773C15.349 13.7773 15.349 13.7773 15.3457 13.7741C15.4257 13.8101 15.5057 13.8494 15.5824 13.892C15.8691 14.0658 16.1358 14.269 16.3992 14.4754C16.3959 14.4722 16.3925 14.4722 16.3892 14.4689C16.6392 14.6721 16.8793 14.8819 17.1093 15.108C17.1127 15.1146 17.1193 15.1178 17.1227 15.1211C17.1193 15.1178 17.1127 15.1113 17.1093 15.108C17.316 15.3243 17.5061 15.557 17.6861 15.7963C17.7395 15.8717 17.7961 15.947 17.8495 16.0192C17.8995 16.088 17.9428 16.1601 17.9995 16.2191C18.0195 16.2387 18.0362 16.2519 18.0595 16.265C18.0795 16.2879 18.0962 16.3109 18.1129 16.3371C18.1129 16.3371 18.1129 16.3371 18.1129 16.3338C18.1129 16.3371 18.1162 16.3371 18.1162 16.3404C18.1195 16.3436 18.1229 16.3469 18.1262 16.3502C18.1262 16.3502 18.1262 16.3469 18.1229 16.3469C18.1462 16.3797 18.1695 16.4125 18.1929 16.4452C18.2196 16.4813 18.2429 16.5173 18.2762 16.5468C18.2929 16.5632 18.3129 16.5763 18.3296 16.5862C18.3796 16.6386 18.4396 16.6812 18.5129 16.6943C18.5596 16.7009 18.6063 16.7042 18.653 16.7009C18.7263 16.6976 18.7997 16.6812 18.8697 16.6583C19.0364 16.6026 19.1864 16.5042 19.3298 16.4026C19.4531 16.3109 19.5598 16.2027 19.6732 16.0978C19.8132 15.9634 19.9432 15.8192 20.0732 15.675C20.35 15.3702 20.62 15.0588 20.9167 14.7737C21.0601 14.6426 21.2101 14.5213 21.3668 14.4033C21.5269 14.2919 21.6902 14.1903 21.8603 14.0953C21.9903 14.0264 22.1236 13.9674 22.2637 13.9117C22.3704 13.8724 22.4771 13.8363 22.5837 13.8101C22.6571 13.7937 22.7304 13.7806 22.8071 13.7708C22.8571 13.7642 22.9105 13.7609 22.9638 13.7609C22.9972 13.7609 23.0305 13.7642 23.0638 13.7675C23.0838 13.7708 23.1072 13.7773 23.1272 13.7806C23.1505 13.7872 23.1772 13.797 23.2005 13.8068C23.2139 13.8134 23.2272 13.8199 23.2405 13.8265C23.2439 13.833 23.2472 13.8396 23.2472 13.8494C23.2505 13.8691 23.2539 13.892 23.2572 13.9117C23.2639 13.9707 23.2639 14.0297 23.2672 14.0887C23.2472 14.1936 23.2239 14.2952 23.1939 14.3968C23.1438 14.5672 23.0872 14.7376 23.0172 14.9015C22.9271 15.1047 22.8238 15.3014 22.7104 15.4915C22.457 15.8979 22.1603 16.2748 21.8836 16.6648C21.6202 17.0352 21.3468 17.3957 21.0601 17.7497C20.9834 17.8415 20.9034 17.93 20.8267 18.0184C20.7234 18.1397 20.62 18.2643 20.52 18.3888C20.5367 18.3691 20.5533 18.3462 20.57 18.3233C20.5233 18.379 20.4767 18.438 20.43 18.4937L20.4333 18.4904C20.3266 18.6215 20.2166 18.7461 20.1033 18.8739C19.9932 18.9984 19.8865 19.123 19.7732 19.241C19.6932 19.3196 19.6132 19.4016 19.5365 19.4835C19.4698 19.5523 19.4098 19.6277 19.3498 19.7031C19.1631 19.926 18.9664 20.1456 18.753 20.3488C18.6096 20.4799 18.4663 20.611 18.3262 20.7453C18.3162 20.7552 18.3062 20.765 18.2962 20.7748C18.2696 20.6863 18.2196 20.588 18.1629 20.493ZM17.4994 7.52382C17.4327 7.48121 17.3694 7.43532 17.306 7.38944C17.236 7.33044 17.166 7.27145 17.1027 7.2059C16.9626 7.06169 16.8326 6.91092 16.7126 6.75032C16.6392 6.64872 16.5726 6.54056 16.5092 6.4324C16.4826 6.38324 16.4592 6.33408 16.4392 6.28164C16.4192 6.23247 16.4025 6.18331 16.3892 6.13087C16.3759 6.07515 16.3659 6.01943 16.3592 5.96372C16.3492 5.86211 16.3459 5.75723 16.3459 5.65563C16.3492 5.59336 16.3525 5.52781 16.3592 5.46553C16.3825 5.31477 16.4125 5.16728 16.4559 5.01979C16.4926 4.9018 16.5326 4.78381 16.5826 4.66909C16.6192 4.58716 16.6593 4.50522 16.7026 4.42656C16.7326 4.38067 16.7659 4.33479 16.8026 4.2889C16.846 4.23974 16.8893 4.19058 16.936 4.14469C16.9927 4.09225 17.056 4.04636 17.116 3.9972C17.2394 3.91199 17.3661 3.83988 17.4961 3.76778C17.5361 3.74483 17.5761 3.72189 17.6161 3.69567C17.7695 3.66289 17.9262 3.63667 18.0862 3.61701C18.1695 3.60718 18.2529 3.60062 18.3362 3.60062C18.3896 3.60062 18.4396 3.6039 18.4929 3.61045C18.5996 3.62684 18.6996 3.64978 18.803 3.67928C18.7997 3.67928 18.7963 3.676 18.793 3.676C18.7997 3.676 18.8063 3.67928 18.8097 3.67928C18.8097 3.67928 18.8097 3.67928 18.813 3.67928C18.8563 3.68911 18.8964 3.70223 18.9397 3.71534C18.933 3.71206 18.9264 3.71206 18.9197 3.70878C19.0664 3.74811 19.2131 3.79072 19.3531 3.84644C19.4698 3.89888 19.5832 3.95787 19.6932 4.02014C19.7565 4.06275 19.8165 4.10864 19.8799 4.15452C19.8732 4.14797 19.8632 4.14141 19.8565 4.13486C19.8765 4.15125 19.8999 4.16763 19.9199 4.18402C19.9066 4.17419 19.8932 4.16436 19.8799 4.15452C19.9099 4.18074 19.9399 4.20696 19.9699 4.23646C20.0132 4.28235 20.0499 4.33151 20.0866 4.38067C20.1066 4.40689 20.1233 4.43311 20.1399 4.46261C20.1766 4.53472 20.2133 4.60682 20.2433 4.6822C20.2533 4.70515 20.26 4.72809 20.2666 4.75431C20.28 4.81986 20.2933 4.88213 20.3 4.94768C20.3133 5.07878 20.3266 5.20661 20.3266 5.33771C20.32 5.54419 20.2933 5.74412 20.2633 5.94733C20.2333 6.14726 20.1999 6.34391 20.1466 6.54056C20.1233 6.60939 20.1033 6.67822 20.0766 6.74704C20.0599 6.7831 20.0432 6.81915 20.0232 6.85192C20.0032 6.8847 19.9799 6.9142 19.9566 6.94697C19.9232 6.98303 19.8899 7.01908 19.8565 7.05513C19.8099 7.09774 19.7599 7.13707 19.7098 7.17312C19.6398 7.22228 19.5665 7.26817 19.4898 7.31078C19.4931 7.3075 19.4965 7.3075 19.4998 7.3075C19.4965 7.31078 19.4898 7.31405 19.4865 7.31405C19.4798 7.31733 19.4731 7.32061 19.4665 7.32389C19.4698 7.32061 19.4731 7.32061 19.4765 7.31733C19.3965 7.35994 19.3164 7.40583 19.2331 7.44516C19.1664 7.47465 19.0931 7.50415 19.023 7.53037C19.0264 7.53037 19.0297 7.52709 19.033 7.52709C18.8497 7.59592 18.663 7.66475 18.4729 7.71719C18.4296 7.72702 18.3829 7.73686 18.3396 7.74341C18.3096 7.74669 18.2796 7.74669 18.2496 7.74669C18.2162 7.74669 18.1862 7.74341 18.1529 7.74013C18.1162 7.73358 18.0795 7.72374 18.0395 7.71391C17.8895 7.6713 17.7361 7.62542 17.5928 7.5697C17.5561 7.55331 17.5261 7.53693 17.4994 7.52382ZM19.1864 28.5098C19.2664 28.5721 19.3398 28.6409 19.4098 28.713C19.4831 28.7917 19.5531 28.8736 19.6198 28.9588C19.6598 29.0145 19.6965 29.0735 19.7332 29.1325C19.7599 29.1817 19.7832 29.2309 19.8065 29.28C19.8532 29.4046 19.8965 29.5291 19.9299 29.6569C19.9399 29.693 19.9466 29.729 19.9499 29.7684C19.9566 29.8306 19.9599 29.8929 19.9632 29.9552C19.9632 29.988 19.9599 30.0175 19.9566 30.0502C19.9332 30.1748 19.9032 30.296 19.8699 30.414C19.8099 30.6205 19.7399 30.8204 19.6565 31.0171C19.6065 31.1285 19.5498 31.2367 19.4865 31.3449C19.4598 31.3875 19.4265 31.4268 19.3998 31.4694C19.2898 31.5481 19.1731 31.6169 19.0564 31.6824C18.8897 31.7709 18.7163 31.8561 18.5396 31.925C18.4996 31.9381 18.4629 31.9512 18.4229 31.9643C18.3829 31.9741 18.3429 31.9807 18.2996 31.9872C18.2796 31.9905 18.2596 31.9905 18.2429 31.9905C18.2362 31.9905 18.2296 31.9905 18.2196 31.9905C18.2162 31.9905 18.2129 31.9872 18.2062 31.9872C18.1029 31.9545 17.9962 31.9119 17.8962 31.8725C17.7661 31.8201 17.6328 31.7709 17.5027 31.7185C17.3827 31.666 17.266 31.6071 17.1527 31.5448C17.1427 31.5382 17.1327 31.5349 17.1227 31.5284C17.1327 31.5317 17.1393 31.5382 17.1493 31.5448C17.0993 31.512 17.0493 31.4792 17.006 31.4432C16.9193 31.3711 16.836 31.2924 16.7559 31.2105C16.6893 31.1384 16.6259 31.0663 16.5659 30.9876C16.5059 30.9024 16.4459 30.8139 16.3925 30.7254C16.3659 30.6762 16.3425 30.6271 16.3192 30.5779C16.3025 30.532 16.2892 30.4894 16.2758 30.4435C16.2558 30.3616 16.2392 30.2797 16.2292 30.1944C16.2225 30.1092 16.2158 30.024 16.2158 29.9355C16.2192 29.847 16.2258 29.7618 16.2358 29.6733C16.2492 29.5881 16.2658 29.5062 16.2892 29.4209C16.3125 29.3456 16.3392 29.2669 16.3692 29.1948C16.4059 29.1161 16.4459 29.0375 16.4892 28.9621C16.4826 28.9752 16.4725 28.9883 16.4659 29.0014C16.4759 28.985 16.4859 28.9654 16.4992 28.949C16.5792 28.8277 16.6659 28.7097 16.7559 28.595C16.7526 28.5983 16.7526 28.6016 16.7493 28.6048C16.7526 28.6016 16.7559 28.5983 16.7559 28.595C16.8426 28.4934 16.9293 28.3918 17.026 28.3C17.0627 28.2673 17.0993 28.2345 17.1393 28.2017C17.186 28.1689 17.236 28.1394 17.286 28.1099C17.3527 28.0772 17.4194 28.0477 17.4894 28.0182C17.5728 27.9887 17.6561 27.9624 17.7428 27.9362C17.8395 27.9133 17.9328 27.8969 18.0329 27.8838C18.0329 27.8838 18.0329 27.8838 18.0362 27.8838C18.1429 27.9133 18.2496 27.9461 18.3529 27.9854C18.4263 28.0182 18.4929 28.0575 18.563 28.0968C18.6763 28.1657 18.793 28.2312 18.903 28.3099C18.9964 28.3787 19.0931 28.441 19.1864 28.5098ZM28.0115 9.86397C28.0715 9.83119 28.1348 9.80169 28.1982 9.77547C28.2615 9.75253 28.3282 9.73287 28.3949 9.71648C28.4249 9.70992 28.4582 9.70337 28.4882 9.69681C28.5149 9.69681 28.5416 9.69354 28.5682 9.69354C28.6416 9.69354 28.7149 9.70009 28.7883 9.70992C28.7816 9.70992 28.7716 9.70665 28.7649 9.70665C28.7716 9.70665 28.7749 9.70665 28.7816 9.70992C28.885 9.72631 28.9917 9.73942 29.0983 9.74925C29.1317 9.76236 29.1684 9.7722 29.205 9.78858C29.2084 9.79186 29.215 9.79186 29.2217 9.79514C29.2217 9.79514 29.2217 9.79514 29.2184 9.79514C29.3817 9.86397 29.5318 9.95574 29.6885 10.0344C29.9352 10.1589 30.1886 10.2737 30.4253 10.4113C30.4519 10.4277 30.4786 10.4474 30.5053 10.467C30.5553 10.5195 30.6053 10.5752 30.6486 10.6342C30.6987 10.703 30.7453 10.7751 30.7887 10.8472C30.8287 10.9292 30.8654 11.0111 30.8987 11.093C30.9354 11.1914 30.9654 11.2897 30.992 11.3913C31.0154 11.4831 31.0321 11.5748 31.0487 11.6633C31.0487 11.6699 31.0454 11.6764 31.0454 11.6863C31.0454 11.6797 31.0487 11.6732 31.0487 11.6666C31.0287 11.7944 31.002 11.9223 30.9687 12.0468C30.9287 12.1779 30.882 12.3057 30.8287 12.4335C30.7987 12.4958 30.7687 12.5581 30.7353 12.6171C30.6987 12.6761 30.6586 12.7318 30.6153 12.7875C30.5653 12.8465 30.5119 12.9022 30.4553 12.9579C30.3619 13.0464 30.2586 13.1251 30.1552 13.2038C30.0452 13.2791 29.9352 13.3513 29.8218 13.4201C29.6918 13.4987 29.5618 13.5774 29.4317 13.6528C29.3817 13.679 29.3284 13.7052 29.275 13.7249C29.2517 13.7314 29.2284 13.7413 29.205 13.7478C29.1917 13.7511 29.1784 13.7511 29.165 13.7544C29.1383 13.7577 29.1117 13.7577 29.085 13.7577C29.0483 13.7544 29.0083 13.7544 28.9716 13.7478C28.895 13.7347 28.8183 13.7183 28.7449 13.6987C28.5782 13.6495 28.4149 13.5938 28.2515 13.5282C28.0581 13.443 27.8714 13.348 27.6881 13.2431C27.6147 13.1972 27.5447 13.1513 27.4747 13.1022C27.4213 13.0563 27.368 13.0104 27.3147 12.9612C27.2913 12.935 27.268 12.9088 27.248 12.8826C27.2146 12.8334 27.1813 12.781 27.1513 12.7285C27.128 12.6859 27.108 12.6433 27.0913 12.5974C27.0746 12.5515 27.0613 12.5089 27.0479 12.463C27.0346 12.404 27.0246 12.3451 27.0146 12.2861C27.0113 12.2303 27.0079 12.1746 27.0046 12.1222C27.0079 12.037 27.0146 11.9517 27.0246 11.8665C27.0679 11.5912 27.1346 11.3192 27.208 11.0504C27.238 10.9488 27.268 10.8505 27.3113 10.7522C27.358 10.6539 27.408 10.5621 27.4647 10.467C27.5214 10.3753 27.5847 10.2868 27.6514 10.2016C27.7081 10.1327 27.7714 10.0705 27.8348 10.0082C27.8781 9.96885 27.9248 9.9328 27.9715 9.89347C27.9815 9.88363 27.9948 9.8738 28.0115 9.86397Z" fill="#2D2E31"/>
<path d="M7.51042 14.5569C7.50381 14.5569 7.4972 14.5569 7.48729 14.5569C7.48068 14.5569 7.47407 14.5602 7.47076 14.5602C7.48398 14.5602 7.4972 14.5569 7.51042 14.5569Z" fill="#2D2E31"/>
<path d="M15.4991 28.8474L15.5025 28.8441C15.5092 28.8341 15.5126 28.8275 15.516 28.8176C15.5126 28.8275 15.5058 28.8374 15.4991 28.8474Z" fill="#2D2E31"/>
<path d="M16.0425 28.2152C16.0468 28.211 16.0468 28.211 16.0468 28.211C16.0468 28.211 16.0468 28.2152 16.0425 28.2152Z" fill="#2D2E31"/>
<path d="M17.349 32.9339C17.3358 32.9306 17.3226 32.9241 17.3094 32.9209C17.306 32.9209 17.3027 32.9209 17.2994 32.9209C17.3193 32.9241 17.3358 32.9274 17.349 32.9339Z" fill="#2D2E31"/>
<path d="M15.9556 32.1767C15.9489 32.1702 15.9456 32.1637 15.939 32.1604C15.9324 32.1539 15.9291 32.1507 15.9225 32.1442C15.9324 32.1539 15.9423 32.1637 15.9556 32.1767Z" fill="#2D2E31"/>
<path d="M22.4902 18.0509C22.4803 18.0639 22.4704 18.0736 22.4638 18.0834C22.4737 18.0736 22.4836 18.0639 22.4902 18.0509Z" fill="#2D2E31"/>
<path d="M19.4095 8.27383C19.3996 8.27708 19.3896 8.28033 19.383 8.28358C19.3764 8.28683 19.3731 8.28683 19.3698 8.29008C19.383 8.28358 19.3963 8.27708 19.4095 8.27383Z" fill="#2D2E31"/>
</svg>
