<svg width="36" height="36" viewBox="0 0 36 36" fill="none" xmlns="http://www.w3.org/2000/svg">
<path d="M0 18C0 8.05888 8.05888 0 18 0C27.9411 0 36 8.05888 36 18C36 27.9411 27.9411 36 18 36C8.05888 36 0 27.9411 0 18Z" fill="#E8E5DD"/>
<path d="M31.0531 28.6549C31.1416 28.6549 31.1416 28.6549 31.0531 28.6549V28.6549Z" fill="#2D2E31"/>
<path d="M33 29.0089C32.9115 28.8319 32.7345 28.8319 32.646 28.7434C32.5575 28.7434 32.3805 28.6549 32.292 28.6549C32.0265 28.6549 31.7611 28.5664 31.5841 28.5664H31.4956C31.4071 28.5664 31.3186 28.5664 31.2301 28.5664C30.6106 28.5664 29.9911 28.5664 29.3717 28.5664H29.2832V28.4779C29.2832 28.1239 29.3717 27.8584 29.3717 27.5044C29.3717 27.3274 29.3717 27.0619 29.3717 26.885C29.3717 26.6195 29.3717 26.4425 29.3717 26.177C29.3717 25.646 29.3717 25.2035 29.3717 24.6726C29.3717 24.4071 29.3717 24.1416 29.3717 23.8761C29.3717 23.6106 29.3717 23.3451 29.3717 23.0796C29.3717 22.5487 29.3717 22.0177 29.3717 21.5752C29.3717 21.0442 29.4602 20.5133 29.4602 19.9823C29.4602 19.7168 29.4602 19.4513 29.4602 19.1858C29.4602 18.9204 29.4602 18.6549 29.4602 18.3894C29.4602 17.8584 29.3717 17.3274 29.3717 16.7965C29.3717 16.2655 29.3717 15.823 29.3717 15.292C29.3717 15.0265 29.3717 14.7611 29.2832 14.4956C29.2832 14.4071 29.2832 14.4071 29.2832 14.3186C29.2832 14.2301 29.2832 14.1416 29.1947 14.0531C29.1062 13.9646 29.0177 13.8761 28.8407 13.8761H28.7522C28.6637 13.8761 28.6637 13.8761 28.5752 13.8761C28.4867 13.8761 28.4867 13.8761 28.3982 13.8761C28.1327 13.8761 27.9558 13.8761 27.6903 13.8761C27.4248 13.8761 27.2478 13.9646 26.9823 13.9646C26.7168 13.9646 26.5398 14.0531 26.2743 14.0531C26.0089 14.0531 25.8319 14.1416 25.5664 14.1416C25.4779 14.1416 25.3009 14.1416 25.2124 14.1416C25.1239 14.1416 25.0354 14.1416 24.8584 14.2301C24.7699 14.3186 24.6814 14.4071 24.6814 14.4956V14.5841C24.6814 14.6726 24.6814 14.6726 24.5929 14.7611C24.5929 14.7611 24.5929 14.8496 24.5044 14.8496C24.5044 14.9381 24.5044 15.0265 24.4159 15.0265V15.115C24.4159 15.292 24.3274 15.5575 24.3274 15.7345C24.3274 16 24.3274 16.177 24.3274 16.4425C24.3274 16.708 24.3274 16.9735 24.3274 17.1504C24.3274 17.4159 24.3274 17.6814 24.3274 17.9469C24.3274 18.2124 24.3274 18.4779 24.3274 18.7434C24.3274 19.0089 24.3274 19.2743 24.3274 19.5398C24.3274 20.0708 24.3274 20.6018 24.3274 21.0442C24.3274 21.3097 24.3274 21.5752 24.3274 21.8407C24.3274 22.1062 24.3274 22.3717 24.3274 22.6372C24.3274 22.9027 24.3274 23.1681 24.4159 23.4336C24.4159 23.6991 24.4159 23.9646 24.5044 24.3186C24.5044 24.3186 24.5044 24.3186 24.5044 24.2301C24.5044 24.3186 24.5044 24.4071 24.5044 24.4956C24.5044 24.4956 24.5044 24.4956 24.5044 24.4071C24.5044 24.4956 24.5044 24.5841 24.5044 24.6726C24.5044 24.7611 24.5044 24.7611 24.5044 24.8496C24.5044 25.2035 24.5929 25.469 24.5929 25.823C24.5929 25.9115 24.5929 25.9115 24.5929 26C24.5929 26.0885 24.5929 26.177 24.5929 26.177C24.5929 26.2655 24.5929 26.2655 24.5929 26.354V26.708C24.5929 26.7965 24.5929 26.885 24.5929 26.9735C24.5929 26.9735 24.5929 26.9735 24.5929 27.0619C24.5929 27.5044 24.6814 27.8584 24.6814 28.3009C24.6814 28.3894 24.6814 28.3894 24.6814 28.4779C24.5929 28.4779 24.5929 28.4779 24.5044 28.4779C24.4159 28.4779 24.4159 28.4779 24.3274 28.4779C23.885 28.4779 23.531 28.4779 23.0885 28.3894C22.469 28.3894 21.9381 28.3894 21.3186 28.3009C21.2301 28.3009 21.0531 28.3009 20.9646 28.3009C20.9646 27.5929 20.8761 26.9735 20.9646 26.2655C20.9646 26.177 20.9646 26.177 20.9646 26.0885V26C20.9646 26 20.9646 26 20.9646 25.9115C20.9646 25.823 20.9646 25.823 20.9646 25.7345C20.9646 25.5575 20.9646 25.292 20.9646 25.115C20.9646 24.8496 20.9646 24.6726 20.9646 24.4071V24.3186C20.9646 24.3186 20.9646 24.3186 20.9646 24.2301V24.1416C20.9646 23.8761 20.9646 23.5221 20.8761 23.2566C20.8761 22.9027 20.7876 22.4602 20.6991 22.1062C20.6106 21.6637 20.6106 21.3097 20.6106 20.8673C20.6106 20.8673 20.6106 20.8673 20.6106 20.7788C20.6106 20.5133 20.6106 20.1593 20.5221 19.8938C20.5221 19.5398 20.5221 19.2743 20.4336 18.9204C20.4336 18.3894 20.4336 17.8584 20.4336 17.3274C20.4336 16.7965 20.4336 16.2655 20.4336 15.7345C20.4336 14.6726 20.3451 13.6106 20.3451 12.6372C20.3451 12.1062 20.3451 11.6637 20.2566 11.1327C20.2566 10.6018 20.2566 10.1593 20.2566 9.62832C20.2566 9.36283 20.2566 9.09735 20.2566 8.83186C20.2566 8.56637 20.2566 8.38938 20.2566 8.12389C20.2566 7.85841 20.2566 7.68142 20.2566 7.41593C20.2566 7.15044 20.2566 6.88496 20.1681 6.61947C20.1681 6.53097 20.1681 6.44248 20.0796 6.26549C20.0796 6.17699 20.0796 6.0885 19.9911 6C19.9911 6.0885 19.9027 6.0885 19.8142 6.0885H19.7257C19.6372 6.0885 19.5487 6.0885 19.4602 6.0885C19.2832 6.0885 19.1062 6.0885 18.9292 6.0885C18.8407 6.0885 18.8407 6.0885 18.7522 6.0885H18.6637C18.4867 6.0885 18.2212 6.0885 18.0442 6.0885C17.9558 6.0885 17.8673 6.0885 17.6903 6.17699C17.6018 6.17699 17.6018 6.17699 17.5133 6.17699C17.2478 6.17699 16.9823 6.26549 16.7168 6.26549C16.4513 6.35398 16.1858 6.35398 15.9204 6.44248C15.8319 6.44248 15.6549 6.44248 15.5664 6.53097C15.4779 6.53097 15.3894 6.53097 15.2124 6.53097C15.1239 6.53097 15.0354 6.61947 14.9469 6.70796C14.9469 6.79646 14.8584 6.79646 14.8584 6.88496C14.8584 6.97345 14.8584 7.15044 14.8584 7.23894C14.8584 7.76991 14.8584 8.30088 14.8584 8.74336C14.8584 8.83186 14.8584 8.92035 14.8584 9.00885V9.09735C14.8584 9.27434 14.8584 9.36283 14.8584 9.53982C14.8584 9.80531 14.8584 10.1593 14.8584 10.4248C14.8584 10.6018 14.8584 10.6903 14.8584 10.8673C14.8584 11.1327 14.8584 11.4867 14.8584 11.7522C14.8584 12.0177 14.8584 12.2832 14.8584 12.5487C14.8584 12.7257 14.8584 12.8142 14.8584 12.9912C14.8584 13.1681 14.8584 13.3451 14.8584 13.5221C14.8584 13.6991 14.8584 13.8761 14.8584 13.9646C14.8584 14.1416 14.8584 14.2301 14.8584 14.4071C14.8584 14.4956 14.8584 14.4956 14.8584 14.5841C14.8584 14.7611 14.8584 14.9381 14.8584 15.115C14.8584 15.646 14.8584 16.177 14.8584 16.7965C14.8584 17.3274 14.8584 17.8584 14.8584 18.3894C14.8584 18.9204 14.8584 19.4513 14.9469 19.9823C14.9469 20.2478 14.9469 20.5133 14.9469 20.7788C14.9469 21.0442 14.9469 21.3097 15.0354 21.5752C15.0354 21.6637 15.0354 21.7522 15.0354 21.8407C15.0354 22.2832 15.1239 22.6372 15.1239 23.0796C15.1239 23.2566 15.1239 23.5221 15.1239 23.6991C15.1239 23.8761 15.1239 24.0531 15.1239 24.2301C15.1239 24.4071 15.1239 24.5841 15.1239 24.7611C15.1239 24.8496 15.1239 24.9381 15.1239 25.0265C15.1239 25.469 15.2124 25.9115 15.2124 26.354C15.2124 26.6195 15.2124 26.7965 15.3009 27.0619C15.3009 27.3274 15.3009 27.5044 15.3009 27.7699C15.3009 27.9469 15.3009 28.2124 15.3009 28.3894C15.3009 28.4779 15.3009 28.4779 15.3009 28.5664C14.7699 28.5664 14.2389 28.5664 13.7965 28.5664C13.177 28.5664 12.5575 28.5664 11.9381 28.5664C11.9381 28.4779 11.9381 28.3894 11.9381 28.3009C11.9381 28.1239 11.9381 27.8584 11.9381 27.6814C11.9381 27.4159 11.9381 27.2389 11.9381 26.9735C11.9381 26.531 11.9381 26.0885 11.9381 25.646C11.9381 25.469 11.9381 25.292 11.9381 25.115C11.9381 24.6726 11.8496 24.2301 11.8496 23.7876C11.8496 23.3451 11.7611 22.9027 11.7611 22.4602C11.7611 22.1062 11.7611 21.8407 11.6726 21.4867C11.6726 21.3982 11.6726 21.3982 11.6726 21.3097C11.6726 21.0442 11.6726 20.8673 11.6726 20.6018C11.6726 20.5133 11.6726 20.4248 11.6726 20.3363C11.5841 20.2478 11.4956 20.1593 11.3186 20.1593C11.2301 20.1593 11.0531 20.1593 10.9646 20.1593C10.8761 20.1593 10.7876 20.1593 10.6106 20.1593C10.1681 20.2478 9.72566 20.3363 9.28319 20.3363C9.28319 20.3363 9.28319 20.3363 9.19469 20.3363C8.75221 20.3363 8.30973 20.4248 7.86726 20.3363C7.60177 20.3363 7.42478 20.3363 7.15929 20.3363C7.0708 20.3363 6.9823 20.3363 6.8938 20.3363C6.80531 20.3363 6.71681 20.3363 6.62832 20.3363C6.45133 20.3363 6.36283 20.4248 6.27434 20.6018C6.27434 20.6903 6.27434 20.7788 6.27434 20.8673C6.27434 20.9558 6.27434 21.1327 6.36283 21.2212C6.36283 21.4867 6.45133 21.7522 6.45133 21.9292C6.45133 22.1062 6.45133 22.2832 6.45133 22.5487C6.45133 22.7257 6.45133 22.9911 6.45133 23.1681C6.45133 23.4336 6.45133 23.6106 6.53982 23.8761V23.9646C6.53982 24.0531 6.53982 24.1416 6.53982 24.3186C6.53982 24.4956 6.62832 24.6726 6.62832 24.8496C6.62832 25.0266 6.71681 25.115 6.71681 25.292C6.71681 25.3805 6.71681 25.5575 6.80531 25.646C6.80531 25.823 6.80531 25.9115 6.80531 26.0885C6.80531 26.2655 6.8938 26.354 6.8938 26.4425C6.9823 26.6195 6.9823 26.885 6.9823 27.0619C6.9823 27.4159 6.9823 27.7699 6.9823 28.0354C6.9823 28.2124 6.9823 28.3894 6.9823 28.6549C6.9823 28.7434 6.9823 28.8319 6.9823 28.9204C6.71681 28.9204 6.36283 28.9204 6.09734 29.0089C5.92035 29.0089 5.74336 29.0089 5.56637 29.0089C5.47788 29.0089 5.38938 29.0089 5.21239 29.0089C5.12389 29.0089 4.9469 29.0089 4.85841 29.0089C4.76991 29.0089 4.68142 29.0089 4.59292 29.0089C4.32743 29.0089 4.06195 29.0089 3.79646 29.0089C3.61947 29.0089 3.53097 29.0089 3.35398 29.0089C3.26549 29.0089 3.26549 29.0089 3.17699 29.0089C3.0885 29.0089 3.0885 29.0089 3 29.0089C3.26549 28.9204 3.17699 29.0089 3.17699 29.0973C3.17699 29.1858 3.26549 29.1858 3.26549 29.2743C3.35398 29.2743 3.44248 29.2743 3.53097 29.3628C3.61947 29.3628 3.70796 29.3628 3.79646 29.3628C3.79646 29.3628 3.79646 29.3628 3.88496 29.3628C4.06195 29.3628 4.23894 29.3628 4.41593 29.3628C4.59292 29.3628 4.76991 29.3628 4.9469 29.3628C5.12389 29.3628 5.30088 29.3628 5.56637 29.3628C5.83186 29.3628 6.18584 29.3628 6.45133 29.3628C6.80531 29.3628 7.0708 29.3628 7.42478 29.3628C8.04425 29.3628 8.75221 29.3628 9.37168 29.3628C10.6106 29.3628 11.8496 29.3628 13.0885 29.3628C13.708 29.3628 14.3274 29.3628 14.9469 29.3628C15.5664 29.3628 16.1858 29.3628 16.8053 29.3628C17.5133 29.3628 18.1327 29.3628 18.8407 29.3628C19.4602 29.3628 20.0796 29.4513 20.6991 29.4513C21.3186 29.4513 22.0265 29.4513 22.646 29.5398C23.2655 29.5398 23.885 29.5398 24.5044 29.6283C25.7434 29.6283 27.0708 29.6283 28.3097 29.6283C28.6637 29.6283 28.9292 29.6283 29.2832 29.6283C29.6372 29.6283 29.9027 29.6283 30.2566 29.6283C30.5221 29.6283 30.8761 29.6283 31.1416 29.6283C31.4071 29.6283 31.5841 29.6283 31.8496 29.6283C31.9381 29.6283 32.0265 29.6283 32.0265 29.6283C32.2035 29.6283 32.292 29.6283 32.469 29.6283C32.5575 29.6283 32.7345 29.6283 32.823 29.6283C32.823 29.6283 32.9115 29.6283 32.9115 29.5398C33 29.3628 33 29.1858 33 29.0089ZM11.2301 20.4248C11.3186 20.4248 11.3186 20.4248 11.4071 20.4248C11.4071 20.5133 11.4071 20.6018 11.4071 20.6903C11.4071 20.8673 11.4071 21.0442 11.4071 21.2212C11.4071 21.5752 11.4071 22.0177 11.4071 22.3717C11.4071 22.8142 11.4071 23.2566 11.4956 23.6991V23.7876C11.4956 23.8761 11.4956 23.9646 11.4956 23.9646C11.4956 24.4071 11.5841 24.8496 11.6726 25.292C11.7611 25.7345 11.7611 26.177 11.8496 26.6195C11.8496 26.885 11.9381 27.0619 11.9381 27.3274C11.9381 27.5044 12.0265 27.7699 12.0265 27.9469C12.0265 28.0354 12.0265 28.2124 12.115 28.3009C11.8496 28.3009 11.6726 28.3009 11.4071 28.3009V28.2124C11.4071 28.1239 11.4071 28.1239 11.4071 28.0354C11.4071 27.9469 11.4071 27.9469 11.4071 27.8584C11.4071 27.7699 11.4071 27.6814 11.4071 27.6814C11.4071 27.5929 11.4071 27.5929 11.4071 27.5044C11.4071 27.4159 11.4071 27.3274 11.4071 27.3274C11.4071 27.1504 11.4071 26.9735 11.3186 26.7965C11.3186 26.708 11.3186 26.6195 11.3186 26.531C11.3186 26.177 11.3186 25.9115 11.3186 25.5575C11.3186 25.2035 11.3186 24.8496 11.2301 24.4956C11.2301 24.2301 11.2301 24.0531 11.1416 23.7876C11.1416 23.5221 11.1416 23.2566 11.0531 22.9912C11.0531 22.8142 11.0531 22.6372 10.9646 22.4602C10.9646 22.3717 10.8761 22.1947 10.8761 22.1062C10.7876 21.8407 10.7876 21.5752 10.6991 21.3982C10.6991 21.3982 10.6991 21.3982 10.6991 21.4867C10.6991 21.3982 10.6991 21.3097 10.6106 21.2212C10.6106 21.1327 10.5221 21.0442 10.4336 20.9558C10.3451 20.8673 10.2566 20.8673 10.2566 20.8673C10.2566 20.8673 10.2566 20.8673 10.1681 20.8673C10.0796 20.8673 10.0796 20.7788 9.99115 20.7788H9.90265C9.81416 20.6903 9.72566 20.6903 9.63717 20.6018C9.63717 20.6018 9.63717 20.6018 9.54867 20.6018C9.63717 20.6018 9.72566 20.6018 9.72566 20.6018C10.4336 20.5133 10.8761 20.4248 11.2301 20.4248ZM10.4336 28.3894C10.4336 28.3894 10.4336 28.4779 10.5221 28.4779C10.5221 28.4779 10.5221 28.4779 10.4336 28.4779C10.4336 28.4779 10.5221 28.4779 10.4336 28.3894ZM9.0177 21.0442C9.10619 20.9558 9.10619 20.9558 9.0177 21.0442C9.0177 21.1327 9.0177 21.3097 9.10619 21.4867C9.10619 21.4867 9.10619 21.4867 9.10619 21.5752C9.10619 21.7522 9.10619 21.8407 9.10619 22.0177V21.9292C9.10619 21.7522 9.0177 21.6637 9.0177 21.4867C9.0177 21.3982 9.0177 21.3097 9.0177 21.3097C9.0177 21.1327 9.0177 21.0442 9.0177 21.0442ZM9.0177 28.6549C9.10619 28.5664 9.10619 28.5664 9.19469 28.4779C9.28319 28.5664 9.37168 28.6549 9.54867 28.6549C9.37168 28.5664 9.19469 28.5664 9.0177 28.6549ZM9.63717 28.5664C9.72566 28.5664 9.81416 28.4779 9.81416 28.4779C9.90265 28.5664 9.99115 28.5664 10.0796 28.4779C9.90265 28.5664 9.72566 28.5664 9.63717 28.5664ZM19.8142 13.9646C19.8142 13.8761 19.8142 13.7876 19.8142 13.7876V13.6991C19.8142 13.7876 19.8142 13.8761 19.8142 13.9646ZM16.2743 28.3894C16.2743 28.3009 16.2743 28.3009 16.3628 28.2124C16.4513 28.0354 16.4513 27.9469 16.4513 27.7699C16.4513 27.5929 16.5398 27.5044 16.5398 27.3274C16.5398 27.2389 16.5398 27.0619 16.5398 26.885C16.5398 26.6195 16.5398 26.354 16.5398 26.0885C16.5398 25.9115 16.5398 25.7345 16.5398 25.5575C16.5398 25.9115 16.6283 26.177 16.6283 26.531C16.6283 26.708 16.6283 26.885 16.5398 27.1504C16.5398 27.4159 16.4513 27.6814 16.4513 27.9469C16.4513 28.1239 16.4513 28.2124 16.4513 28.3894V28.4779C16.4513 28.4779 16.3628 28.4779 16.2743 28.3894ZM19.8142 12.9027C19.8142 12.9912 19.8142 13.1681 19.8142 13.2566V13.1681C19.8142 13.0796 19.8142 12.9912 19.8142 12.9027C19.8142 12.8142 19.8142 12.7257 19.8142 12.6372C19.8142 12.4602 19.8142 12.2832 19.8142 12.1062C19.8142 12.3717 19.8142 12.6372 19.8142 12.9027ZM19.5487 6.53097C19.6372 6.53097 19.6372 6.53097 19.7257 6.53097C19.7257 6.53097 19.7257 6.53097 19.7257 6.61947C19.7257 6.70796 19.7257 6.79646 19.7257 6.88496C19.7257 6.88496 19.7257 6.88496 19.7257 6.97345C19.7257 7.23894 19.7257 7.41593 19.7257 7.68142C19.7257 7.9469 19.7257 8.12389 19.7257 8.38938C19.7257 8.47788 19.7257 8.47788 19.7257 8.56637C19.7257 8.47788 19.7257 8.38938 19.7257 8.30088C19.7257 8.21239 19.7257 8.12389 19.6372 8.0354C19.6372 7.9469 19.6372 7.85841 19.6372 7.85841C19.6372 7.76991 19.6372 7.76991 19.6372 7.68142C19.6372 7.68142 19.6372 7.68142 19.6372 7.59292C19.6372 7.50442 19.6372 7.50442 19.6372 7.41593C19.6372 7.32743 19.6372 7.23894 19.5487 7.15044C19.5487 7.15044 19.5487 7.15044 19.5487 7.06195C19.5487 6.97345 19.4602 6.88496 19.4602 6.79646C19.4602 6.79646 19.4602 6.70796 19.3717 6.70796C19.3717 6.70796 19.3717 6.61947 19.2832 6.61947L19.1947 6.53097C19.2832 6.53097 19.4602 6.53097 19.5487 6.53097ZM15.8319 28.4779C15.8319 28.3894 15.8319 28.3009 15.8319 28.2124C15.8319 28.0354 15.8319 27.8584 15.8319 27.6814C15.8319 27.5044 15.8319 27.3274 15.8319 27.1504C15.8319 26.9735 15.8319 26.7965 15.8319 26.531C15.9204 26.708 15.9204 26.885 16.0088 27.0619C16.0973 27.2389 16.0973 27.4159 16.0973 27.5929C16.0973 27.7699 16.0973 27.9469 16.0973 28.1239C16.0973 28.2124 16.0973 28.3009 16.0973 28.3009C16.0088 28.3009 16.0088 28.3009 15.9204 28.3009C15.9204 28.4779 15.9204 28.4779 15.8319 28.4779ZM20.3451 28.4779C20.1681 28.4779 19.9911 28.4779 19.8142 28.4779C19.9027 28.3894 19.9027 28.3009 19.9027 28.2124C19.9911 27.8584 19.9911 27.5929 19.9027 27.2389C19.9027 26.9735 19.8142 26.708 19.8142 26.4425C19.8142 26.0885 19.7257 25.7345 19.7257 25.292C19.7257 24.9381 19.7257 24.5841 19.7257 24.2301C19.7257 23.8761 19.7257 23.5221 19.6372 23.2566C19.6372 22.9027 19.6372 22.5487 19.6372 22.1947C19.6372 22.0177 19.6372 21.8407 19.6372 21.6637C19.6372 21.4867 19.6372 21.3097 19.6372 21.1327C19.6372 20.8673 19.6372 20.6903 19.6372 20.4248C19.6372 20.2478 19.6372 19.9823 19.6372 19.8053C19.6372 19.7168 19.6372 19.7168 19.6372 19.6283C19.6372 19.5398 19.6372 19.4513 19.6372 19.2743C19.6372 19.0973 19.6372 18.9204 19.6372 18.7434C19.6372 18.5664 19.6372 18.3009 19.6372 18.1239C19.6372 17.9469 19.6372 17.6814 19.6372 17.5044C19.6372 17.0619 19.6372 16.708 19.6372 16.2655C19.6372 16.0885 19.6372 15.9115 19.6372 15.7345C19.6372 15.5575 19.6372 15.3805 19.6372 15.2035C19.6372 15.0265 19.6372 14.9381 19.6372 14.7611V14.6726C19.6372 15.115 19.6372 15.5575 19.6372 16.0885C19.6372 17.1504 19.6372 18.2124 19.6372 19.2743C19.6372 19.5398 19.6372 19.8053 19.6372 20.0708C19.6372 20.3363 19.6372 20.6018 19.6372 20.8673C19.6372 21.1327 19.6372 21.3982 19.7257 21.6637C19.7257 21.9292 19.8142 22.1947 19.8142 22.4602C19.9027 22.9912 19.9027 23.5221 19.9911 23.9646C19.9911 24.2301 20.0796 24.4071 20.0796 24.6726C20.0796 24.9381 20.1681 25.2035 20.1681 25.3805C20.1681 25.3805 20.1681 25.3805 20.1681 25.469C20.1681 25.7345 20.1681 26 20.1681 26.2655C20.1681 26.531 20.1681 26.7965 20.2566 26.9735C20.2566 27.2389 20.3451 27.4159 20.3451 27.6814C20.3451 27.9469 20.4336 28.1239 20.5221 28.3894V28.4779C20.6991 28.4779 20.5221 28.4779 20.3451 28.4779ZM25.0354 14.9381C25.0354 14.8496 25.0354 14.8496 25.0354 14.9381C25.0354 14.8496 25.0354 14.8496 25.0354 14.7611H25.1239L25.0354 14.8496C25.0354 14.9381 24.9469 15.0265 24.9469 15.0265V15.115C24.9469 15.0265 25.0354 15.0265 25.0354 14.9381ZM24.9469 28.5664C24.9469 28.4779 24.9469 28.3894 24.9469 28.2124C25.0354 28.3894 25.0354 28.4779 24.9469 28.5664C25.0354 28.5664 25.0354 28.5664 24.9469 28.5664ZM28.3097 28.6549C28.2212 28.5664 28.3097 28.5664 28.3097 28.6549C28.3097 28.5664 28.3097 28.5664 28.3097 28.5664V28.4779C28.3097 28.3894 28.3097 28.3009 28.3097 28.2124C28.3097 28.2124 28.3097 28.2124 28.3097 28.1239C28.3097 28.0354 28.3097 27.9469 28.3097 27.8584C28.3097 27.7699 28.3097 27.6814 28.3097 27.5929C28.3097 27.4159 28.3097 27.1504 28.3097 26.9735C28.3097 26.7965 28.3097 26.531 28.3097 26.354C28.3097 25.9115 28.3097 25.469 28.2212 25.0265C28.2212 24.5841 28.1327 24.1416 28.1327 23.6991C28.1327 23.4336 28.1327 23.0796 28.1327 22.8142C28.1327 22.8142 28.1327 22.8142 28.1327 22.9027V22.8142C28.1327 22.8142 28.1327 22.8142 28.1327 22.9027C28.1327 22.1062 28.1327 21.3982 28.1327 20.6018C28.1327 20.2478 28.2212 19.8053 28.2212 19.4513C28.2212 19.0973 28.3097 18.6549 28.3097 18.3009C28.3097 18.0354 28.3097 17.6814 28.3097 17.4159C28.3982 17.3274 28.3982 17.2389 28.4867 17.1504C28.4867 17.0619 28.4867 16.9735 28.4867 16.885V16.7965C28.4867 16.708 28.4867 16.6195 28.4867 16.531V16.4425V16.354C28.4867 16.2655 28.4867 16.177 28.4867 16.0885C28.4867 16 28.4867 16 28.4867 15.9115V15.823C28.4867 16 28.4867 16.2655 28.4867 16.4425C28.4867 16.6195 28.4867 16.885 28.4867 17.0619C28.4867 17.2389 28.4867 17.5044 28.4867 17.6814C28.4867 18.2124 28.4867 18.7434 28.4867 19.2743C28.4867 19.8053 28.4867 20.3363 28.4867 20.8673C28.4867 21.3982 28.4867 21.9292 28.3982 22.4602C28.3982 22.7257 28.3982 22.9911 28.3982 23.2566C28.3982 23.5221 28.3982 23.7876 28.4867 24.0531C28.5752 24.5841 28.5752 25.115 28.6637 25.646C28.6637 25.9115 28.7522 26.177 28.7522 26.354C28.7522 26.6195 28.8407 26.7965 28.8407 27.0619C28.8407 27.3274 28.9292 27.5044 28.9292 27.7699C28.9292 28.0354 29.0177 28.3009 29.0177 28.4779C29.0177 28.5664 29.0177 28.7434 29.1062 28.8319C28.7522 28.6549 28.5752 28.6549 28.3097 28.6549Z" fill="#2D2E31"/>
</svg>
