<svg width="36" height="36" viewBox="0 0 36 36" fill="none" xmlns="http://www.w3.org/2000/svg">
<path d="M0 18C0 8.05888 8.05888 0 18 0C27.9411 0 36 8.05888 36 18C36 27.9411 27.9411 36 18 36C8.05888 36 0 27.9411 0 18Z" fill="#E8E5DD"/>
<path d="M5.80846 21.0817C5.70431 21.0789 5.60154 21.0694 5.49878 21.0543C4.77111 20.9436 4.07955 20.5718 3.63101 19.9922C3.41298 19.712 3.26856 19.3894 3.16163 19.0545C3.13525 18.9697 3.11719 18.8781 3.09914 18.7893C3.08387 18.71 3.06581 18.6321 3.0547 18.5528C3.02832 18.3792 3.00332 18.2029 3.00054 18.0265C2.99916 17.9363 3.00054 17.8447 3.00332 17.7531C3.00749 17.6493 3.01999 17.5495 3.03665 17.4469C3.06304 17.2884 3.09636 17.1339 3.13941 16.9794C3.18941 16.799 3.26439 16.6227 3.34355 16.4518C3.41437 16.3014 3.48936 16.1565 3.57129 16.013C3.61573 15.9365 3.66156 15.864 3.71572 15.7957C3.77682 15.715 3.84209 15.6344 3.92263 15.5729C3.96012 15.5442 3.99762 15.5168 4.0365 15.4895C4.09066 15.4512 4.15315 15.4252 4.21564 15.402C4.26563 15.3418 4.3184 15.2831 4.37534 15.227C4.47255 15.1327 4.58086 15.0698 4.70446 15.0179C4.85582 14.9605 5.00858 14.9263 5.17105 14.914C5.28492 14.9058 5.3988 14.9099 5.51267 14.9208C5.71125 14.94 5.91122 14.9564 6.10563 15.0028C6.33615 15.0575 6.5639 15.1204 6.79581 15.1723C7.10271 15.2407 7.40822 15.3131 7.70262 15.4225C7.86926 15.484 8.02479 15.5729 8.16227 15.6863C8.29003 15.7916 8.40668 15.9078 8.52055 16.0253C8.62887 16.1374 8.73163 16.2577 8.81773 16.3876C8.91077 16.527 8.98853 16.6733 9.06352 16.8222C9.13296 16.9603 9.20378 17.1052 9.24822 17.2528C9.28155 17.3595 9.31071 17.4661 9.32598 17.5768C9.33154 17.6151 9.3357 17.6547 9.33709 17.693C9.3607 17.6889 9.38292 17.6848 9.40653 17.6821C9.72176 17.6329 10.0398 17.6383 10.3578 17.6397C10.973 17.6424 11.5895 17.6411 12.2047 17.6424C12.5227 17.6424 12.8421 17.6424 13.1601 17.6506C13.3004 17.6534 13.442 17.6629 13.5823 17.6834C13.6489 17.693 13.7087 17.7162 13.767 17.7463C13.7698 17.7477 13.7684 17.7504 13.7656 17.7504C13.7434 17.7436 13.7212 17.7395 13.6975 17.7354C13.6975 17.7354 13.6975 17.7354 13.6989 17.7354C13.6795 17.7326 13.6601 17.7313 13.6406 17.7299C13.642 17.7299 13.642 17.7299 13.6434 17.7299C13.6045 17.7299 13.5642 17.734 13.5254 17.7381C13.5267 17.7381 13.5281 17.7381 13.5295 17.7381C13.2393 17.7723 12.9532 17.8338 12.6658 17.883C12.3478 17.9377 12.0284 17.9869 11.709 18.0265C11.4062 18.0648 11.1035 18.0839 10.798 18.0894C10.4883 18.0949 10.18 18.0703 9.87035 18.0607C9.80786 18.058 9.74398 18.0566 9.68149 18.0552C9.63983 18.0552 9.59816 18.0552 9.5565 18.0552C9.48013 18.0552 9.40236 18.0552 9.32598 18.0525C9.2996 18.3888 9.24544 18.7305 9.13157 19.049C9.06769 19.2308 8.98853 19.4031 8.88577 19.5671C8.79134 19.7175 8.68164 19.8541 8.5636 19.9854C8.43028 20.133 8.2692 20.2533 8.11089 20.3709C8.05256 20.4146 7.98868 20.4529 7.92758 20.4911C7.84148 20.5445 7.754 20.5978 7.66373 20.6415C7.50681 20.7167 7.34711 20.7905 7.18186 20.8493C7.09854 20.878 7.01522 20.9067 6.9319 20.9327C6.83469 20.9627 6.73471 20.9942 6.63472 21.0133C6.45558 21.0489 6.27644 21.0707 6.09452 21.0858C6.06536 21.0885 6.03481 21.0899 6.00426 21.0899C5.94038 21.0885 5.87372 21.083 5.80846 21.0817ZM5.42796 15.6836C5.33492 15.726 5.24465 15.7724 5.15439 15.8203C5.05024 15.8804 4.94886 15.9433 4.85027 16.0116C4.80722 16.0458 4.76556 16.08 4.7239 16.1169C4.70584 16.136 4.68779 16.1552 4.66974 16.1757C4.63502 16.2208 4.60308 16.2686 4.57253 16.3178C4.48782 16.46 4.41283 16.609 4.34062 16.758C4.28785 16.8797 4.24064 17.0027 4.19481 17.1271C4.18787 17.1517 4.18092 17.1749 4.17398 17.1995C4.15732 17.2747 4.14204 17.3499 4.12815 17.4264C4.12954 17.4743 4.13371 17.5235 4.13649 17.5713C4.16148 17.7736 4.19898 17.9719 4.24758 18.1701C4.27535 18.2767 4.31007 18.3806 4.34756 18.4845C4.4045 18.6143 4.4656 18.7414 4.53365 18.8645C4.58364 18.9479 4.63641 19.0271 4.69473 19.1051C4.73501 19.1529 4.77528 19.1994 4.81694 19.2459C4.90165 19.3292 4.98775 19.4072 5.0794 19.4823C5.20021 19.5712 5.32103 19.6587 5.45018 19.738C5.53072 19.7776 5.61126 19.8159 5.6932 19.8541C5.77374 19.887 5.85428 19.9157 5.93483 19.9416C5.94455 19.9416 5.95566 19.943 5.96538 19.943C6.03481 19.9416 6.10147 19.9375 6.1709 19.9334C6.25283 19.9225 6.33477 19.9088 6.4167 19.8952C6.55834 19.8582 6.69582 19.8159 6.83469 19.768C6.94579 19.7229 7.0541 19.6737 7.16242 19.6218C7.2624 19.563 7.361 19.5001 7.45821 19.4345C7.52487 19.3812 7.58874 19.3279 7.65124 19.2718C7.70123 19.2199 7.74844 19.1666 7.79566 19.1119C7.84148 19.0504 7.88453 18.9875 7.92758 18.9233C7.96091 18.8617 7.99285 18.8002 8.02201 18.7373C8.06784 18.6212 8.10811 18.5036 8.14699 18.3847C8.20532 18.1646 8.25948 17.9432 8.29975 17.719C8.30114 17.7012 8.30253 17.6848 8.30391 17.6684C8.30253 17.6288 8.29836 17.5891 8.29558 17.5495C8.28864 17.5057 8.2817 17.4633 8.27336 17.421C8.23726 17.2938 8.19837 17.1681 8.15116 17.0437C8.122 16.974 8.09006 16.9056 8.05395 16.8387C7.96508 16.6951 7.86509 16.5584 7.7665 16.4217C7.72206 16.3657 7.67623 16.311 7.62763 16.2591C7.6068 16.2399 7.58458 16.2222 7.56375 16.203C7.52903 16.1798 7.4957 16.1565 7.46099 16.1347C7.40405 16.106 7.34573 16.0773 7.28879 16.0499C7.19019 16.0103 7.09021 15.9747 6.98745 15.9433C6.7111 15.8695 6.4292 15.8134 6.14729 15.7711C6.16396 15.7738 6.17923 15.7752 6.1959 15.7779C6.07092 15.7588 5.94732 15.7328 5.82373 15.7123C5.71541 15.6972 5.60571 15.6877 5.49461 15.6849C5.48351 15.6849 5.4724 15.6836 5.4599 15.6836C5.47101 15.6836 5.48212 15.6836 5.49323 15.6849C5.48628 15.6849 5.47934 15.6849 5.4724 15.6849C5.45573 15.6836 5.44184 15.6836 5.42796 15.6836Z" fill="#2D2E31"/>
<path d="M17.7914 23.6597C17.7108 23.6419 17.6233 23.6063 17.5636 23.5462C17.4886 23.4724 17.4359 23.3931 17.3845 23.3015C17.3137 23.1785 17.2581 23.0459 17.1956 22.9188C17.1248 22.7725 17.0512 22.6276 16.979 22.4841C16.8707 22.2722 16.7526 22.0644 16.6374 21.8553C16.5207 21.642 16.4041 21.4274 16.286 21.2155C16.268 21.1868 16.2513 21.1581 16.2333 21.1281C16.0083 20.923 15.7903 20.7125 15.5764 20.4938C15.357 20.2696 15.1473 20.0331 14.9293 19.8076C14.8751 19.7502 14.8182 19.6928 14.7613 19.6353C14.5377 19.4153 14.3099 19.2007 14.0905 18.9765C13.8739 18.755 13.667 18.5254 13.4656 18.2903C13.2518 18.0401 13.0407 17.7872 12.8643 17.5097C12.7699 17.3607 12.6907 17.2035 12.6241 17.0409C12.5713 16.9096 12.5241 16.7784 12.4908 16.6417C12.4574 16.5037 12.4422 16.3629 12.4283 16.2221C12.4213 16.151 12.4241 16.0785 12.4241 16.0061C12.4241 15.8598 12.4283 15.7095 12.4574 15.5646C12.5269 15.216 12.6852 14.8838 12.9129 14.6091C12.9865 14.5188 13.0657 14.4327 13.1504 14.3507C13.242 14.2618 13.3434 14.1826 13.4448 14.1033C13.6017 13.9789 13.7739 13.8695 13.9586 13.7889C14.0933 13.7315 14.2391 13.6932 14.3821 13.6618C14.4974 13.6358 14.6252 13.629 14.7432 13.6317C14.846 13.6331 14.9473 13.6372 15.0501 13.6454C15.2154 13.659 15.3792 13.6877 15.5389 13.7315C15.7139 13.7793 15.8764 13.8463 16.0361 13.931C16.161 13.9967 16.2721 14.0746 16.3791 14.1662C16.4471 14.2249 16.5096 14.2865 16.5721 14.3507C16.6624 14.4464 16.7498 14.5448 16.8346 14.6446C16.9345 14.7608 17.0359 14.8783 17.1262 15.0027C17.2914 15.2324 17.4331 15.4825 17.5539 15.7382C17.6789 16.002 17.7969 16.2699 17.8983 16.5433C17.9455 16.6732 17.9774 16.8057 18.0094 16.9383C18.0108 16.9465 18.0135 16.9534 18.0149 16.9616C18.0566 16.855 18.1024 16.7497 18.1483 16.6458C18.2816 16.3506 18.4218 16.058 18.576 15.7723C18.7273 15.4921 18.8829 15.2132 19.0537 14.944C19.1453 14.7991 19.2411 14.6555 19.3384 14.5134C19.4189 14.3958 19.5022 14.2783 19.5953 14.1703C19.7022 14.0459 19.8077 13.9228 19.9188 13.8039C20.0341 13.6809 20.1507 13.5633 20.2688 13.4458C20.3743 13.3405 20.4868 13.238 20.6007 13.1409C20.7326 13.0275 20.8645 12.914 21.002 12.8074C21.0562 12.7664 21.1089 12.724 21.1645 12.6858C21.2339 12.6393 21.3006 12.5873 21.3728 12.5436C21.5158 12.4616 21.6574 12.3809 21.8046 12.3044C21.9491 12.2306 22.1046 12.1759 22.2546 12.1171C22.3198 12.0911 22.3851 12.0679 22.4518 12.046C22.6115 11.9941 22.7684 11.9845 22.9309 12.0255C23.21 12.0966 23.46 12.2948 23.653 12.4985C23.7308 12.5805 23.8002 12.6734 23.8682 12.7637C23.9502 12.8744 24.0071 13.0015 24.0501 13.13C24.089 13.2462 24.1251 13.3624 24.1543 13.4827C24.1973 13.6618 24.2126 13.8518 24.2098 14.0363C24.2057 14.2906 24.1571 14.5407 24.1168 14.7922C24.1168 14.7922 24.1168 14.7909 24.1168 14.7895C24.0932 14.9358 24.0571 15.0793 24.021 15.2228C23.9849 15.3691 23.9446 15.5153 23.9002 15.6575C23.8043 15.9596 23.6974 16.259 23.5572 16.5433C23.2655 17.1352 22.9212 17.6984 22.5643 18.2534C22.2546 18.7373 21.9199 19.2034 21.57 19.6599C21.4977 19.7707 21.4228 19.88 21.345 19.9866C21.1561 20.2505 20.9631 20.5116 20.7701 20.774C20.5896 21.0214 20.4104 21.2702 20.216 21.5081C20.016 21.7555 19.8119 22.0084 19.5689 22.2175C19.4814 22.2927 19.3911 22.3665 19.2967 22.4294C19.2231 22.5169 19.1467 22.6044 19.0703 22.6891C18.887 22.8969 18.6912 23.0924 18.4954 23.2878C18.444 23.3398 18.3927 23.3904 18.3371 23.4382C18.2885 23.4819 18.2385 23.5271 18.1844 23.5626C18.0927 23.6227 17.9913 23.6624 17.883 23.6624C17.8525 23.6692 17.8219 23.6665 17.7914 23.6597ZM17.858 22.5798C17.8747 22.5606 17.8927 22.5401 17.9094 22.5196C17.8663 22.5018 17.8261 22.4841 17.7844 22.4636C17.8094 22.5018 17.8344 22.5401 17.858 22.5798ZM14.6293 14.5954C14.6141 14.5981 14.6002 14.6009 14.5849 14.6036C14.528 14.62 14.471 14.6391 14.4141 14.6583C14.3808 14.6733 14.3488 14.6883 14.3169 14.7047C14.2572 14.7403 14.1988 14.7786 14.1433 14.8196C14.0697 14.877 13.9961 14.9358 13.9267 14.9973C13.928 15.0342 13.9308 15.0711 13.935 15.108C13.9642 15.283 14.0016 15.4538 14.0433 15.6261C14.1475 15.9637 14.2766 16.2931 14.4085 16.6212C14.4988 16.8345 14.5904 17.0477 14.6918 17.2582C14.8071 17.4947 14.9251 17.7284 15.0404 17.9649C15.1418 18.1754 15.2348 18.39 15.332 18.6006C15.4348 18.822 15.5459 19.0366 15.6639 19.2485C15.7125 19.3264 15.7625 19.4043 15.8125 19.4795C15.8319 19.5014 15.85 19.5233 15.8694 19.5438C16.0708 19.7748 16.2708 20.0072 16.4777 20.2341C16.6999 20.4747 16.9332 20.7057 17.1609 20.9421C17.3775 21.1663 17.5914 21.3932 17.8094 21.6147C17.8816 21.6844 17.9566 21.7487 18.0358 21.8115C18.0635 21.832 18.0913 21.8512 18.1205 21.8689C18.176 21.9004 18.2343 21.9291 18.2927 21.9564C18.3163 21.9646 18.3399 21.9742 18.3635 21.9824C18.4121 21.9305 18.4621 21.8785 18.5107 21.8252C18.7134 21.6079 18.912 21.3878 19.1203 21.1759C19.5494 20.7398 19.9688 20.2915 20.3743 19.8336C20.5632 19.6217 20.7451 19.4043 20.927 19.1856C20.9395 19.1706 20.952 19.1555 20.9631 19.1391C21.0075 19.0858 21.0506 19.0311 21.0936 18.9778C21.0936 18.9778 21.0936 18.9778 21.0923 18.9792C21.6574 18.2711 22.1907 17.5398 22.6726 16.7729C22.7531 16.6403 22.8323 16.5064 22.9059 16.3683C22.9142 16.3506 22.9239 16.3341 22.9323 16.3164C22.9934 16.1633 23.0545 16.0102 23.1114 15.8544C23.2003 15.6124 23.2794 15.3677 23.353 15.1203C23.4294 14.8455 23.4891 14.568 23.5349 14.2878C23.553 14.1347 23.5669 13.9816 23.5738 13.8272C23.5766 13.6836 23.5766 13.5415 23.5641 13.3979C23.5599 13.3761 23.5558 13.3542 23.5516 13.3323C23.5433 13.3063 23.5349 13.2804 23.5266 13.2558C23.5169 13.2339 23.5058 13.212 23.4947 13.1915C23.4711 13.1546 23.4475 13.1191 23.4211 13.0835C23.4058 13.0658 23.3905 13.048 23.3752 13.033C23.378 13.0371 23.3808 13.0398 23.3836 13.0439C23.3864 13.0466 23.3905 13.0507 23.3933 13.0535C23.385 13.0466 23.378 13.0398 23.3697 13.0343C23.3461 13.0179 23.3225 13.0029 23.2975 12.9878C23.3016 12.9906 23.3058 12.9933 23.3086 12.9961C23.2891 12.9851 23.2683 12.9742 23.2489 12.9646C23.2336 12.9591 23.2183 12.9537 23.2031 12.9482C23.1642 12.9386 23.1253 12.9304 23.085 12.9222C23.0406 12.9168 22.9975 12.9127 22.9517 12.9099C22.9017 12.9099 22.8531 12.9127 22.8045 12.9181C22.7212 12.9304 22.6379 12.9496 22.5559 12.9687C22.4615 12.9974 22.3685 13.0289 22.2768 13.063C22.2865 13.0589 22.2962 13.0548 22.306 13.0507C22.2171 13.0863 22.1268 13.1204 22.0421 13.1628C21.9421 13.212 21.8435 13.2653 21.7449 13.32C21.7533 13.3146 21.763 13.3104 21.7727 13.305C21.6394 13.3788 21.513 13.4649 21.3867 13.551C21.3103 13.6084 21.2339 13.6645 21.1603 13.7246C21.0756 13.7957 20.9923 13.8682 20.9103 13.9433C20.8451 14.0076 20.7826 14.0718 20.7201 14.1388C20.6618 14.2031 20.609 14.2714 20.5548 14.3398C20.1952 14.8073 19.8549 15.2912 19.5411 15.7901C19.3786 16.0635 19.2384 16.3437 19.1078 16.6321C19.0162 16.8509 18.9204 17.0682 18.8481 17.2951C18.8301 17.3607 18.8134 17.4263 18.8023 17.492C18.7926 17.5576 18.7843 17.6232 18.7773 17.6874C18.7676 17.7927 18.7426 17.8993 18.6787 17.9854C18.6024 18.0866 18.5107 18.1577 18.3913 18.2C18.1941 18.2711 17.9774 18.1973 17.8441 18.0483C17.8441 18.0483 17.8441 18.0497 17.8427 18.0497C17.7219 17.9212 17.683 17.7284 17.7205 17.5617C17.74 17.4728 17.783 17.3894 17.8261 17.3115C17.8427 17.2828 17.8594 17.2541 17.8761 17.2254C17.7622 17.2186 17.6969 17.0737 17.6469 16.9917C17.5761 16.8796 17.5067 16.7661 17.4359 16.654C17.2803 16.4052 17.1178 16.1619 16.9443 15.9254C16.9457 15.9282 16.9484 15.9295 16.9498 15.9323C16.9332 15.9104 16.9179 15.8899 16.9012 15.868C16.7929 15.7259 16.6735 15.5946 16.5499 15.4661C16.3569 15.2802 16.1583 15.1012 15.95 14.933C15.8958 14.8934 15.8403 14.8551 15.7833 14.8196C15.75 14.8018 15.7181 14.7854 15.6847 14.7704C15.5903 14.7307 15.4959 14.6952 15.3973 14.6637C15.3223 14.6432 15.2487 14.6255 15.1723 14.6104C15.0737 14.5981 14.9737 14.5886 14.8737 14.5831C14.7918 14.5858 14.7113 14.5886 14.6293 14.5954ZM13.4837 15.9883C13.4837 16.0922 13.4878 16.1947 13.4976 16.2986C13.5059 16.3533 13.5156 16.408 13.5281 16.4613C13.5545 16.5515 13.5864 16.6403 13.6184 16.7292C13.6684 16.8399 13.7211 16.9465 13.7795 17.0532C13.8586 17.1789 13.9405 17.3033 14.028 17.4236C13.8933 17.1338 13.7725 16.8399 13.6711 16.5351C13.6225 16.3902 13.5809 16.2439 13.5406 16.0963C13.5226 16.0252 13.5045 15.9555 13.4878 15.8844C13.4864 15.92 13.4851 15.9541 13.4837 15.9883ZM22.6892 12.4725C22.6698 12.4752 22.6504 12.4793 22.6309 12.4834C22.6129 12.4875 22.5948 12.493 22.5768 12.4985C22.6323 12.4889 22.6879 12.4793 22.7448 12.4725C22.7378 12.4725 22.7309 12.4711 22.7226 12.4711C22.7101 12.4711 22.7003 12.4711 22.6892 12.4725Z" fill="#2D2E31"/>
<path d="M30.0881 19.4905C29.9326 19.4658 29.7785 19.4344 29.6285 19.3893C29.341 19.3032 29.0605 19.1952 28.8008 19.0448C28.53 18.889 28.2467 18.725 28.0454 18.483C27.9482 18.3668 27.8635 18.2452 27.7857 18.1167C27.6816 17.9444 27.6121 17.7449 27.5607 17.5494C27.5524 17.5166 27.5441 17.4838 27.5357 17.451C27.5094 17.4633 27.4816 17.4728 27.4538 17.4769C27.4094 17.4851 27.3635 17.4838 27.3219 17.4742C27.2788 17.4646 27.2413 17.4482 27.2066 17.4264C27.1983 17.4264 27.1886 17.425 27.1802 17.425C26.6275 17.4168 26.0762 17.4619 25.5263 17.5002C24.9695 17.5371 24.4126 17.5603 23.8585 17.6164C23.6058 17.6423 23.353 17.6751 23.0989 17.6874C22.9823 17.6929 22.867 17.6915 22.7517 17.6792C22.692 17.6724 22.6448 17.6533 22.592 17.6287C22.5657 17.6246 22.5407 17.6191 22.5157 17.615C22.5171 17.615 22.5198 17.615 22.5212 17.615C22.5115 17.6136 22.5004 17.6123 22.4907 17.6123C22.4684 17.6123 22.4448 17.615 22.4226 17.6177C22.3699 17.6232 22.3657 17.5412 22.4185 17.5371C22.4851 17.5302 22.5434 17.5371 22.6087 17.5494C22.6101 17.5494 22.6115 17.5494 22.6129 17.5494H22.6143C22.6156 17.5494 22.617 17.5494 22.617 17.5494C22.6823 17.5412 22.7462 17.5234 22.8087 17.5111C22.9212 17.4879 23.035 17.4756 23.1475 17.4578C23.4003 17.4182 23.6502 17.3676 23.9002 17.3156C24.3682 17.2186 24.8445 17.1653 25.3194 17.112C25.3194 17.112 25.3194 17.112 25.318 17.112C25.35 17.1092 25.3791 17.1051 25.4097 17.1024C25.4097 17.1024 25.4097 17.1024 25.4083 17.1024C25.4083 17.1024 25.4097 17.1024 25.4111 17.1024C25.4194 17.1024 25.4277 17.101 25.4361 17.0997C25.4319 17.0997 25.4277 17.0997 25.4222 17.101C25.4347 17.0997 25.4458 17.0983 25.4583 17.0969C25.4805 17.0942 25.5027 17.0915 25.5263 17.0887C25.5263 17.0887 25.5263 17.0887 25.5249 17.0887C25.5291 17.0887 25.5333 17.0873 25.5374 17.0873C25.5402 17.0873 25.5444 17.0873 25.5471 17.0873C25.5499 17.0873 25.5527 17.086 25.5555 17.086C25.561 17.086 25.5652 17.086 25.5708 17.0846C25.5694 17.0846 25.568 17.0846 25.568 17.0846C25.618 17.0791 25.668 17.0737 25.7193 17.0668H25.7207C25.7332 17.0655 25.7471 17.0641 25.7582 17.0627C25.768 17.0627 25.7777 17.0614 25.7874 17.06C25.7929 17.06 25.7985 17.0586 25.8041 17.0586C26.0082 17.0354 26.2109 17.0108 26.4151 16.9876C26.4054 16.9889 26.3942 16.9903 26.3831 16.9917C26.572 16.9698 26.7595 16.9507 26.9469 16.9302C26.9733 16.9274 26.9997 16.9247 27.0247 16.9219C27.0247 16.9014 27.0261 16.8809 27.0275 16.8604C27.0344 16.7497 27.0622 16.6404 27.0858 16.5324C27.1011 16.4613 27.1233 16.3888 27.1469 16.3205C27.2441 16.0362 27.3802 15.7641 27.5496 15.5154C27.7121 15.2748 27.8843 15.0397 28.094 14.8346C28.3092 14.6255 28.5439 14.4341 28.8036 14.2824C28.8703 14.2441 28.9369 14.2044 29.005 14.1675C29.1258 14.0978 29.2535 14.0486 29.3855 14.0021C29.7424 13.8764 30.1229 13.9297 30.4742 14.0431C30.7658 14.1388 31.0491 14.2892 31.2935 14.4696C31.4185 14.5612 31.5462 14.6528 31.6615 14.7581C31.7795 14.8661 31.8934 14.9795 32.0059 15.0943C32.1128 15.2023 32.2059 15.3253 32.2947 15.4484C32.3864 15.5755 32.4739 15.704 32.5517 15.8393C32.6253 15.9678 32.6975 16.0977 32.7544 16.2344C32.7613 16.2521 32.7683 16.2672 32.7738 16.2836C32.7752 16.2877 32.778 16.2932 32.7794 16.2973C32.7863 16.3123 32.7919 16.326 32.7975 16.341C32.7933 16.3314 32.7891 16.3219 32.785 16.3123C32.8419 16.4572 32.8849 16.6048 32.9238 16.7565C32.9627 16.9137 32.9835 17.0723 32.996 17.2336C33.0044 17.3252 32.9974 17.4195 32.9946 17.5111C32.9891 17.671 32.946 17.8296 32.8919 17.98C32.8488 18.0975 32.8072 18.2137 32.7516 18.3258C32.685 18.4611 32.5947 18.5828 32.5031 18.7004C32.392 18.8439 32.2586 18.9696 32.1087 19.0763C31.9865 19.1624 31.8531 19.2307 31.7198 19.2963C31.4463 19.4289 31.1533 19.5055 30.8519 19.5383C30.7866 19.5451 30.72 19.5479 30.6547 19.5479C30.4645 19.5451 30.277 19.5192 30.0881 19.4905ZM31.1727 17.9663C31.0935 18.1823 30.8922 18.3039 30.6964 18.4065C30.57 18.4721 30.4422 18.5322 30.3103 18.5842C30.3048 18.5855 30.2992 18.5883 30.2937 18.591C30.3881 18.6019 30.4839 18.6101 30.5797 18.6156C30.6339 18.6156 30.688 18.6142 30.7408 18.6088C30.813 18.5992 30.8852 18.5869 30.9574 18.5719C31.0172 18.5555 31.0741 18.5377 31.1324 18.5172C31.2171 18.4816 31.2991 18.4379 31.381 18.3955C31.4268 18.3682 31.4726 18.3408 31.5157 18.3108C31.5449 18.2889 31.5726 18.2657 31.599 18.2411C31.6282 18.211 31.656 18.1809 31.6823 18.1495C31.724 18.0962 31.7629 18.0401 31.799 17.9827C31.8212 17.9431 31.842 17.9034 31.8615 17.8624C31.8948 17.7763 31.924 17.6888 31.9517 17.6C31.9601 17.5685 31.9684 17.5371 31.9753 17.5043C31.9795 17.466 31.9823 17.4277 31.9837 17.3894C31.9837 17.3143 31.9809 17.2404 31.9753 17.1653C31.9559 17.034 31.9309 16.9055 31.899 16.7771C31.867 16.6691 31.8323 16.5624 31.792 16.4572C31.7254 16.3055 31.6532 16.1606 31.5726 16.0157C31.499 15.8967 31.4213 15.7805 31.3393 15.6671C31.2449 15.5523 31.1463 15.4443 31.0435 15.3376C30.9616 15.2652 30.8783 15.1955 30.7922 15.1271C30.7117 15.0697 30.6311 15.0137 30.5464 14.9617C30.47 14.9194 30.3923 14.8811 30.3131 14.8428C30.2381 14.8141 30.1631 14.7854 30.0867 14.7608C30.0298 14.7458 29.9743 14.7348 29.9159 14.7253C29.8646 14.7184 29.8146 14.7143 29.7632 14.7102C29.741 14.7102 29.7187 14.7116 29.6979 14.713C29.641 14.7212 29.584 14.7335 29.5271 14.7471C29.4854 14.7594 29.4438 14.7731 29.4035 14.7868C29.3146 14.825 29.2299 14.8688 29.1424 14.9125C29.03 14.9781 28.9203 15.0465 28.8133 15.1203C28.7106 15.1996 28.6106 15.2816 28.5161 15.3691C28.4398 15.4456 28.3662 15.5236 28.2953 15.6056C28.1926 15.7395 28.0968 15.879 28.0051 16.0211C27.951 16.1195 27.9024 16.218 27.8551 16.3191C27.8232 16.3984 27.7926 16.4791 27.7663 16.5611C27.7649 16.5665 27.7635 16.5706 27.7621 16.5775C27.7871 16.5747 27.8107 16.5747 27.8343 16.5775C27.8343 16.5761 27.8343 16.5761 27.8343 16.5747C27.9843 16.5925 28.1134 16.7032 28.1551 16.8481C28.1773 16.9274 28.194 17.0081 28.2134 17.0887C28.2551 17.2377 28.3065 17.3826 28.3648 17.5261C28.3842 17.5713 28.4051 17.615 28.4273 17.6574C28.4648 17.7175 28.5078 17.7749 28.5495 17.8323C28.5828 17.8733 28.6161 17.913 28.6509 17.9513C28.68 17.9786 28.7092 18.0059 28.7411 18.0319C28.7856 18.0634 28.83 18.0934 28.8758 18.1208C29.0216 18.2014 29.1716 18.2739 29.323 18.3422C29.4688 18.3996 29.616 18.4488 29.7646 18.4939C29.8312 18.5103 29.8979 18.5268 29.9645 18.5404C30.0187 18.5322 30.0729 18.5226 30.127 18.5103C30.2826 18.4693 30.4339 18.4242 30.5853 18.3682C30.5853 18.3682 30.5839 18.3682 30.5825 18.3682C30.6908 18.3244 30.7964 18.2793 30.8977 18.226C30.9338 18.2042 30.9699 18.1809 31.0047 18.1549C31.0227 18.1399 31.0408 18.1249 31.0574 18.1085C31.0713 18.0934 31.0852 18.0784 31.0991 18.062C31.1158 18.0415 31.131 18.0196 31.1449 17.9964C31.1519 17.9841 31.1574 17.9718 31.1644 17.9595H31.1657C31.1713 17.9636 31.1727 17.9649 31.1727 17.9663Z" fill="#2D2E31"/>
</svg>
