<svg width="36" height="36" viewBox="0 0 36 36" fill="none" xmlns="http://www.w3.org/2000/svg">
<path d="M0 18C0 8.05888 8.05888 0 18 0C27.9411 0 36 8.05888 36 18C36 27.9411 27.9411 36 18 36C8.05888 36 0 27.9411 0 18Z" fill="#E8E5DD"/>
<path d="M16.1094 14.0056C16.1315 14.0815 16.1756 14.2332 16.2785 14.2884C16.3005 14.3643 16.3005 14.3643 16.4035 14.4195C16.4255 14.4954 16.5064 14.4747 16.5285 14.5506C16.6314 14.6058 16.6534 14.6817 16.7564 14.7368C16.8593 14.792 16.8593 14.792 16.9622 14.8472C16.9034 14.9438 16.9843 14.9231 17.0063 14.999C17.1093 15.0542 17.2122 15.1094 17.2931 15.0887C17.396 15.1439 17.5799 15.1784 17.6828 15.2336C17.7857 15.2888 17.9475 15.2475 18.0284 15.2268C18.2932 15.2407 18.455 15.1994 18.7197 15.2132C18.8815 15.1719 19.1462 15.1857 19.308 15.1444C19.4698 15.103 19.5507 15.0824 19.7125 15.041C19.8743 14.9997 20.014 14.8825 20.1758 14.8411C20.3376 14.7998 20.3965 14.7033 20.5362 14.586C20.676 14.4688 20.8157 14.3516 21.0364 14.2137C21.1762 14.0965 21.235 14 21.3748 13.8828C21.5145 13.7656 21.5734 13.669 21.6911 13.4759C21.8088 13.2829 21.8677 13.1863 21.9854 12.9932C22.0442 12.8967 22.081 12.7243 22.1399 12.6277C22.1767 12.4553 22.2135 12.2829 22.2504 12.1105C22.2872 11.9381 22.324 11.7657 22.2799 11.6139C22.3167 11.4415 22.2726 11.2898 22.3095 11.1174C22.2874 11.0415 22.2874 11.0415 22.2654 10.9656L22.2433 10.8898C22.1993 10.738 22.1552 10.5863 22.0302 10.4552C22.0082 10.3794 21.9052 10.3242 21.8832 10.2483C21.7582 10.1172 21.6332 9.98614 21.5083 9.85507C21.4862 9.7792 21.3833 9.724 21.3833 9.724C21.2803 9.6688 21.2583 9.59293 21.1774 9.6136C20.9715 9.5032 20.8686 9.448 20.6627 9.3376C20.5818 9.35827 20.4568 9.2272 20.273 9.19267C20.1701 9.13747 20.0892 9.15814 20.0671 9.08227C19.7804 8.99255 19.4127 8.92349 19.1259 8.83376C18.8612 8.8199 18.6774 8.78537 18.5156 8.82671C18.4347 8.84738 18.3317 8.79218 18.2508 8.81285C18.1699 8.83352 18.089 8.85419 18.0081 8.87486C17.9272 8.89554 17.7655 8.93688 17.6846 8.95755C17.6846 8.95755 17.6846 8.95755 17.6037 8.97822C17.6037 8.97822 17.6037 8.97822 17.5228 8.99889C17.4419 9.01956 17.4639 9.09543 17.383 9.1161C17.2433 9.23331 17.1035 9.35052 16.9858 9.5436C16.846 9.66082 16.7283 9.8539 16.5886 9.97111C16.5077 9.99178 16.5297 10.0677 16.4488 10.0883C16.4929 10.2401 16.434 10.3366 16.3972 10.509C16.2795 10.7021 16.1838 10.971 16.0661 11.1641C16.0293 11.3365 15.9925 11.509 15.9336 11.6055C15.8968 11.7779 15.86 11.9503 15.9041 12.1021C15.8893 12.3503 15.8745 12.5986 15.8818 12.9228C15.867 13.1711 15.9331 13.3987 15.9992 13.6263L16.0213 13.7021C16.0654 13.8539 16.0874 13.9298 16.1094 14.0056ZM25.881 19.822C25.8441 19.9945 25.7264 20.1875 25.6896 20.3599C25.5719 20.553 25.5351 20.7254 25.4394 20.9944C25.616 20.7048 25.6896 20.3599 25.8662 20.0703C25.903 19.8979 26.0207 19.7048 26.0796 19.6083C26.1164 19.4359 26.2341 19.2428 26.2709 19.0704C26.3445 18.7256 26.4402 18.4566 26.5948 18.0911C26.5948 18.0911 26.6168 18.167 26.5359 18.1877C26.5579 18.2635 26.477 18.2842 26.4991 18.3601C26.5211 18.4359 26.4402 18.4566 26.4623 18.5325C26.4034 18.629 26.3445 18.7256 26.3666 18.8014C26.3298 18.9738 26.2709 19.0704 26.1532 19.2635C26.1532 19.2635 26.1532 19.2635 26.1752 19.3393C26.0355 19.4566 25.9178 19.6496 25.881 19.822ZM18.325 33C18.222 32.9448 18.222 32.9448 18.1191 32.8896C17.9941 32.7585 18.0089 32.5102 18.1266 32.3172C18.1855 32.2206 18.2664 32.2 18.2443 32.1241C18.4209 31.8345 18.5754 31.469 18.8329 31.1587C19.0315 30.9449 19.1492 30.7518 19.289 30.6346C19.4067 30.4415 19.5464 30.3243 19.6642 30.1313C19.9216 29.821 20.1571 29.4348 20.4145 29.1245C20.6499 28.7383 20.9074 28.428 21.1428 28.0419C21.2606 27.8488 21.3194 27.7523 21.4371 27.5592C21.6137 27.2696 21.7682 26.9041 22.0257 26.5938C22.2832 26.2835 22.4377 25.918 22.6952 25.6077C22.9306 25.2215 23.1072 24.9319 23.3426 24.5457C23.6957 23.9665 24.0268 23.3114 24.38 22.7321C24.5934 22.2701 24.8068 21.8081 25.0201 21.346C25.2335 20.884 25.4469 20.422 25.5794 19.9806C25.6751 19.7116 25.6899 19.4634 25.7855 19.1944C25.8223 19.022 25.918 18.753 26.0357 18.56C26.0946 18.4634 26.1314 18.291 26.1903 18.1945C26.2491 18.0979 26.2271 18.0221 26.2859 17.9255C26.3448 17.829 26.4037 17.7324 26.3596 17.5807C26.4552 17.3117 26.5289 16.9669 26.5437 16.7186C26.6173 16.3738 26.6321 16.1255 26.7057 15.7807C26.6837 15.7048 26.6616 15.629 26.7205 15.5324C26.6544 15.3048 26.6691 15.0565 26.6251 14.9048C26.581 14.7531 26.5369 14.6013 26.4928 14.4496C26.3826 14.0702 26.1915 13.7115 26.0225 13.4287C25.8754 13.2218 25.7064 12.939 25.5594 12.732C25.4124 12.5251 25.2653 12.3182 25.0963 12.0353L25.0742 11.9595C24.9272 11.7525 24.6993 11.5663 24.5523 11.3593C24.3244 11.1731 24.1774 10.9661 23.9494 10.7798C23.9274 10.704 23.8465 10.7246 23.8245 10.6488L23.8465 10.7246C23.8906 10.8764 23.8317 10.9729 23.8758 11.1247C23.861 11.3729 23.9051 11.5247 23.8903 11.773C23.8756 12.0213 23.8387 12.1937 23.824 12.4419C23.7871 12.6144 23.6915 12.8833 23.6547 13.0557C23.5222 13.4971 23.2867 13.8832 23.0513 14.2694C22.9336 14.4625 22.7938 14.5797 22.5952 14.7935C22.4555 14.9107 22.2569 15.1244 22.1171 15.2416C21.7567 15.4967 21.3963 15.7518 20.933 15.9517C20.7123 16.0896 20.4696 16.1516 20.3078 16.1929C20.0651 16.255 19.9033 16.2963 19.6607 16.3583C19.2562 16.4617 18.7487 16.5098 18.3222 16.5373C17.9766 16.5441 17.6089 16.4751 17.3222 16.3853C16.9545 16.3163 16.5648 16.1713 16.2339 15.9299C15.7192 15.6539 15.4693 15.3917 15.3002 15.1089C15.1312 14.8261 14.9401 14.4674 14.8519 14.1639C14.8299 14.0881 14.7858 13.9363 14.7638 13.8605C14.7417 13.7846 14.6976 13.6329 14.7565 13.5363C14.7272 13.1363 14.7567 12.6397 14.7274 12.2397C14.7643 12.0673 14.779 11.819 14.8158 11.6466C14.8527 11.4742 14.9483 11.2052 15.0661 11.0122C15.1985 10.5708 15.456 10.2605 15.6914 9.87433L15.7503 9.77779C15.868 9.58471 15.9269 9.48817 16.0446 9.29509C16.302 8.98479 16.5595 8.6745 16.839 8.44008C17.1774 8.10911 17.5598 7.92989 18.0452 7.80587C18.2879 7.74386 18.4497 7.70251 18.7144 7.71637C18.9571 7.65436 19.141 7.68889 19.4057 7.70275C19.6704 7.71661 19.8542 7.75114 20.0381 7.78567C20.3028 7.79953 20.4866 7.83405 20.7734 7.92378C20.9793 8.03418 21.1631 8.06871 21.369 8.17911C21.5749 8.28951 21.7587 8.32404 21.9646 8.43444C22.1705 8.54484 22.3763 8.65524 22.6042 8.84151C22.7292 8.97258 22.9351 9.08298 23.0821 9.28992C23.3321 9.55206 23.4791 9.759 23.6481 10.0418C23.7731 10.1729 23.8761 10.2281 24.001 10.3592C24.3319 10.6006 24.6039 10.9386 24.8759 11.2766C25.0009 11.4077 25.1479 11.6147 25.2728 11.7457C25.3978 11.8768 25.5228 12.0079 25.5889 12.2355C25.7139 12.3665 25.78 12.5942 25.905 12.7252C26.03 12.8563 26.177 13.0632 26.2211 13.215C26.4122 13.5737 26.6033 13.9323 26.7135 14.3117C26.9266 14.7462 27.0809 15.2773 27.0513 15.7739C27.0881 15.6015 27.0661 15.5256 27.1029 15.3532C27.0957 15.0291 27.1913 14.7601 27.1841 14.436C27.1768 14.1118 27.2725 13.8428 27.2652 13.5187C27.28 13.2704 27.2948 13.0221 27.2066 12.7186C27.2214 12.4704 27.1553 12.2428 27.148 11.9186C27.1407 11.5945 27.0305 11.2151 27.0233 10.8909C26.9131 10.5116 26.9058 10.1874 26.7956 9.80809C26.7515 9.65635 26.7075 9.50461 26.6634 9.35287C26.5973 9.12526 26.5532 8.97352 26.4871 8.74591C26.443 8.59417 26.3769 8.36656 26.3328 8.21482C26.2446 7.91133 26.2005 7.75959 26.0756 7.62852C26.0315 7.47678 25.9285 7.42158 25.8845 7.26984C25.8624 7.19397 25.7374 7.0629 25.7154 6.98703C25.5684 6.78009 25.3405 6.59382 25.1935 6.38688C25.0685 6.25581 24.9215 6.04887 24.7156 5.93847C24.5906 5.8074 24.3847 5.697 24.2598 5.56593C24.1568 5.51073 24.0318 5.37966 23.9289 5.32446C23.723 5.21406 23.701 5.13819 23.6201 5.15886C23.5981 5.08299 23.5172 5.10366 23.4951 5.02779C23.3922 4.97259 23.1863 4.86219 23.0834 4.80699C22.8995 4.77246 22.6937 4.66206 22.5098 4.62753C22.4069 4.57233 22.304 4.51713 22.2231 4.5378C22.1201 4.4826 21.9363 4.44807 21.8333 4.39287C21.8333 4.39287 21.8333 4.39287 21.9142 4.3722C21.5466 4.30315 21.1569 4.15822 20.7892 4.08916C20.6054 4.05463 20.5245 4.0753 20.3406 4.04077C20.0539 3.95104 19.7082 3.95785 19.4435 3.944C19.1788 3.93014 18.8111 3.86108 18.4655 3.86789C18.2816 3.83336 18.1198 3.8747 17.936 3.84017C17.7742 3.88151 17.5904 3.84698 17.4286 3.88833C17.3477 3.909 17.3477 3.909 17.2668 3.92967L17.105 3.97101C16.5167 4.03983 15.8475 4.12933 15.2812 4.27402C15.0385 4.33603 14.7958 4.39804 14.5531 4.46005C14.3104 4.52207 14.0677 4.58408 13.825 4.64609C13.7441 4.66676 13.6632 4.68743 13.5015 4.72877C13.4206 4.74944 13.2588 4.79078 13.1999 4.88732C12.8175 5.06655 12.3762 5.34231 11.9349 5.61808C11.7951 5.73529 11.5745 5.87317 11.4347 5.99038C11.2949 6.10759 11.0963 6.32135 10.9566 6.43856C10.8389 6.63164 10.7212 6.82472 10.5814 6.94193C10.4637 7.13501 10.4048 7.23156 10.2651 7.34877C10.2283 7.52118 10.1105 7.71426 9.99283 7.90734C9.93397 8.00388 9.87512 8.10042 9.81626 8.19696C9.77944 8.36938 9.74262 8.54179 9.70581 8.7142C9.58809 8.90728 9.55128 9.07969 9.4556 9.34864C9.44083 9.59693 9.34515 9.86588 9.33038 10.1142C9.29356 10.2866 9.25674 10.459 9.24197 10.7073C9.20515 10.8797 9.19037 11.128 9.15355 11.3004C9.18286 11.7004 9.10922 12.0452 9.11649 12.3694C9.12375 12.6935 9.15305 13.0935 9.16032 13.4177C9.2044 13.5694 9.16758 13.7418 9.21166 13.8936C9.25574 14.0453 9.24096 14.2936 9.28504 14.4453C9.39524 14.8247 9.40251 15.1489 9.51271 15.5282C9.64495 15.9834 9.77719 16.4386 9.90943 16.8939C10.0417 17.3491 10.1739 17.8043 10.387 18.2389C10.4532 18.4665 10.6002 18.6734 10.6443 18.8252C10.7104 19.0528 10.8574 19.2597 10.9235 19.4873C11.1367 19.9219 11.3278 20.2806 11.5409 20.7151C11.5409 20.7151 11.5409 20.7151 11.5629 20.791C11.585 20.8668 11.585 20.8668 11.607 20.9427L11.6291 21.0186C12.4743 22.4326 13.099 23.9846 13.9663 25.4745C14.1354 25.7573 14.2824 25.9643 14.4514 26.2471C14.6425 26.6057 14.8336 26.9644 15.1056 27.3024C15.3556 27.5646 15.5246 27.8474 15.7966 28.1854C16.0466 28.4475 16.2377 28.8062 16.4067 29.089C16.8478 29.7099 17.2079 30.3513 17.649 30.9722C17.671 31.048 17.671 31.048 17.774 31.1032C17.796 31.1791 17.8989 31.2343 17.921 31.3102C17.943 31.386 18.046 31.4412 17.9871 31.5378C18.0092 31.6137 17.9283 31.6343 17.9503 31.7102L17.8694 31.7309C17.7885 31.7515 17.6856 31.6963 17.5826 31.6411C17.4797 31.5859 17.4576 31.5101 17.3547 31.4549C16.9577 30.9858 16.5019 30.6133 16.1049 30.1442C15.708 29.6751 15.311 29.206 14.914 28.7369L14.8111 28.6817C14.6861 28.5507 14.5611 28.4196 14.4362 28.2885C14.3112 28.1574 14.1862 28.0264 14.0392 27.8194C13.7672 27.4814 13.5761 27.1227 13.2821 26.7089C13.091 26.3502 12.8778 25.9156 12.6867 25.557C12.4956 25.1983 12.2825 24.7637 12.0914 24.405C11.8783 23.9705 11.6431 23.4601 11.4299 23.0255C11.2829 22.8186 11.1948 22.5151 11.0477 22.3081C10.9007 22.1012 10.8346 21.8736 10.6656 21.5908C10.6656 21.5908 10.6656 21.5908 10.6435 21.5149C10.2613 20.7976 9.77619 20.025 9.47489 19.287C9.43832 18.5628 9.11499 17.7489 8.89458 16.9902C8.65214 16.1556 8.4097 15.321 8.24816 14.4658C8.11592 14.0106 8.08662 13.6105 8.03527 13.1346C8.00597 12.7346 7.97667 12.3346 8.02826 11.9139C8.05055 11.0932 8.1317 10.1759 8.33782 9.38975C8.47031 8.94839 8.6028 8.50702 8.73529 8.06566C8.88982 7.70017 9.04436 7.33467 9.27978 6.94851C9.55203 6.38993 9.94925 5.96243 10.4274 5.51425C10.7657 5.18329 11.1261 4.9282 11.4865 4.6731C11.8469 4.41801 12.2294 4.23879 12.6118 4.05956C12.9722 3.80447 13.4576 3.68045 13.8621 3.57709C14.0239 3.53575 14.1048 3.51508 14.2666 3.47374C14.3475 3.45307 14.3475 3.45307 14.4284 3.4324L14.5093 3.41173C14.5093 3.41173 14.5093 3.41173 14.5902 3.39106C15.4801 3.16368 16.3331 3.10872 17.267 3.03308C17.6936 3.0056 18.1201 2.97812 18.5687 3.0265C18.8334 3.04036 19.0172 3.07489 19.282 3.08875C19.5467 3.10261 19.7305 3.13714 19.9953 3.151C20.4438 3.19938 20.9144 3.32364 21.363 3.37203C21.5468 3.40656 21.8336 3.49629 22.0174 3.53082C22.2233 3.64122 22.4071 3.67575 22.613 3.78615C22.716 3.84135 22.8189 3.89655 23.0027 3.93108C23.1057 3.98628 23.2086 4.04148 23.3115 4.09668C23.5174 4.20707 23.7233 4.31747 23.9071 4.352C24.0101 4.4072 24.113 4.4624 24.2159 4.5176C24.3189 4.5728 24.4218 4.628 24.4438 4.70387C24.5468 4.75907 24.6497 4.81427 24.7747 4.94534C24.8776 5.00054 25.0026 5.13161 25.1055 5.18681C25.4584 5.50415 25.7893 5.74562 26.0613 6.08363C26.3333 6.42164 26.6053 6.75965 26.7964 7.11834C26.8404 7.27008 26.9654 7.40115 27.0315 7.62876C27.0977 7.85637 27.2447 8.06331 27.2888 8.21505C27.421 8.67027 27.5312 9.04962 27.6634 9.50485C27.825 10.3601 27.9645 11.1395 28.0451 12.0154C28.0304 12.2637 28.0965 12.4913 28.0817 12.7396C28.0669 12.9878 28.111 13.1396 28.0962 13.3879C28.0815 13.6361 28.0446 13.8086 28.1108 14.0362C28.0739 14.2086 28.0592 14.4569 28.0223 14.6293C27.9192 15.4707 27.816 16.312 27.6907 17.0776C27.6392 17.4982 27.5067 17.9396 27.433 18.2844C27.3005 18.7258 27.168 19.1672 27.0135 19.5327C26.8442 20.1464 26.572 20.705 26.2188 21.2843C25.8289 22.0359 25.4609 22.8634 24.9901 23.6358C24.6001 24.3874 24.2102 25.1391 23.7173 25.8355C23.7173 25.8355 23.6584 25.9321 23.5775 25.9527C22.7903 27.1319 21.9811 28.2352 21.1939 29.4144C20.9585 29.8005 20.701 30.1108 20.5465 30.4763C20.4288 30.6694 20.3111 30.8625 20.1934 31.0556C20.0757 31.2486 19.9359 31.3658 19.8182 31.5589C19.8182 31.5589 19.8182 31.5589 19.8991 31.5383L19.8402 31.6348C19.8402 31.6348 19.8402 31.6348 19.9211 31.6141C19.8034 31.8072 19.6637 31.9244 19.6268 32.0968C19.3621 32.083 19.2444 32.2761 19.1855 32.3726C19.1267 32.4691 18.9869 32.5864 18.9281 32.6829C18.8692 32.7794 18.7883 32.8001 18.7295 32.8966C18.6486 32.9173 18.6486 32.9173 18.5677 32.938C18.5897 33.0139 18.4059 32.9793 18.325 33Z" fill="#2D2E31"/>
<path d="M17.3001 16.3094C17.1163 16.2749 16.8516 16.261 16.6677 16.2265C16.4839 16.192 16.278 16.0816 16.0722 15.9712C15.8663 15.8608 15.7633 15.8056 15.5575 15.6952C15.3516 15.5848 15.2487 15.5296 15.0207 15.3433C14.7708 15.0812 14.5208 14.819 14.3518 14.5362C14.2636 14.2327 14.0946 13.9499 14.0064 13.6465C13.9182 13.343 13.808 12.9636 13.6978 12.5843C13.6317 12.3567 13.6685 12.1843 13.6833 11.936C13.7201 11.7636 13.7569 11.5912 13.7717 11.3429C13.8085 11.1705 13.9042 10.9015 13.941 10.7291C13.9778 10.5567 14.0735 10.2877 14.1912 10.0947C14.2721 10.074 14.2501 9.99812 14.331 9.97745C14.4487 9.78437 14.5664 9.59129 14.6253 9.49475C14.6841 9.39821 14.743 9.30167 14.8018 9.20513C14.9416 9.08792 15.0005 8.99138 15.0593 8.89484C15.1991 8.77763 15.3168 8.58455 15.4565 8.46734C15.5963 8.35013 15.8169 8.21225 15.9567 8.09504C16.0376 8.07437 16.1773 7.95716 16.2582 7.93648C16.3391 7.91581 16.5009 7.87447 16.5818 7.8538C16.7436 7.81246 16.9863 7.75045 17.1481 7.70911C17.3908 7.6471 17.5526 7.60576 17.8173 7.61962C17.9791 7.57828 18.2439 7.59213 18.4277 7.62666C18.7733 7.61985 19.1189 7.61304 19.5675 7.66143C19.7513 7.69596 19.9352 7.73048 20.119 7.76501C20.3028 7.79954 20.4278 7.93061 20.6337 8.04101L20.7366 8.09621C20.8396 8.15141 20.8616 8.22728 20.9425 8.20661C21.0234 8.18594 21.0454 8.26181 21.1263 8.24114C21.1263 8.24114 21.1484 8.31701 21.2293 8.29634C21.3102 8.27567 21.3322 8.35154 21.4131 8.33087C21.494 8.3102 21.5161 8.38607 21.4352 8.40674C21.3543 8.42741 21.3543 8.42741 21.2734 8.44808C21.1925 8.46875 21.0086 8.43422 20.9057 8.37902C20.8028 8.32382 20.6998 8.26862 20.516 8.23409C20.413 8.17889 20.3101 8.12369 20.1263 8.08916C20.0454 8.10983 20.0233 8.03396 19.9424 8.05463C19.8615 8.0753 19.8395 7.99944 19.7586 8.02011C19.5748 7.98558 19.4939 8.00625 19.31 7.97172C19.1482 8.01306 18.9644 7.97853 18.8026 8.01987C18.8247 8.09574 18.6408 8.06121 18.479 8.10255C18.3172 8.14389 18.1554 8.18523 17.9716 8.15071C17.7289 8.21272 17.3833 8.21953 17.1406 8.28154C17.1406 8.28154 17.1406 8.28154 17.2215 8.26087C16.9788 8.32288 16.817 8.36422 16.5964 8.5021C16.5155 8.52277 16.4346 8.54344 16.4566 8.61931C16.3757 8.63998 16.3169 8.73652 16.236 8.75719C16.0962 8.8744 16.0373 8.97095 15.8976 9.08816C15.699 9.30191 15.4415 9.6122 15.2429 9.82595C15.1252 10.019 14.9854 10.1362 14.9486 10.3086C14.8898 10.4052 14.8309 10.5017 14.772 10.5983C14.6764 10.8672 14.6396 11.0396 14.5439 11.3086C14.5071 11.481 14.4702 11.6534 14.4334 11.8258C14.3966 11.9982 14.4187 12.0741 14.4407 12.15C14.4848 12.3017 14.4259 12.3982 14.47 12.55C14.47 12.55 14.47 12.55 14.448 12.4741C14.5141 12.7017 14.4993 12.95 14.5875 13.2535C14.6536 13.4811 14.7197 13.7087 14.7858 13.9363C14.8519 14.1639 14.9181 14.3915 15.043 14.5226C15.0651 14.5985 15.1901 14.7295 15.2121 14.8054C15.2562 14.9571 15.3591 15.0123 15.4841 15.1434C15.6091 15.2745 15.734 15.4056 15.837 15.4607C15.962 15.5918 16.0869 15.7229 16.2708 15.7574C16.3957 15.8885 16.5796 15.923 16.7046 16.0541C16.8075 16.1093 16.9104 16.1645 17.0134 16.2197C17.1163 16.2749 17.1972 16.2542 17.3001 16.3094Z" fill="#2D2E31"/>
</svg>
