<svg width="36" height="36" viewBox="0 0 36 36" fill="none" xmlns="http://www.w3.org/2000/svg">
<path d="M0 18C0 8.05888 8.05888 0 18 0C27.9411 0 36 8.05888 36 18C36 27.9411 27.9411 36 18 36C8.05888 36 0 27.9411 0 18Z" fill="#E8E5DD"/>
<path d="M32.9088 19.255C32.8394 19.1275 32.6313 19.1275 32.4925 19.0638C32.4231 19.0638 32.2843 19.0001 32.2149 19.0001C31.8679 18.9364 31.521 18.8726 31.174 18.8089C30.48 18.7452 29.7861 18.6815 29.0922 18.6815C28.3982 18.6815 27.7737 18.6815 27.0797 18.6815C26.941 18.6815 26.8022 18.6815 26.6634 18.6815C26.3858 18.6177 26.1082 18.554 25.8306 18.4903C25.4837 18.4266 25.2061 18.2991 24.8591 18.2991C24.5816 18.2354 24.2346 18.2354 23.8876 18.2354C23.8876 18.0442 23.8876 17.9167 23.8876 17.7256C23.8876 17.4069 23.8876 17.152 23.8876 16.8334C23.8876 16.706 23.8876 16.5785 23.8876 16.5148C23.8876 16.3873 23.8876 16.2599 23.8876 16.1324C23.8876 16.0687 23.8876 16.005 23.8876 16.005C23.8876 16.005 23.8876 16.005 23.8876 15.9412C23.8876 15.8775 23.8876 15.8138 23.8876 15.6863C23.8876 15.6226 23.8876 15.5589 23.8876 15.4314C23.8876 14.8579 23.8182 14.2844 23.7488 13.7108C23.6794 13.1373 23.4712 12.5638 23.4019 11.9265C23.3325 11.2892 23.2631 10.652 23.1937 10.0785C23.1243 9.4412 23.0549 8.80394 22.9855 8.23041C22.9161 7.91178 22.8467 7.59315 22.7773 7.27452C22.7079 7.08334 22.6385 6.95589 22.5691 6.76471C22.4997 6.63726 22.4303 6.44608 22.2915 6.31863C22.2222 6.2549 22.1528 6.19118 22.0834 6.12745C21.8752 6.06373 21.7364 6 21.5976 6C21.3894 6 21.1812 6 21.0425 6.06373C20.9037 6.06373 20.6955 6.12745 20.5567 6.12745C20.2097 6.19118 19.8628 6.2549 19.5852 6.31863C19.2382 6.38236 18.8912 6.44608 18.5443 6.50981C18.1973 6.57353 17.8503 6.70098 17.5034 6.82844C17.1564 6.95589 16.8094 7.01961 16.5318 7.14707C15.8379 7.33824 15.2134 7.59315 14.5194 7.84805C13.8949 8.03923 13.2009 8.29413 12.5764 8.48531C11.8824 8.74021 11.2579 8.99512 10.6333 9.25002C10.0088 9.50492 9.38425 9.75983 8.75971 10.0147C8.41274 10.1422 8.06577 10.2696 7.7188 10.3971C7.37183 10.3971 7.02486 10.5245 6.74728 10.652C6.05334 10.9069 5.42879 11.1618 4.73485 11.4167C4.38788 11.6079 4.1103 11.7353 3.76333 11.9265C3.62455 12.054 3.41636 12.1177 3.27758 12.3089C3.20818 12.3726 3.13879 12.4363 3.06939 12.5638C3 12.6275 3 12.6912 3 12.8187C3 12.8824 3 13.0098 3.06939 13.0736C3.06939 13.1373 3.06939 13.201 3.13879 13.3285C3.20818 13.5834 3.34697 13.902 3.41636 14.1569C3.48576 14.4755 3.62455 14.7942 3.69394 15.0491C3.83273 15.6863 3.97152 16.2599 4.1797 16.8971C4.24909 17.2158 4.31849 17.5981 4.45728 17.9167C4.52667 18.2354 4.59606 18.4903 4.73485 18.8089C4.87364 19.4462 5.08182 20.0834 5.22061 20.7207C5.29 20.9119 5.29 21.103 5.3594 21.2942C5.3594 21.3579 5.3594 21.4217 5.3594 21.4217C5.3594 21.4854 5.3594 21.4854 5.3594 21.5491C5.3594 21.6128 5.3594 21.6766 5.42879 21.7403C5.42879 21.804 5.42879 21.8677 5.49819 21.9315V21.9952V22.0589C5.49819 22.1227 5.49819 22.1227 5.49819 22.1864C5.49819 22.2501 5.49819 22.2501 5.49819 22.3138C5.49819 22.3776 5.49819 22.3776 5.49819 22.4413C5.56758 22.7599 5.63697 23.1423 5.77576 23.4609C5.77576 23.5246 5.84516 23.6521 5.84516 23.7158C5.77576 23.7158 5.84516 23.8433 5.91455 23.9707C5.98394 24.0982 6.05334 24.2893 6.19213 24.3531C6.26152 24.4168 6.40031 24.4168 6.4697 24.4805C6.5391 24.4805 6.60849 24.4805 6.60849 24.4168C6.60849 24.3531 6.5391 24.2893 6.5391 24.2893H6.4697C6.4697 24.2893 6.4697 24.2893 6.40031 24.2893C6.40031 24.2893 6.40031 24.2893 6.33091 24.2256L6.26152 24.1619C6.26152 24.0982 6.19213 24.0344 6.19213 23.9707C6.12273 23.8433 6.12273 23.6521 6.05334 23.4609C5.91455 22.8236 5.84516 22.1864 5.70637 21.5491C5.63697 21.2305 5.56758 20.9756 5.56758 20.657C5.49819 20.3383 5.42879 20.0197 5.3594 19.7011C5.29 19.255 5.15122 18.7452 5.08182 18.2991C5.08182 18.1716 5.01243 18.0442 5.01243 17.9167C4.94303 17.7256 4.94303 17.5344 4.87364 17.3432C4.87364 17.3432 4.87364 17.3432 4.87364 17.4069C4.87364 17.2795 4.80425 17.0883 4.80425 16.9609C4.52667 16.1324 4.38788 15.5589 4.24909 14.9216C4.1797 14.603 4.1103 14.2844 4.1103 13.9657C4.04091 13.7108 4.04091 13.4559 3.97152 13.1373C3.97152 13.0736 3.97152 12.9461 3.97152 12.8824C3.97152 12.8824 3.97152 12.8824 4.04091 12.8187C4.1103 12.7549 4.1797 12.6912 4.31849 12.6275C4.45728 12.5638 4.59606 12.4363 4.73485 12.3726C4.80425 12.3726 4.94303 12.3089 5.08182 12.2451C5.22061 12.1814 5.3594 12.1177 5.49819 12.054C5.63697 11.9902 5.77576 11.9902 5.91455 11.9265C6.19213 11.7991 6.4697 11.6716 6.74728 11.6079C7.30243 11.4167 7.85758 11.2255 8.41274 10.9706C9.10668 10.7157 9.73122 10.4608 10.4252 10.2059C11.0497 9.95101 11.7437 9.6961 12.3682 9.50492C12.9927 9.25002 13.6173 9.05884 14.3112 8.86767C14.9358 8.67649 15.6297 8.42158 16.2543 8.23041C16.6012 8.10295 16.9482 8.03923 17.2258 7.91178H17.1564C17.2258 7.91178 17.2952 7.84805 17.3646 7.84805H17.434H17.3646C17.434 7.84805 17.5034 7.78433 17.5728 7.78433C17.9197 7.65687 18.2667 7.59315 18.6137 7.4657C18.9606 7.40197 19.3076 7.33824 19.6546 7.27452C20.0015 7.21079 20.2791 7.14707 20.6261 7.14707C20.9037 7.08334 21.1812 7.08334 21.4588 7.01961C21.5282 7.08334 21.5282 7.21079 21.5976 7.27452C21.667 7.4657 21.7364 7.59315 21.7364 7.78433C21.7364 7.84805 21.7364 7.91178 21.8058 7.9755V7.91178C21.8752 8.29413 21.9446 8.67649 22.014 9.05884C22.0834 9.4412 22.0834 9.82355 22.1528 10.2059C22.1528 10.5245 22.2222 10.8432 22.2222 11.1618C22.2915 11.4804 22.2915 11.7991 22.3609 12.1177C22.4303 12.4363 22.4997 12.7549 22.5691 13.0098C22.6385 13.3285 22.7079 13.5834 22.7773 13.902C22.9161 14.4755 22.9855 14.9854 22.9855 15.5589C22.9855 15.8775 23.0549 16.1324 23.0549 16.451C23.1243 17.0883 23.0549 17.6618 23.1243 18.2991C23.0549 18.3628 22.9855 18.4266 22.9161 18.4266C22.7079 18.554 22.5691 18.6177 22.3609 18.7452C22.3609 18.6815 22.4303 18.6177 22.4303 18.554C22.4997 18.3628 22.4997 18.1716 22.4997 17.9167C22.4997 17.7256 22.4997 17.5344 22.4303 17.3432C22.3609 16.9609 22.2915 16.6422 22.2915 16.2599C22.2915 16.005 22.2222 15.7501 22.2222 15.5589C22.2222 15.3677 22.1528 15.1128 22.1528 14.9216C22.1528 14.6667 22.0834 14.4755 22.014 14.2206C21.9446 13.9657 21.8752 13.7108 21.8058 13.3922C21.667 12.8824 21.5282 12.3726 21.3894 11.9265C21.32 11.6716 21.2506 11.4167 21.1812 11.2255C21.1118 10.9706 21.0425 10.7794 20.9731 10.5245C20.9731 10.5245 20.9731 10.5245 20.9731 10.4608C20.9037 10.0785 20.8343 9.75983 20.7649 9.37747C20.7649 9.1863 20.6955 9.05884 20.6261 8.86767C20.6261 8.74021 20.5567 8.67649 20.5567 8.54904C20.5567 8.48531 20.4873 8.35786 20.4873 8.29413C20.4179 8.16668 20.3485 8.03923 20.2097 7.9755C20.1403 7.9755 20.0709 7.91178 20.0015 7.91178C19.8628 7.91178 19.6546 7.91178 19.5158 7.9755C19.3076 8.03923 19.03 8.10295 18.8218 8.23041C18.6137 8.29413 18.3361 8.42158 18.1279 8.48531C17.9197 8.54904 17.6421 8.67649 17.434 8.74021C17.2952 8.80394 17.087 8.86767 16.9482 8.86767C16.9482 8.86767 16.9482 8.86767 17.0176 8.86767C16.8788 8.93139 16.74 8.93139 16.6012 8.99512C16.6012 8.99512 16.6012 8.99512 16.6706 8.99512C16.6012 8.99512 16.6012 8.99512 16.5318 9.05884C16.2543 9.12257 15.9767 9.25002 15.6991 9.31375C15.4215 9.37747 15.144 9.50492 14.8664 9.56865C14.5888 9.63238 14.3806 9.6961 14.103 9.75983C13.6867 9.82355 13.4091 9.88728 13.2009 10.0147H13.1315H13.0621C12.4376 10.2059 11.813 10.4608 11.1885 10.652C10.9109 10.7157 10.7027 10.8432 10.4252 10.9069C10.1476 11.0981 9.87001 11.1618 9.66183 11.2255C9.38425 11.2892 9.17607 11.4167 8.96789 11.5442C8.69031 11.6716 8.41274 11.7991 8.13516 11.9265C7.99637 11.9902 7.85758 12.054 7.7188 12.1177H7.6494C7.23304 12.3089 6.81667 12.4363 6.40031 12.6275C6.19213 12.6912 5.98394 12.8187 5.77576 12.8824C5.56758 12.9461 5.3594 13.0736 5.15122 13.1373C4.94303 13.2648 4.80425 13.4559 4.73485 13.6471C4.66546 13.7746 4.66546 13.902 4.66546 14.0295C4.66546 14.1569 4.73485 14.2844 4.73485 14.4118C4.80425 14.6667 4.87364 14.8579 4.87364 15.1128C4.94303 15.6226 5.08182 16.0687 5.15122 16.5785C5.22061 16.7697 5.29 17.0246 5.3594 17.2158C5.42879 17.4707 5.49819 17.7256 5.56758 17.9805C5.70637 18.4903 5.77576 19.0001 5.91455 19.4462C5.98394 19.7011 6.05334 19.956 6.12273 20.2109C6.19213 20.4658 6.26152 20.7207 6.33091 20.9756C6.4697 21.4217 6.67789 21.9315 6.88607 22.3776C6.95546 22.6325 7.02486 22.8236 7.09425 23.0785C7.16364 23.3334 7.23304 23.5246 7.30243 23.7795C7.44122 24.0982 7.51061 24.4168 7.6494 24.6717C7.30243 24.7991 7.02486 24.8629 6.67789 24.9266C6.60849 24.9266 6.5391 24.9903 6.4697 24.9903C6.4697 24.9903 6.4697 24.9903 6.40031 24.9903C6.33091 24.9903 6.26152 24.9903 6.19213 24.9903C6.12273 24.9903 5.98394 24.9903 5.91455 25.054C5.84516 25.1178 5.77576 25.1815 5.77576 25.3089C5.70637 25.4364 5.70637 25.5639 5.70637 25.6913C5.70637 25.8825 5.70637 26.0099 5.70637 26.2011C5.70637 26.3923 5.77576 26.6472 5.84516 26.8384C5.91455 26.9021 5.91455 27.0295 6.05334 27.0295C6.12273 27.0933 6.19213 27.0933 6.26152 27.0933C6.40031 27.0933 6.4697 27.157 6.60849 27.157C7.09425 27.2207 7.51061 27.2207 7.92698 27.3482C8.20455 27.4119 8.48213 27.4756 8.75971 27.5394C8.96789 27.6668 9.24547 27.7305 9.45365 27.858C9.52304 27.9217 9.66183 27.9217 9.73122 27.9854C9.80062 27.9854 9.80062 28.0492 9.87001 28.0492C10.0088 28.1129 10.1476 28.1766 10.3558 28.2403C10.4946 28.3041 10.7027 28.3041 10.8415 28.3678C11.1885 28.4315 11.5355 28.4315 11.8824 28.4952C12.2294 28.4952 12.5764 28.4952 12.854 28.559C13.1315 28.559 13.4785 28.559 13.7561 28.559C13.9643 28.559 14.1724 28.6227 14.3806 28.6227C14.8664 28.6864 15.2827 28.8776 15.6991 28.9413C15.9073 29.0051 16.1155 29.0688 16.3237 29.0688C16.5318 29.0688 16.74 29.1325 16.9482 29.1962C17.2258 29.26 17.5034 29.26 17.7809 29.3237C17.8503 29.3237 17.9197 29.3237 17.9891 29.3237C18.1279 29.3237 18.1973 29.3237 18.2667 29.26C18.4749 29.1325 18.5443 28.9413 18.5443 28.7501C18.8218 28.6227 19.03 28.4952 19.2382 28.3678C19.7934 28.0492 20.4179 27.6668 20.9731 27.3482C21.5282 27.0295 22.1528 26.7109 22.7079 26.3923C23.3325 26.0737 23.8876 25.755 24.5122 25.5001C25.1367 25.1815 25.7613 24.8629 26.3858 24.608C26.3858 24.608 26.3858 24.608 26.4552 24.608C26.4552 24.608 26.4552 24.608 26.3858 24.608H26.4552H26.5246C26.5246 24.608 26.5246 24.608 26.4552 24.608C26.8716 24.4168 27.2185 24.2256 27.6349 24.0982C28.0513 23.907 28.4676 23.7795 28.8146 23.5883C29.0922 23.4609 29.3697 23.3334 29.5779 23.206C29.8555 23.0785 30.2025 22.8874 30.48 22.6962C30.7576 22.505 31.0352 22.3138 31.3128 22.1864C31.5904 21.9952 31.7985 21.8677 32.0761 21.6766C32.2149 21.6128 32.2843 21.5491 32.4231 21.4854C32.5619 21.3579 32.6313 21.2305 32.7007 21.103C32.7007 20.9756 32.7007 20.8481 32.7007 20.7207C32.7007 20.5932 32.7007 20.4021 32.7007 20.2746C32.7007 20.1472 32.7007 20.0197 32.7007 19.956C32.7007 19.956 32.7701 19.956 32.7701 19.8922C33.0476 19.5736 33.0476 19.3824 32.9088 19.255ZM26.1082 19.8922C26.1082 19.8922 26.1776 19.8922 26.1776 19.8285C26.1082 19.8922 26.0388 19.956 25.9694 20.0197C25.5531 20.3383 25.0673 20.657 24.6509 20.9756C24.0958 21.2942 23.4712 21.6128 22.8467 21.8677C22.2222 22.1227 21.5976 22.4413 21.0425 22.7599C20.5567 23.0785 20.0015 23.3972 19.5158 23.7158C19.3076 23.8433 19.03 23.9707 18.8218 24.0982C18.6137 24.2256 18.4055 24.3531 18.1973 24.5442C17.9197 24.7354 17.6421 24.8629 17.3646 25.054C17.087 25.2452 16.74 25.3727 16.4624 25.5639C16.3237 25.6913 16.1155 25.755 15.9767 25.8825C15.9073 25.9462 15.8379 26.0099 15.7685 26.0737L15.6991 26.1374C15.3521 26.1374 15.0052 26.1374 14.6582 26.0737C14.5888 26.0737 14.45 26.0737 14.3806 26.0737C13.7561 26.0099 13.1315 25.9462 12.507 25.8825C11.813 25.8188 11.0497 25.755 10.3558 25.755H10.4252C9.87001 25.6913 9.38425 25.6913 8.89849 25.5639C8.89849 25.5639 8.89849 25.5639 8.8291 25.5639C8.8291 25.5639 8.8291 25.5639 8.75971 25.5639C8.55152 25.5001 8.34334 25.4364 8.13516 25.3089C8.06577 25.2452 7.92698 25.2452 7.85758 25.1815C8.27395 25.054 8.69031 24.9266 9.10668 24.7354C9.73122 24.5442 10.3558 24.2893 10.9803 24.0982C11.6049 23.907 12.2294 23.6521 12.854 23.3972C13.5479 23.1423 14.1724 22.9511 14.8664 22.6962C15.4909 22.4413 16.1849 22.1227 16.8094 21.8677C16.8094 21.8677 16.8094 21.8677 16.74 21.8677C17.5034 21.4854 18.2667 21.103 19.03 20.7844C19.0994 20.7207 19.2382 20.7207 19.3076 20.657C19.9321 20.4021 20.5567 20.1471 21.1812 19.8922C21.3894 19.8285 21.5976 19.7011 21.8058 19.6373C21.667 19.7011 21.5976 19.7648 21.4588 19.8285C21.1118 20.0197 20.7649 20.2746 20.3485 20.4658C19.724 20.7844 19.0994 21.103 18.4749 21.4217C18.1973 21.5491 17.8503 21.7403 17.5728 21.8677C17.2952 22.0589 17.0176 22.1864 16.6706 22.3776C16.6012 22.4413 16.4624 22.505 16.3931 22.5687C16.3237 22.6325 16.2543 22.6962 16.1155 22.6962C16.0461 22.7599 15.9767 22.7599 15.9073 22.8236C15.6991 22.9511 15.4215 23.0785 15.2134 23.2697C15.0052 23.3972 14.797 23.5246 14.6582 23.6521C14.5888 23.7158 14.5194 23.8433 14.45 23.907C14.3806 23.9707 14.3806 24.0344 14.3112 24.1619C14.3112 24.2256 14.3806 24.3531 14.45 24.4168C14.5194 24.4805 14.5888 24.4805 14.6582 24.4805C14.7276 24.4805 14.797 24.4805 14.797 24.4805C14.9358 24.4805 15.0746 24.4805 15.2134 24.4168C15.3521 24.3531 15.4909 24.3531 15.6991 24.2893C15.7685 24.2893 15.8379 24.2256 15.9073 24.2256C16.2543 24.0982 16.5318 23.9707 16.8094 23.8433C17.434 23.5883 18.0585 23.206 18.6137 22.8874C19.2382 22.5687 19.8628 22.2501 20.4873 21.9315C20.9037 21.7403 21.32 21.6128 21.7364 21.4217C22.1528 21.2305 22.5691 21.103 22.9855 20.9119C23.2631 20.7844 23.61 20.657 23.8876 20.5295C24.2346 20.4021 24.5122 20.2109 24.8591 20.0834C25.4837 20.1472 25.7612 20.0197 26.1082 19.8922ZM7.78819 24.608V24.5442C7.78819 24.5442 7.78819 24.5442 7.78819 24.608ZM23.957 18.4266H24.0264C24.304 18.4266 24.6509 18.4903 24.9285 18.554C24.9979 18.554 25.0673 18.554 25.1367 18.6177C24.8591 18.6177 24.5122 18.6177 24.2346 18.6177C24.1652 18.6177 24.0958 18.6177 23.957 18.6177C23.957 18.6177 23.957 18.6177 23.8876 18.6177C23.8876 18.554 23.957 18.4903 23.957 18.4266ZM23.3325 19.5736C23.4019 19.5099 23.5406 19.4462 23.61 19.3824C23.6794 19.3824 23.7488 19.3824 23.8182 19.3824C23.8876 19.3824 24.0264 19.3824 24.0958 19.3824C24.304 19.3824 24.4428 19.3824 24.6509 19.3824C24.9979 19.3824 25.3449 19.3824 25.6919 19.3824C25.5531 19.4462 25.4837 19.5099 25.3449 19.5099C25.0673 19.6373 24.7203 19.7648 24.4428 19.8922C24.1652 20.0197 23.8182 20.1472 23.5406 20.2746C23.2631 20.4021 22.9161 20.5295 22.6385 20.657C22.2915 20.7844 22.014 20.9119 21.667 21.0393C21.32 21.1668 21.0425 21.2942 20.6955 21.4217C20.0709 21.7403 19.4464 22.0589 18.8912 22.4413C18.2667 22.7599 17.7115 23.0785 17.087 23.3972C17.0176 23.4609 16.8788 23.4609 16.8094 23.5246C16.6706 23.5883 16.5318 23.6521 16.3931 23.7158C16.3237 23.7795 16.2543 23.7795 16.1155 23.8433C16.0461 23.8433 15.9767 23.907 15.9073 23.907C15.7685 23.9707 15.5603 24.0344 15.3521 24.0344C15.6297 23.8433 15.8379 23.7158 16.1155 23.5246C16.1155 23.5246 16.1155 23.5246 16.1849 23.5246C16.1849 23.5246 16.2543 23.5246 16.2543 23.4609C16.4624 23.3334 16.6706 23.206 16.8788 23.0785C17.1564 22.8874 17.434 22.7599 17.7115 22.5687C17.9891 22.4413 18.1973 22.2501 18.4749 22.1227C19.03 21.8677 19.5852 21.5491 20.2097 21.2942C20.8343 20.9756 21.3894 20.657 22.014 20.3383C22.2915 20.1472 22.5691 19.956 22.8467 19.7648C23.0549 19.7648 23.1937 19.6373 23.3325 19.5736ZM7.23304 20.9119C7.16364 20.5932 7.02486 20.2746 6.95546 19.956C6.81667 19.4462 6.67789 19.0001 6.5391 18.4903C6.40031 17.9805 6.33091 17.4707 6.19213 17.0246C6.05334 16.5785 5.98394 16.1324 5.84516 15.6863C5.84516 15.4314 5.77576 15.1765 5.70637 14.9216C5.63697 14.6667 5.56758 14.4755 5.49819 14.2206C5.49819 14.1569 5.42879 14.0295 5.42879 13.9657C5.42879 13.9657 5.42879 13.9657 5.42879 13.902C5.42879 13.8383 5.42879 13.8383 5.42879 13.7746V13.7108C5.42879 13.7108 5.42879 13.7108 5.49819 13.6471L5.56758 13.5834C5.70637 13.5197 5.91455 13.3922 6.05334 13.3285C6.19213 13.2648 6.33091 13.201 6.4697 13.1373C6.60849 13.0736 6.74728 13.0098 6.88607 12.9461C7.02486 12.8824 7.23304 12.8187 7.37183 12.7549C7.51061 12.6912 7.6494 12.6275 7.85758 12.5638C7.92698 12.5638 7.92698 12.5 7.99637 12.5C7.99637 12.5 7.99637 12.5 8.06577 12.5C8.55152 12.3089 8.96789 12.1177 9.38425 11.9265C9.80062 11.7353 10.2864 11.6079 10.7027 11.4167C11.1885 11.2255 11.7437 11.0343 12.2294 10.9069C12.7152 10.7157 13.2009 10.5883 13.6867 10.3971C14.0337 10.2696 14.3112 10.2059 14.6582 10.1422C15.0052 10.0147 15.3521 9.95101 15.7685 9.82355C15.7685 9.82355 15.7685 9.82355 15.6991 9.82355C15.8379 9.75983 16.0461 9.6961 16.1849 9.63238C16.74 9.4412 17.2258 9.31375 17.7809 9.12257C17.9891 9.05884 18.2667 8.93139 18.4749 8.86767C18.6831 8.80394 18.8912 8.67649 19.1688 8.61276C19.2382 8.61276 19.377 8.54904 19.4464 8.54904C19.5158 8.54904 19.5158 8.54904 19.5852 8.54904C19.6546 8.54904 19.6546 8.54904 19.6546 8.54904C19.6546 8.54904 19.6546 8.54904 19.6546 8.61276C19.6546 8.61276 19.6546 8.61276 19.6546 8.67649C19.724 8.93139 19.724 9.12257 19.7934 9.37747C19.8628 9.63238 19.8628 9.88728 19.9321 10.1422C20.0015 10.3971 20.0015 10.5883 20.0709 10.8432C20.1403 11.0981 20.1403 11.353 20.2097 11.6079C20.2791 12.054 20.4179 12.5 20.5567 12.9461C20.6955 13.3922 20.8343 13.8383 20.9037 14.2844C20.9731 14.7304 21.0425 15.2403 21.1812 15.6863C21.2506 15.8775 21.32 16.1324 21.32 16.3236C21.3894 16.5148 21.4588 16.7697 21.5282 16.9609C21.667 17.3432 21.8058 17.7893 21.9446 18.1716C21.9446 18.2991 21.9446 18.3628 22.014 18.4903C22.014 18.554 22.014 18.6815 22.014 18.7452C22.014 18.8089 22.014 18.8089 22.014 18.8726V18.9364C21.8058 19.0638 21.5282 19.1913 21.32 19.255C21.2506 19.3187 21.1118 19.3187 21.0425 19.3824C20.9037 19.4462 20.8343 19.4462 20.6955 19.5099C20.3485 19.6373 20.0709 19.7648 19.724 19.8922C19.377 20.0197 19.0994 20.1472 18.7525 20.2746C18.4055 20.4021 18.1279 20.5932 17.7809 20.7207C17.5034 20.8481 17.1564 21.0393 16.8788 21.1668C16.4624 21.3579 16.0461 21.5491 15.5603 21.7403C15.4909 21.7403 15.4215 21.804 15.3521 21.804C15.2134 21.8677 15.0052 21.8677 14.8664 21.9315C14.8664 21.8677 14.8664 21.8677 14.8664 21.804C14.8664 21.6766 14.8664 21.5491 14.797 21.3579C14.7276 21.103 14.7276 20.7844 14.6582 20.5295C14.5888 20.2746 14.5194 20.0197 14.45 19.7648C14.3806 19.5736 14.3112 19.3824 14.1724 19.1913C14.103 19.0001 13.9643 18.8726 13.7561 18.8089H13.6867H13.7561C13.8949 18.8726 14.0337 19.0001 14.2418 19.0638C14.3112 19.1275 14.45 19.1913 14.5194 19.255C14.5888 19.3187 14.7276 19.3824 14.797 19.4462C14.8664 19.5099 14.8664 19.5099 14.9358 19.5736C15.0052 19.6373 15.144 19.6373 15.2134 19.6373C15.3521 19.6373 15.4909 19.5099 15.6297 19.4462C15.7685 19.3187 15.9073 19.1913 16.0461 19.0638C16.2543 18.8089 16.4624 18.4903 16.74 18.2354C16.9482 17.9805 17.1564 17.6618 17.2952 17.4069C17.5034 17.152 17.6421 16.8334 17.7809 16.5785C17.9197 16.2599 18.1279 16.005 18.2667 15.6863C18.4055 15.3677 18.5443 15.0491 18.6831 14.7304C18.6831 14.7304 18.6831 14.7304 18.6831 14.6667C18.8912 14.1569 19.03 13.6471 19.1688 13.0736C19.1688 12.9461 19.2382 12.8187 19.2382 12.6912C19.2382 12.5638 19.2382 12.4363 19.2382 12.3726C19.2382 12.2451 19.2382 12.1177 19.2382 12.054C19.2382 11.9265 19.1688 11.8628 19.1688 11.7353C19.0994 11.6079 19.0994 11.5442 19.03 11.4167C18.9606 11.353 18.8218 11.2892 18.7525 11.2255C18.5443 11.1618 18.4055 11.1618 18.1973 11.1618C18.0585 11.1618 17.8503 11.2255 17.7115 11.2255C17.5034 11.2892 17.3646 11.2892 17.1564 11.353C16.9482 11.4167 16.74 11.4804 16.6012 11.6079C16.4624 11.7353 16.3237 11.7991 16.1849 11.9265C15.9073 12.1814 15.6991 12.4363 15.4909 12.6912C15.2827 12.9461 15.0052 13.2648 14.797 13.5834C14.5888 13.8383 14.3806 14.1569 14.2418 14.4118C14.1031 14.6667 13.8949 14.9216 13.7561 15.1765C13.6173 15.3677 13.4785 15.6226 13.3397 15.8138C13.1315 15.6863 12.9234 15.4952 12.7152 15.3677C12.4376 15.1765 12.16 14.9854 11.8824 14.8579C11.7437 14.7942 11.6049 14.6667 11.4661 14.603C11.2579 14.4755 10.9803 14.3481 10.7721 14.2844C10.4946 14.2206 10.217 14.0932 9.93941 14.1569C9.80062 14.1569 9.66183 14.1569 9.52304 14.2206C9.38425 14.2206 9.17607 14.2844 9.03728 14.3481C8.75971 14.4755 8.62092 14.6667 8.48213 14.9216C8.41274 15.1765 8.34334 15.3677 8.41274 15.6226C8.48213 15.9412 8.62092 16.2599 8.8291 16.5785C9.03728 16.8334 9.24546 17.0883 9.52304 17.3432C9.66183 17.4707 9.80062 17.5981 9.93941 17.7256C10.0782 17.853 10.217 17.9167 10.3558 17.9805C10.6333 18.1716 10.9109 18.2991 11.2579 18.4266C11.3967 18.4903 11.5355 18.554 11.7437 18.6177C11.8824 18.6815 12.0212 18.6815 12.2294 18.7452C12.507 18.8089 12.854 18.8726 13.1315 18.9364C13.2703 18.9364 13.4091 19.0001 13.5479 19.0001C13.6867 19.0001 13.7561 19.0638 13.8949 19.0638C13.8949 19.0638 13.8949 19.0638 13.9643 19.0638C13.9643 19.0638 13.9643 19.0638 14.0337 19.1275L14.103 19.1913C14.103 19.255 14.1724 19.255 14.1724 19.3187C14.2418 19.4462 14.3112 19.5736 14.3112 19.7011C14.3806 19.956 14.45 20.1472 14.5194 20.4021C14.5888 20.657 14.5888 20.8481 14.6582 21.103C14.7276 21.3579 14.7276 21.6128 14.7276 21.8677C14.7276 21.9315 14.7276 21.9952 14.7276 22.1227V22.1864C14.7276 22.1864 14.6582 22.1864 14.6582 22.2501V22.3138C14.2418 22.4413 13.8255 22.6325 13.4091 22.7599C12.7846 23.0148 12.0906 23.206 11.4661 23.4609C11.1885 23.5883 10.8415 23.6521 10.564 23.7795C10.2864 23.907 9.93941 23.9707 9.66183 24.0982C9.17607 24.2893 8.69031 24.4805 8.20455 24.608C8.20455 24.608 8.20455 24.608 8.20455 24.5442C8.13516 24.4168 8.06577 24.3531 7.99637 24.2256C7.92698 24.0982 7.85758 23.9707 7.85758 23.8433C7.85758 23.7795 7.85758 23.7158 7.78819 23.7158C7.78819 23.3972 7.78819 23.1423 7.7188 22.8236C7.7188 22.5687 7.6494 22.3138 7.58001 22.0589C7.44122 21.5491 7.37183 21.2305 7.23304 20.9119ZM16.3237 13.201C16.4624 13.0736 16.5318 12.9461 16.6706 12.8187C16.74 12.7549 16.8094 12.6912 16.8788 12.6275C16.6706 13.0736 16.4624 13.5197 16.2543 13.9657C16.2543 13.9657 16.2543 14.0295 16.1849 14.0295C16.1849 13.9657 16.2543 13.9657 16.2543 13.902C16.3237 13.8383 16.3237 13.7746 16.3931 13.6471C16.3931 13.5834 16.4624 13.5197 16.4624 13.5197C16.4624 13.4559 16.4624 13.4559 16.4624 13.3922C16.4624 13.3285 16.3931 13.2648 16.3237 13.201ZM16.3931 16.451C16.74 15.8775 17.087 15.2403 17.434 14.603C17.5034 14.4755 17.5728 14.3481 17.6421 14.2206C17.7115 14.1569 17.7115 14.0295 17.7809 13.9657C17.7809 13.9657 17.7809 13.9657 17.7809 14.0295C17.8503 13.9657 17.8503 13.8383 17.9197 13.7746V13.7108V13.6471C17.9197 13.6471 17.9197 13.6471 17.9197 13.5834C17.9197 13.5834 17.9197 13.5834 17.9197 13.5197V13.4559C17.8503 13.6471 17.7809 13.902 17.7115 14.0932C17.7115 14.0932 17.7115 14.0932 17.7115 14.1569C17.7115 14.2206 17.6421 14.3481 17.6421 14.4118C17.5034 14.7942 17.2952 15.2403 17.087 15.6226C17.087 15.6226 17.087 15.6226 17.087 15.6863C17.087 15.7501 17.0176 15.8138 17.0176 15.8775C17.0176 15.8775 17.0176 15.8775 17.0176 15.9412C16.8788 16.1961 16.6706 16.451 16.5318 16.7697C16.3931 17.0246 16.1849 17.2795 16.0461 17.5344C15.9767 17.5981 15.9767 17.6618 15.9073 17.7256C15.9073 17.7256 15.9073 17.6618 15.9767 17.6618C15.7685 17.9167 15.5603 18.1716 15.3521 18.4266C15.2134 18.554 15.144 18.6815 15.0052 18.8089C15.0052 18.8089 15.0052 18.8089 14.9358 18.8726C14.9358 18.8726 14.8664 18.8726 14.8664 18.8089C14.9358 18.7452 14.9358 18.6815 15.0052 18.6177C15.0746 18.4903 15.144 18.3628 15.2134 18.2991C15.6991 17.5344 16.0461 17.0246 16.3931 16.451ZM17.5728 12.5638C17.6421 12.4363 17.7115 12.3089 17.7809 12.1814C17.8503 12.1814 17.9197 12.1814 17.9891 12.1177C18.1279 12.1177 18.2667 12.054 18.3361 12.054C18.3361 12.1177 18.3361 12.2451 18.3361 12.3089C18.2667 12.2451 18.1973 12.2451 18.1279 12.2451C17.9891 12.2451 17.7809 12.3726 17.7115 12.4363C17.6421 12.5 17.5728 12.5638 17.5728 12.5638ZM14.8664 15.3677C14.8664 15.3677 14.8664 15.4314 14.8664 15.3677C14.8664 15.4314 14.8664 15.4314 14.8664 15.3677C14.797 15.4952 14.797 15.5589 14.797 15.6863C14.7276 15.9412 14.6582 16.1324 14.5194 16.3873C14.45 16.451 14.45 16.5785 14.3806 16.6422C14.3112 16.5785 14.3112 16.5785 14.2418 16.5148C14.1724 16.451 14.1724 16.451 14.103 16.3873C14.103 16.3873 14.103 16.3873 14.103 16.3236C14.3112 16.0687 14.45 15.7501 14.6582 15.4314C14.797 15.2403 14.9358 14.9854 15.0746 14.7942C15.0052 15.0491 14.9358 15.2403 14.8664 15.3677ZM14.9358 18.1079C14.8664 18.2354 14.797 18.3628 14.7276 18.4903C14.5888 18.4266 14.5194 18.3628 14.3806 18.2991C14.45 18.2354 14.5194 18.1716 14.5888 18.1079C14.6582 18.1079 14.6582 18.1079 14.7276 18.1079C14.797 18.1716 14.8664 18.1716 14.9358 18.1079ZM12.507 18.3628C12.2988 18.2991 12.0906 18.2354 11.8824 18.1079C11.7437 18.0442 11.6049 17.9805 11.4661 17.853C11.2579 17.7256 10.9803 17.5344 10.7721 17.3432C10.7721 17.3432 10.7721 17.3432 10.7027 17.2795C10.4946 17.0883 10.2864 16.9609 10.1476 16.7697C10.0088 16.6422 9.93941 16.5148 9.80062 16.3873C9.73122 16.2599 9.66183 16.1324 9.52304 16.005C9.45365 15.9412 9.45365 15.8138 9.38425 15.6863C9.38425 15.6226 9.31486 15.4952 9.31486 15.4314C9.31486 15.3677 9.31486 15.304 9.31486 15.304C9.38425 15.4314 9.52304 15.5589 9.66183 15.6226L9.73122 15.6863C9.66183 15.6863 9.66183 15.7501 9.59244 15.7501C9.52304 15.8138 9.52304 15.9412 9.59244 16.005C9.66183 16.0687 9.73122 16.1324 9.80062 16.1961C9.87001 16.2599 9.93941 16.3236 10.0088 16.3236C10.1476 16.3873 10.2864 16.5148 10.4946 16.5785C10.564 16.5785 10.564 16.6422 10.6333 16.6422C10.7721 16.706 10.9109 16.8334 11.1191 16.9609C11.6743 17.2795 12.16 17.6618 12.7152 17.9805C12.9927 18.1716 13.2703 18.2991 13.5479 18.4903C13.5479 18.4903 13.5479 18.554 13.6173 18.554L13.6867 18.6177H13.6173C13.4785 18.6177 13.4091 18.554 13.2703 18.554C12.9927 18.4903 12.7152 18.4265 12.507 18.3628ZM11.3967 16.1324C11.5355 16.1961 11.6049 16.1961 11.7437 16.2599C11.8824 16.3236 11.9518 16.3236 12.0906 16.3873C12.2294 16.451 12.2988 16.451 12.4376 16.5148C12.6458 16.6422 12.854 16.706 13.0621 16.8334C13.2703 16.9609 13.4091 17.0883 13.5479 17.2158H13.4785C13.4091 17.2158 13.3397 17.2158 13.2703 17.2158C13.2009 17.2158 13.2009 17.2158 13.1315 17.152C12.9927 17.0883 12.9234 17.0883 12.7846 17.0246C12.507 16.8971 12.2294 16.7697 12.0212 16.5785C11.8824 16.5148 11.7437 16.3873 11.6743 16.3236C11.6049 16.2599 11.5355 16.1961 11.3967 16.1324ZM18.1973 27.0295V27.0933C18.1279 27.4756 18.0585 27.858 17.9891 28.3041C17.9891 28.3678 17.9197 28.4315 17.9197 28.559V28.6227C17.8503 28.6227 17.7809 28.6227 17.7809 28.6227C17.5728 28.6227 17.434 28.559 17.2258 28.559C16.8788 28.4952 16.5318 28.4952 16.1849 28.4315C15.9767 28.3678 15.6991 28.3041 15.4909 28.3041C15.144 28.2403 14.8664 28.1766 14.5194 28.1129C14.1724 28.0492 13.8255 28.0492 13.5479 28.0492C12.9234 28.0492 12.2294 28.0492 11.6049 28.0492C11.3273 28.0492 11.1191 27.9854 10.8415 27.9854C10.7027 27.9854 10.6333 27.9217 10.4946 27.9217C10.3558 27.858 10.2864 27.858 10.1476 27.7943C9.87001 27.6668 9.59244 27.5394 9.24547 27.4119C8.89849 27.2845 8.62092 27.2207 8.27395 27.157C7.92698 27.0933 7.6494 27.0295 7.30243 27.0295C7.16364 27.0295 6.95546 26.9658 6.81667 26.9658C6.67789 26.9658 6.5391 26.9658 6.40031 26.9021C6.40031 26.9021 6.40031 26.9021 6.33091 26.9021C6.33091 26.8384 6.26152 26.7746 6.26152 26.7109C6.26152 26.5835 6.19213 26.456 6.19213 26.3286C6.19213 26.2011 6.19213 26.0099 6.19213 25.8825V25.8188C6.19213 25.8825 6.26152 25.8825 6.26152 25.8825C6.33091 25.9462 6.40031 26.0099 6.5391 26.0099C6.88607 26.1374 7.16364 26.2648 7.51061 26.3286C8.20455 26.5197 8.8291 26.6472 9.52304 26.7746C9.87001 26.8384 10.1476 26.8384 10.4946 26.8384C10.8415 26.8384 11.1885 26.9021 11.5355 26.9021C12.16 26.9658 12.854 27.0295 13.4785 27.0933C13.8255 27.157 14.103 27.157 14.45 27.2207C14.797 27.2207 15.144 27.2845 15.4909 27.2845C15.8379 27.2845 16.1155 27.2845 16.4624 27.2845C16.6012 27.2845 16.74 27.2845 16.9482 27.2845C17.087 27.2845 17.2258 27.2845 17.3646 27.2845C17.434 27.2845 17.434 27.2845 17.5034 27.2845C17.5728 27.2845 17.6421 27.3482 17.7115 27.3482C17.8503 27.3482 17.9891 27.3482 18.1279 27.2845C18.1973 27.2845 18.1973 27.2207 18.2667 27.2207C18.1973 26.9658 18.1973 27.0295 18.1973 27.0295ZM17.9197 26.3286C17.7115 26.3286 17.5728 26.2648 17.5034 26.2648C17.3646 26.2648 17.2258 26.2011 17.087 26.2011C16.8788 26.2011 16.6706 26.2011 16.4624 26.2011C16.5318 26.1374 16.5318 26.1374 16.6012 26.1374C16.8788 25.9462 17.2258 25.755 17.5728 25.6276C17.7809 25.5639 17.9891 25.4364 18.1279 25.3089C18.4055 25.1815 18.6831 24.9903 18.8912 24.7991C19.1688 24.608 19.4464 24.4805 19.724 24.2893C20.2791 23.9707 20.8343 23.5883 21.3894 23.206C21.5976 23.0785 21.8752 22.9511 22.0834 22.8236C22.2915 22.6962 22.5691 22.5687 22.7773 22.4413C23.4019 22.1227 24.0264 21.8677 24.5816 21.5491C24.8591 21.3579 25.1367 21.2305 25.4143 20.9756C25.6919 20.7844 25.9694 20.5932 26.247 20.4021C26.3858 20.2746 26.594 20.1472 26.7328 20.0197C26.8716 19.8922 26.941 19.8285 27.0797 19.7011C27.1491 19.6373 27.2879 19.5099 27.2879 19.4462C27.2879 19.4462 27.2879 19.3824 27.2879 19.3187C27.4267 19.3187 27.5655 19.3187 27.7737 19.3187C28.1206 19.3187 28.3982 19.3187 28.7452 19.3187C29.231 19.3824 29.7167 19.4462 30.2025 19.4462C30.6188 19.5099 31.0352 19.5099 31.521 19.5736C31.174 19.7011 30.8964 19.8922 30.5494 20.0197C29.9943 20.2746 29.4391 20.5932 28.8146 20.8481C28.8146 20.8481 28.7452 20.8481 28.7452 20.9119C28.7452 20.9119 28.7452 20.9119 28.8146 20.9119C28.19 21.1668 27.5655 21.4854 26.941 21.7403C26.3164 21.9952 25.6919 22.2501 25.1367 22.5687C24.5122 22.8874 23.8876 23.1423 23.3325 23.4609C22.7079 23.7795 22.0834 24.0982 21.5282 24.4168C20.9037 24.7354 20.3485 25.054 19.724 25.3727C19.377 25.5639 19.0994 25.6913 18.7525 25.8825C18.4749 26.0099 18.2667 26.2011 17.9197 26.3286ZM32.2843 20.5295V20.5932C32.2843 20.5932 32.2843 20.5932 32.2843 20.5295C32.2843 20.5932 32.2843 20.657 32.2843 20.7207C32.2843 20.7207 32.2843 20.7207 32.2149 20.7207C32.1455 20.7207 32.1455 20.7844 32.0761 20.7844C32.0067 20.8481 31.9373 20.9119 31.7985 20.9119C31.3822 21.1668 30.9658 21.4854 30.5494 21.7403C30.48 21.7403 30.48 21.804 30.4107 21.804C30.1331 21.9952 29.8555 22.1864 29.5085 22.3138C29.231 22.4413 28.9534 22.6325 28.6064 22.7599C28.2594 22.8874 27.9125 23.0785 27.5655 23.206C26.941 23.4609 26.3164 23.7795 25.7612 24.0344C25.1367 24.3531 24.5122 24.6717 23.957 24.9903C23.4019 25.3089 22.7773 25.5639 22.2222 25.9462C21.667 26.2648 21.0425 26.5835 20.4873 26.9658C20.4873 26.9658 20.4179 26.9658 20.4179 27.0295C20.2097 27.157 20.0709 27.2845 19.8628 27.3482C19.5852 27.5394 19.3076 27.6668 19.03 27.858C18.9606 27.9217 18.8218 27.9854 18.7525 28.0492C18.7525 27.9217 18.7525 27.7943 18.7525 27.7305C18.7525 27.6031 18.7525 27.4119 18.7525 27.2845C18.7525 27.2207 18.7525 27.157 18.7525 27.0933C18.7525 27.0295 18.7525 27.0295 18.7525 26.9658C18.7525 26.9021 18.6831 26.7746 18.6137 26.7746C19.1688 26.456 19.724 26.1374 20.2791 25.8188C20.8343 25.5001 21.4588 25.1815 22.0834 24.8629C22.7079 24.5442 23.2631 24.2256 23.8876 23.9707C24.5122 23.6521 25.0673 23.3972 25.6919 23.0785C26.4552 22.7599 27.2185 22.4413 27.9819 22.1227C28.6064 21.8677 29.231 21.5491 29.8555 21.2942C30.48 20.9756 31.0352 20.7207 31.6597 20.4021C31.8679 20.2746 32.0761 20.2109 32.2843 20.0834C32.2843 20.2109 32.2843 20.4021 32.2843 20.5295Z" fill="#2D2E31"/>
</svg>
