<svg width="36" height="36" viewBox="0 0 36 36" fill="none" xmlns="http://www.w3.org/2000/svg">
<path d="M0 18C0 8.05888 8.05888 0 18 0C27.9411 0 36 8.05888 36 18C36 27.9411 27.9411 36 18 36C8.05888 36 0 27.9411 0 18Z" fill="#E8E5DD"/>
<path d="M32.8508 17.6805C32.7762 17.5313 32.7016 17.3075 32.627 17.1583C32.5525 17.0091 32.4779 16.86 32.4033 16.7854C32.2541 16.487 32.0303 16.2632 31.8065 16.0395C31.6574 15.8157 31.5082 15.6665 31.4336 15.4427C31.2844 15.219 31.2098 14.9952 31.1352 14.7714C31.0606 14.5476 30.9115 14.3239 30.7623 14.1001C30.7623 14.1001 30.7623 14.0255 30.6877 14.0255C30.5385 13.7271 30.3893 13.4288 30.1655 13.1304C30.0164 12.832 29.8672 12.6083 29.718 12.3099C29.718 12.3099 29.718 12.2353 29.6434 12.2353C29.4942 11.937 29.345 11.7132 29.1213 11.4148C28.8975 11.1165 28.7483 10.8181 28.5991 10.4451C28.45 10.1468 28.2262 9.77382 28.0024 9.47545C27.7786 9.17709 27.6295 8.87873 27.4057 8.58036C27.2565 8.282 27.0327 7.98364 26.8835 7.68527C26.7344 7.4615 26.6598 7.23773 26.5106 7.08855C26.3614 6.79018 26.1376 6.49182 25.9139 6.19345C25.7647 6.04427 25.6901 5.89509 25.5409 5.74591C25.4663 5.67132 25.3917 5.52214 25.2425 5.44755C25.168 5.37295 25.0188 5.29836 24.9442 5.22377C24.795 5.14918 24.5712 5.07459 24.422 5.07459C24.3475 5 24.1237 5 23.9745 5C23.8999 5 23.7507 5 23.6761 5C23.6015 5 23.527 5.07459 23.3778 5.07459C23.2286 5.14918 23.0794 5.14918 22.9302 5.22377C22.781 5.29836 22.6319 5.29836 22.4827 5.37295C22.3335 5.44755 22.1843 5.44755 22.0351 5.52214C21.7368 5.67132 21.3638 5.74591 21.0655 5.89509C20.3941 6.19345 19.7974 6.49182 19.1261 6.79018C18.8277 6.93936 18.5294 7.08855 18.1564 7.23773C17.858 7.38691 17.4851 7.53609 17.1867 7.75986C16.5154 8.05823 15.9187 8.35659 15.2474 8.65495C14.576 8.95332 13.9047 9.32627 13.308 9.62464C12.6367 9.923 12.04 10.296 11.3686 10.5943C10.9957 10.8181 10.6973 10.9673 10.399 11.191C10.026 11.3402 9.72764 11.4894 9.42927 11.7132C9.13091 11.8624 8.75796 12.0115 8.45959 12.2353C8.16123 12.3845 7.78827 12.5337 7.48991 12.7575C7.19155 12.9066 6.81859 13.1304 6.52023 13.3542C6.22187 13.5034 5.9235 13.7271 5.62514 13.9509C5.32677 14.1001 5.02841 14.3239 4.73005 14.473C4.43168 14.6968 4.13332 14.9206 3.83496 15.1444C3.68577 15.2935 3.53659 15.4427 3.462 15.5919C3.16364 15.7411 2.93987 16.1886 3.01446 16.5616C3.01446 16.7108 3.08905 16.86 3.16364 17.0837C3.23823 17.2329 3.31282 17.3821 3.31282 17.6059C3.38741 17.755 3.462 17.9042 3.53659 18.0534C3.61118 18.2026 3.68577 18.3518 3.76037 18.501C3.76037 18.501 3.76037 18.5755 3.76037 18.6501C3.76037 18.7993 3.83496 18.9485 3.98414 19.0231C4.05873 19.0231 4.05873 19.0231 4.13332 19.0977C4.20791 19.2469 4.20791 19.3215 4.2825 19.4706C4.43168 19.769 4.58087 20.142 4.80464 20.4403C4.95382 20.6641 5.103 20.9625 5.25218 21.1862H5.32677V21.2608C5.40137 21.41 5.47596 21.4846 5.47596 21.6338C5.55055 21.783 5.62514 21.9321 5.62514 22.0813C5.69973 22.3051 5.77432 22.5289 5.84891 22.678C5.9235 22.9018 5.99809 23.051 6.14727 23.2748C6.29646 23.4985 6.37105 23.6477 6.52023 23.8715C6.59482 24.0207 6.66941 24.0953 6.744 24.2445C6.81859 24.3936 6.89318 24.4682 6.96777 24.6174C7.11696 24.9158 7.26614 25.1395 7.41532 25.4379C7.5645 25.7363 7.71368 25.96 7.86286 26.2584C8.01205 26.5568 8.16123 26.7805 8.31041 27.0043C8.45959 27.2281 8.60877 27.5265 8.75796 27.8248C8.83255 27.8994 8.83255 28.0486 8.90714 28.1232C8.90714 28.2724 8.98173 28.347 8.98173 28.4961C9.05632 28.7199 9.2055 28.8691 9.28009 29.0929C9.42927 29.3912 9.65305 29.6896 9.87682 29.988C9.87682 29.988 9.87682 29.988 9.87682 29.9134C10.026 30.0625 10.1752 30.2117 10.3244 30.3609C10.3244 30.3609 10.399 30.3609 10.399 30.4355C10.399 30.5101 10.4735 30.5847 10.4735 30.5847C10.5481 30.6593 10.6227 30.7339 10.7719 30.8085C10.8465 30.8085 10.9211 30.883 10.9957 30.883C11.0703 30.883 11.1449 30.883 11.2195 30.883C11.5178 30.883 11.8162 30.8085 12.04 30.7339C12.3383 30.6593 12.6367 30.5847 12.8605 30.5101C13.0842 30.4355 13.2334 30.4355 13.4572 30.2863C13.6064 30.2117 13.7555 30.1371 13.9047 30.0625C14.2031 29.9134 14.5015 29.7642 14.7998 29.615C15.4711 29.3166 16.0679 28.9437 16.6646 28.5707C16.963 28.4215 17.2613 28.2724 17.5597 28.0486C17.858 27.8994 18.0818 27.7502 18.3802 27.601C18.6785 27.4519 19.0515 27.3027 19.4245 27.0789C19.7974 26.9297 20.1704 26.706 20.4687 26.5568C20.7671 26.4076 21.0655 26.2584 21.4384 26.1092C21.8114 25.96 22.1097 25.8109 22.4827 25.6617C22.781 25.5125 23.0794 25.3633 23.3778 25.2141C23.6761 25.065 24.0491 24.9158 24.3475 24.692C24.5712 24.5428 24.795 24.3936 25.0934 24.2445C25.3917 24.0953 25.6901 23.8715 25.9885 23.7223C26.2868 23.5731 26.5852 23.3494 26.8835 23.2002C27.4803 22.8272 28.077 22.4543 28.6737 22.0813C28.7483 22.0813 28.7483 22.0067 28.8229 22.0067C29.1959 21.783 29.6434 21.5592 30.0164 21.3354C30.3893 21.1116 30.7623 20.9625 31.0606 20.7387C31.4336 20.5149 31.732 20.2165 32.1049 19.8436C32.2541 19.6944 32.3287 19.5452 32.4779 19.396C32.5525 19.2469 32.7016 19.0977 32.7762 18.9485C32.8508 18.7247 33 18.501 33 18.2026C32.9254 17.9788 32.9254 17.8296 32.8508 17.6805ZM20.9163 12.2353C20.8417 12.2353 20.8417 12.2353 20.9163 12.2353C20.0958 12.6829 19.4245 13.0558 18.6785 13.5034C18.604 13.5034 18.5294 13.578 18.5294 13.578C18.6785 13.5034 18.8277 13.3542 18.9769 13.2796C19.6482 12.832 20.245 12.4591 20.9163 12.0861C21.2146 11.937 21.4384 11.7878 21.7368 11.6386C22.4081 11.2656 23.0794 10.9673 23.6761 10.5943C23.8253 10.5197 23.9745 10.4451 24.1983 10.296C24.2729 10.2214 24.422 10.2214 24.4966 10.1468C24.3475 10.2214 24.1983 10.3705 24.0491 10.4451C23.8999 10.5197 23.8253 10.5943 23.6761 10.7435C23.2286 10.9673 22.781 11.191 22.4081 11.4148C21.9605 11.6386 21.513 11.937 20.9909 12.1607C20.9909 12.1607 20.9163 12.1607 20.9163 12.2353ZM4.95382 19.1723H5.103C5.103 19.1723 5.103 19.1723 5.103 19.2469C5.103 19.3215 5.17759 19.3215 5.17759 19.3215C5.17759 19.3215 5.103 19.3215 5.103 19.396C5.103 19.3215 5.02841 19.2469 4.95382 19.1723ZM5.9235 20.4403C5.84891 20.3657 5.77432 20.2911 5.77432 20.2165C5.77432 20.2165 5.77432 20.142 5.69973 20.142H5.77432C5.84891 20.142 5.84891 20.142 5.9235 20.142C6.07268 20.142 6.22187 20.142 6.29646 20.0674C6.44564 19.9928 6.59482 19.9928 6.744 19.9182C6.81859 19.8436 6.96777 19.8436 7.04237 19.769C6.744 19.9182 6.44564 20.142 6.14727 20.2911C6.14727 20.3657 6.07268 20.4403 5.9235 20.4403ZM6.96777 19.1723C6.744 19.2469 6.59482 19.396 6.37105 19.4706C6.29646 19.4706 6.22187 19.5452 6.07268 19.5452H5.99809C6.29646 19.396 6.59482 19.1723 6.81859 19.0231C6.89318 19.0231 6.89318 18.9485 6.96777 18.9485C7.19155 18.8739 7.34073 18.7993 7.5645 18.7247C7.63909 18.7247 7.71368 18.6501 7.78827 18.6501C7.5645 18.7993 7.26614 19.0231 6.96777 19.1723ZM9.13091 18.501C9.28009 18.4264 9.35468 18.3518 9.50386 18.2772C9.50386 18.2772 9.57846 18.2772 9.57846 18.3518C9.35468 18.4264 9.13091 18.5755 8.98173 18.6501C8.83255 18.7247 8.60877 18.8739 8.45959 18.9485C8.60877 18.8739 8.83255 18.7247 9.13091 18.501ZM13.2334 15.9649C12.935 16.114 12.6367 16.3378 12.3383 16.487C12.1891 16.5616 12.1145 16.6362 11.9654 16.7108C12.2637 16.5616 12.5621 16.3378 12.8605 16.1886C12.935 16.114 13.0842 16.0395 13.2334 15.9649ZM24.2729 8.58036C24.1237 8.65495 23.9745 8.72955 23.8253 8.80414C23.8253 8.80414 23.8999 8.80414 23.8999 8.72955C24.1237 8.58036 24.3475 8.50577 24.6458 8.43118C24.7204 8.43118 24.795 8.35659 24.8696 8.35659C24.8696 8.35659 24.8696 8.35659 24.795 8.35659C24.6458 8.43118 24.4966 8.50577 24.2729 8.58036ZM24.7204 7.75986C24.795 7.68527 24.8696 7.61068 24.9442 7.61068C24.9442 7.61068 24.9442 7.68527 25.0188 7.68527H24.9442C24.8696 7.75986 24.795 7.75986 24.7204 7.75986ZM25.6155 9.47545C25.7647 9.40086 25.9139 9.25168 25.9885 9.17709C25.9885 9.17709 25.9885 9.17709 26.063 9.1025C26.063 9.17709 26.1376 9.17709 26.1376 9.25168C26.063 9.32627 25.9139 9.32627 25.8393 9.40086C25.6901 9.47545 25.5409 9.55005 25.3917 9.62464C25.3917 9.62464 25.3917 9.62464 25.3171 9.62464C25.3917 9.62464 25.5409 9.55005 25.6155 9.47545ZM4.65546 14.9952C4.80464 14.9206 4.87923 14.846 5.02841 14.7714C5.17759 14.6968 5.25218 14.6222 5.40137 14.5476C5.77432 14.3239 6.07268 14.1747 6.44564 13.9509C6.744 13.7271 7.11696 13.578 7.41532 13.3542C7.71368 13.205 8.08664 12.9812 8.45959 12.832C8.83255 12.6829 9.13091 12.5337 9.50386 12.3099C10.1752 12.0115 10.7719 11.6386 11.4432 11.3402C12.1145 11.0419 12.7859 10.7435 13.4572 10.4451C14.1285 10.1468 14.7252 9.84841 15.3965 9.55005C16.0679 9.25168 16.7392 8.95332 17.4105 8.65495C17.7089 8.50577 18.0818 8.35659 18.3802 8.20741C18.7531 7.98364 19.1261 7.83445 19.4245 7.68527C19.7228 7.53609 20.0958 7.38691 20.3941 7.23773C20.6925 7.08855 20.9909 6.93936 21.2892 6.86477C21.6622 6.71559 22.0351 6.56641 22.4827 6.41723C22.7065 6.34264 22.8556 6.26805 23.0794 6.26805C23.2286 6.19345 23.4524 6.19345 23.6015 6.11886C23.7507 6.04427 23.8999 6.04427 24.1237 6.04427H24.2729C24.3475 6.04427 24.422 6.04427 24.422 6.11886C24.4966 6.11886 24.4966 6.11886 24.5712 6.19345C24.5712 6.19345 24.6458 6.19345 24.6458 6.26805L24.8696 6.49182C24.7204 6.56641 24.6458 6.56641 24.5712 6.641C24.2729 6.86477 23.9745 7.08855 23.7507 7.31232C23.527 7.4615 23.3032 7.68527 23.0794 7.83445C23.0048 7.90905 22.8556 7.90905 22.781 7.98364C22.5573 8.05823 22.3335 8.20741 22.1843 8.282C21.7368 8.50577 21.2892 8.72955 20.9163 8.95332C20.5433 9.17709 20.1704 9.40086 19.7228 9.62464C19.5736 9.69923 19.4245 9.77382 19.3499 9.84841C19.2007 9.923 19.0515 9.99759 18.9023 10.0722C18.231 10.4451 17.5597 10.7435 16.963 11.1165C16.59 11.3402 16.217 11.564 15.8441 11.7878C15.4711 12.0115 15.0982 12.2353 14.7998 12.4591C14.2777 12.7575 13.7555 13.0558 13.2334 13.3542C12.5621 13.7271 11.9654 14.1001 11.3686 14.5476C10.6973 14.9206 10.1006 15.2935 9.42927 15.6665C9.42927 15.6665 9.42927 15.6665 9.35468 15.6665C9.28009 15.7411 9.2055 15.7411 9.13091 15.8157C8.45959 16.1886 7.78827 16.4124 7.19155 16.7854C6.52023 17.0837 5.84891 17.4567 5.17759 17.8296C5.17759 17.8296 5.17759 17.8296 5.25218 17.8296C5.02841 17.9788 4.80464 18.0534 4.65546 18.2026C4.58087 18.2026 4.58087 18.2772 4.50627 18.2772C4.43168 18.128 4.35709 18.0534 4.35709 17.9042C4.35709 17.8296 4.2825 17.755 4.2825 17.6805C4.2825 17.6805 4.2825 17.6805 4.2825 17.6059V17.5313C4.20791 17.3075 4.05873 17.1583 3.98414 16.9345C3.98414 16.86 3.90955 16.7108 3.90955 16.6362C3.90955 16.5616 3.90955 16.487 3.90955 16.4124V16.3378C3.90955 16.3378 3.90955 16.3378 3.90955 16.2632C3.90955 16.1886 3.98414 16.114 3.98414 16.114C3.98414 16.114 3.98414 16.0395 4.05873 16.0395C4.05873 15.9649 4.13332 15.9649 4.13332 15.8903C4.20791 15.7411 4.35709 15.6665 4.43168 15.5919C4.2825 15.2935 4.50627 15.1444 4.65546 14.9952ZM32.0303 18.2772V18.4264C32.0303 18.501 32.0303 18.501 31.9557 18.5755C31.9557 18.6501 31.8811 18.7247 31.8811 18.7993C31.8065 18.8739 31.732 19.0231 31.6574 19.0977C31.5082 19.2469 31.4336 19.3215 31.2844 19.4706C31.1352 19.6198 30.9115 19.769 30.7623 19.9182C30.3893 20.2165 29.9418 20.4403 29.5688 20.6641C29.1959 20.8879 28.7483 21.1116 28.3754 21.3354C28.1516 21.4846 27.9278 21.6338 27.6295 21.783C27.0327 22.1559 26.436 22.5289 25.7647 22.9018C25.4663 23.051 25.0934 23.2748 24.795 23.424C24.4966 23.5731 24.1983 23.7969 23.8999 23.9461C23.6761 24.0953 23.3778 24.2445 23.0794 24.3936C22.781 24.5428 22.5573 24.692 22.2589 24.7666C21.9605 24.9158 21.6622 25.065 21.3638 25.2141C21.0655 25.3633 20.8417 25.4379 20.5433 25.5871C20.3195 25.6617 20.0212 25.8109 19.7974 25.8855C19.5736 25.96 19.3499 26.1092 19.0515 26.1838C18.9023 26.2584 18.8277 26.2584 18.6785 26.333C18.5294 26.4076 18.3056 26.4822 18.1564 26.5568C18.0072 26.6314 17.858 26.706 17.6343 26.7805C17.3359 26.9297 17.0375 27.1535 16.6646 27.3027C16.3662 27.4519 15.9933 27.601 15.6949 27.8248C15.3965 27.974 15.0982 28.1978 14.7252 28.347C14.3523 28.5707 13.9047 28.7945 13.5318 29.0183C13.308 29.0929 13.1588 29.242 12.935 29.3166C12.7113 29.3912 12.5621 29.4658 12.3383 29.5404H12.4129C12.04 29.6896 11.667 29.8388 11.2195 29.988C11.2195 29.988 11.2195 29.988 11.294 29.988C11.2195 29.988 11.1449 30.0625 11.1449 30.0625C11.0703 30.0625 10.9957 30.1371 10.9211 30.1371H10.8465C10.8465 30.1371 10.7719 30.1371 10.7719 30.0625C10.7719 30.0625 10.7719 30.0625 10.6973 30.0625C10.6227 29.988 10.6227 29.9134 10.5481 29.8388C10.4735 29.6896 10.399 29.5404 10.3244 29.3166C10.4735 29.0929 10.3244 28.8691 10.2498 28.6453C10.1752 28.4961 10.1752 28.347 10.1006 28.2724C10.026 28.1232 9.95141 27.974 9.87682 27.8248C9.72764 27.601 9.57846 27.3027 9.42927 27.0043C9.28009 26.706 9.13091 26.4822 8.98173 26.1838V26.1092C8.98173 26.1092 8.98173 26.0346 8.90714 26.0346V26.1092C8.83255 26.0346 8.83255 25.8855 8.75796 25.8109C8.68336 25.6617 8.60877 25.5125 8.53418 25.2887C8.45959 25.065 8.31041 24.9158 8.23582 24.692V24.7666C8.23582 24.692 8.16123 24.6174 8.16123 24.6174V24.692C7.93746 24.2445 7.71368 23.7969 7.41532 23.424C7.19155 23.1256 7.04237 22.8272 6.81859 22.5289C6.81859 22.5289 6.81859 22.6035 6.89318 22.6035C6.81859 22.5289 6.744 22.3797 6.744 22.3051C6.66941 22.2305 6.59482 22.0813 6.52023 22.0067C6.44564 21.8575 6.37105 21.783 6.29646 21.6338C6.29646 21.5592 6.22187 21.5592 6.22187 21.4846C6.37105 21.41 6.52023 21.3354 6.744 21.2608C6.89318 21.1862 7.04237 21.1116 7.26614 21.037C7.5645 20.8879 7.93746 20.7387 8.23582 20.5149C8.53418 20.3657 8.83255 20.2165 9.2055 20.0674C9.50387 19.9182 9.80223 19.769 10.1006 19.6198C10.399 19.4706 10.7719 19.3215 11.0703 19.1723C11.3686 19.0231 11.667 18.8739 11.9654 18.7247C12.3383 18.5755 12.6367 18.3518 13.0096 18.128C13.308 17.9788 13.6064 17.755 13.9047 17.6059C13.9793 17.6059 14.0539 17.5313 14.0539 17.5313C14.3523 17.3821 14.6506 17.2329 14.949 17.0091C15.2474 16.86 15.5457 16.7108 15.9187 16.5616C16.217 16.4124 16.59 16.1886 16.8884 16.0395C17.1867 15.8903 17.5597 15.6665 17.858 15.4427C18.3056 15.219 18.6785 14.9952 19.1261 14.7714C19.2753 14.6968 19.499 14.5476 19.6482 14.473C19.9466 14.3239 20.245 14.1747 20.5433 13.9509C20.8417 13.8017 21.2146 13.578 21.513 13.4288H21.4384C21.8114 13.205 22.2589 12.9812 22.6319 12.7575C23.0048 12.5337 23.3778 12.3845 23.7507 12.1607C23.8999 12.0861 24.0491 11.937 24.2729 11.8624C24.4966 11.7878 24.6458 11.6386 24.8696 11.564C25.0188 11.4894 25.168 11.3402 25.3917 11.2656C25.5409 11.191 25.6901 11.1165 25.8393 11.0419C25.9139 10.9673 26.063 10.8927 26.2122 10.8181C26.3614 10.7435 26.5106 10.5943 26.7344 10.5197C26.6598 10.2214 26.809 10.2214 26.8835 10.1468C26.9581 10.1468 27.0327 10.0722 27.1073 9.99759C27.1819 10.0722 27.1819 10.1468 27.2565 10.2214C27.4057 10.5197 27.6295 10.8181 27.7786 11.1165C28.077 11.6386 28.3008 12.0861 28.5991 12.6083C28.7483 12.832 28.8229 13.1304 28.9721 13.3542C29.1213 13.578 29.2705 13.8017 29.4196 14.1001C29.5688 14.3985 29.718 14.6222 29.8672 14.9206C29.9418 15.1444 30.091 15.2935 30.1655 15.5173C30.0164 15.5919 29.7926 15.6665 29.6434 15.7411C29.6434 15.7411 29.5688 15.7411 29.5688 15.8157C29.4942 15.8157 29.4196 15.8903 29.4196 15.8903C29.345 15.8903 29.2705 15.9649 29.1959 15.9649C29.1213 15.9649 29.1213 16.0395 29.0467 16.0395C28.9721 15.9649 28.9721 15.9649 28.8975 15.8903C28.8229 15.8903 28.7483 15.8157 28.7483 15.8157C28.5991 15.7411 28.5245 15.7411 28.3754 15.6665C28.2262 15.6665 28.077 15.6665 28.0024 15.6665C27.8532 15.6665 27.7786 15.6665 27.6295 15.6665C27.4803 15.6665 27.4057 15.6665 27.2565 15.7411C27.1073 15.7411 26.9581 15.8157 26.8835 15.8903C26.6598 16.0395 26.5106 16.2632 26.3614 16.4124C26.2868 16.487 26.2122 16.6362 26.1376 16.7108C26.063 16.7108 26.063 16.7108 25.9885 16.7108C25.8393 16.7108 25.6901 16.7108 25.4663 16.7108C25.3917 16.7108 25.3171 16.7108 25.168 16.7854C25.0934 16.7854 24.9442 16.86 24.8696 16.86C24.795 16.86 24.7204 16.9345 24.7204 16.9345C24.6458 17.0091 24.5712 17.0837 24.4966 17.0837C24.422 17.1583 24.3475 17.3075 24.2729 17.3821C24.1237 17.6059 24.1237 17.9042 24.0491 18.128C23.9745 18.3518 23.9745 18.6501 24.0491 18.9485C24.0491 19.1723 24.1983 19.4706 24.3475 19.6198C24.422 19.6944 24.4966 19.769 24.5712 19.769C24.7204 19.8436 24.8696 19.9182 25.0188 19.9182C25.168 19.9182 25.2425 19.9182 25.3917 19.9928H25.4663C25.6901 19.9928 25.9139 19.9928 26.1376 19.9182C26.2868 19.9182 26.3614 19.8436 26.5106 19.8436C26.6598 19.769 26.7344 19.769 26.8835 19.6198C26.9581 19.5452 27.1073 19.4706 27.1819 19.396C27.2565 19.3215 27.2565 19.3215 27.3311 19.2469C27.4057 19.1723 27.4057 19.1723 27.4057 19.0977C27.4057 19.0977 27.4057 19.0231 27.4803 19.0231C27.704 19.0231 27.8532 19.0977 28.077 19.0231C28.3008 18.9485 28.5991 18.8739 28.8229 18.7247C28.8975 18.6501 29.0467 18.5755 29.1213 18.501C29.1959 18.3518 29.2705 18.2772 29.345 18.128C29.4196 17.9788 29.4196 17.9042 29.4942 17.755C29.4942 17.6805 29.4942 17.6059 29.5688 17.5313C29.5688 17.4567 29.5688 17.3821 29.5688 17.3821C29.5688 17.2329 29.5688 17.0837 29.5688 17.0091C29.5688 16.86 29.5688 16.7854 29.4942 16.6362C29.4942 16.5616 29.4942 16.487 29.4196 16.487C29.4196 16.4124 29.4196 16.4124 29.4196 16.3378C29.5688 16.2632 29.718 16.1886 29.7926 16.0395L29.8672 15.9649C29.9418 15.8903 30.0164 15.8903 30.0164 15.8157C30.1655 15.7411 30.3893 15.5919 30.5385 15.5173C30.5385 15.5919 30.6131 15.5919 30.6131 15.6665C30.7623 15.9649 30.986 16.2632 31.2098 16.487C31.4336 16.7108 31.5828 16.9345 31.8065 17.1583C31.9557 17.3075 32.1049 17.5313 32.1795 17.755C32.1795 17.8296 32.2541 17.8296 32.2541 17.9042C32.2541 17.9788 32.3287 18.0534 32.3287 18.128C32.0303 18.2026 32.0303 18.2026 32.0303 18.2772ZM28.5245 18.2026C28.45 18.2772 28.45 18.3518 28.45 18.3518L28.3754 18.4264C28.3754 18.4264 28.3008 18.4264 28.3008 18.501C28.2262 18.501 28.2262 18.5755 28.1516 18.5755C28.077 18.5755 28.0024 18.6501 28.0024 18.6501C27.9278 18.6501 27.9278 18.6501 27.8532 18.7247H27.7786C27.704 18.7247 27.6295 18.7247 27.6295 18.7247C27.5549 18.7247 27.4803 18.7247 27.4803 18.7247V18.6501C27.4803 18.5755 27.4803 18.501 27.4803 18.501C27.4803 18.2772 27.4057 17.9788 27.3311 17.755C27.2565 17.6805 27.1819 17.5313 27.1073 17.4567C27.0327 17.3821 26.9581 17.3075 26.8835 17.1583C26.809 17.0837 26.6598 17.0091 26.5852 16.9345C26.5106 16.9345 26.5106 16.86 26.436 16.86C26.5106 16.7854 26.5106 16.7854 26.5852 16.7108C26.6598 16.6362 26.809 16.5616 26.8835 16.487C26.9581 16.487 26.9581 16.4124 27.0327 16.4124H27.1073C27.1819 16.4124 27.1819 16.4124 27.2565 16.4124C27.4057 16.4124 27.5549 16.4124 27.704 16.4124C27.8532 16.4124 27.9278 16.4124 28.077 16.4124C28.1516 16.4124 28.1516 16.4124 28.2262 16.4124H28.3008C28.3008 16.4124 28.3754 16.4124 28.3754 16.487C28.3754 16.487 28.3754 16.487 28.45 16.487C28.5245 16.487 28.5245 16.5616 28.5991 16.5616C28.6737 16.6362 28.6737 16.7854 28.6737 16.86C28.6737 17.0091 28.7483 17.1583 28.7483 17.3075V17.3821C28.7483 17.4567 28.7483 17.5313 28.7483 17.6059C28.7483 17.6805 28.6737 17.8296 28.6737 17.9042C28.5245 18.0534 28.5245 18.128 28.5245 18.2026ZM24.795 17.0091C24.8696 17.0091 24.8696 16.9345 24.9442 16.9345H25.0188C25.0934 16.9345 25.168 16.9345 25.2425 16.9345C25.3171 16.9345 25.3917 16.9345 25.4663 16.9345C25.5409 16.9345 25.6155 16.9345 25.6901 17.0091H25.7647C25.7647 17.0837 25.6901 17.1583 25.6901 17.1583C25.6155 17.3821 25.6155 17.6805 25.6901 17.9042C25.7647 18.0534 25.7647 18.128 25.8393 18.2772C25.9139 18.3518 25.9885 18.501 26.063 18.5755C26.2122 18.7247 26.3614 18.7993 26.5852 18.8739L26.5106 18.9485C26.436 19.0231 26.3614 19.0231 26.3614 19.0977C26.2868 19.1723 26.2868 19.1723 26.2122 19.1723C26.1376 19.1723 26.063 19.2469 25.9885 19.2469C25.9139 19.2469 25.8393 19.3215 25.7647 19.3215C25.6901 19.3215 25.5409 19.396 25.4663 19.396C25.3171 19.396 25.2425 19.396 25.0934 19.396C25.0188 19.396 24.9442 19.396 24.8696 19.396C24.795 19.396 24.795 19.396 24.7204 19.396C24.6458 19.396 24.6458 19.396 24.5712 19.3215C24.5712 19.3215 24.4966 19.3215 24.4966 19.2469C24.4966 19.2469 24.4966 19.2469 24.422 19.1723C24.422 19.1723 24.422 19.0977 24.3475 19.0977C24.3475 19.0977 24.3475 19.0231 24.2729 19.0231C24.2729 18.9485 24.2729 18.9485 24.1983 18.8739C24.1983 18.7993 24.1983 18.7247 24.1983 18.6501C24.1983 18.501 24.1983 18.3518 24.1983 18.2026C24.1983 18.128 24.1983 17.9788 24.1983 17.9042C24.1983 17.8296 24.1983 17.755 24.2729 17.6059C24.2729 17.5313 24.3475 17.4567 24.3475 17.3821C24.3475 17.3075 24.422 17.3075 24.422 17.2329L24.5712 17.0837C24.7204 17.0837 24.7204 17.0837 24.795 17.0091ZM26.5106 18.3518C26.436 18.3518 26.436 18.2772 26.3614 18.2772L26.2868 18.2026C26.2868 18.128 26.2122 18.128 26.2122 18.0534C26.2122 17.9788 26.1376 17.9042 26.1376 17.9042C26.1376 17.8296 26.1376 17.8296 26.063 17.755C26.063 17.6805 26.063 17.6805 26.063 17.6059C26.063 17.5313 26.063 17.4567 26.063 17.4567C26.063 17.3821 26.063 17.3821 26.063 17.3075V17.2329L26.2122 17.3821C26.2868 17.4567 26.3614 17.5313 26.3614 17.6059L26.436 17.6805C26.5106 17.8296 26.5852 17.9042 26.5852 18.0534V18.128C26.5852 18.2026 26.5852 18.2026 26.5852 18.2772C26.5852 18.3518 26.5852 18.3518 26.5852 18.4264V18.501C26.7344 18.501 26.6598 18.4264 26.5106 18.3518Z" fill="black"/>
</svg>
