<svg width="36" height="36" viewBox="0 0 36 36" fill="none" xmlns="http://www.w3.org/2000/svg">
<path d="M0 18C0 8.05888 8.05888 0 18 0C27.9411 0 36 8.05888 36 18C36 27.9411 27.9411 36 18 36C8.05888 36 0 27.9411 0 18Z" fill="#E8E5DD"/>
<path d="M3.22113 18.419C3.22113 18.3467 3.22113 18.3467 3.22113 18.3467V18.419Z" fill="#2D2E31"/>
<path d="M23.5631 30.1308C23.4894 30.1308 23.4894 30.1308 23.5631 30.1308V30.1308Z" fill="#2D2E31"/>
<path d="M20.3938 8.94824C20.4675 8.94824 20.4675 8.94824 20.3938 8.94824V8.94824Z" fill="#2D2E31"/>
<path d="M22.3838 20.2263C22.3101 19.8649 22.1627 19.5034 22.0153 19.1419C21.8679 18.7804 21.7205 18.4912 21.4994 18.1298C21.352 17.8406 21.1309 17.5514 20.9098 17.2622C20.6887 16.973 20.4676 16.6838 20.1728 16.3947C19.8779 16.1055 19.6568 15.8163 19.2883 15.5994C18.9935 15.3825 18.625 15.2379 18.3302 15.021C18.0354 14.8764 17.6669 14.7318 17.3721 14.515C17.2247 14.4427 17.0035 14.3704 16.8561 14.2981C16.635 14.2258 16.4139 14.2258 16.1928 14.1535C15.9717 14.1535 15.8243 14.0812 15.6032 14.1535C15.3821 14.1535 15.2347 14.2258 15.0136 14.2258C14.6451 14.2981 14.2765 14.2981 13.908 14.3704C13.5395 14.4427 13.2447 14.5873 12.8762 14.7318C12.5077 14.8764 12.1392 15.021 11.7706 15.2379C11.4758 15.4548 11.181 15.6717 10.8862 15.9609C10.6651 16.1778 10.3703 16.4669 10.1492 16.7561C9.92808 17.0453 9.70697 17.3345 9.48587 17.6237C9.41216 17.7683 9.26476 17.9129 9.19105 18.1298C9.11735 18.2744 9.04365 18.4912 8.96995 18.6358C8.96995 18.925 8.89624 19.2865 8.82254 19.648C8.82254 19.7926 8.74884 20.0095 8.74884 20.2263C8.74884 20.3709 8.74884 20.5878 8.74884 20.7324C8.74884 21.0939 8.74884 21.4554 8.74884 21.8169C8.74884 22.1783 8.82254 22.5398 8.96995 22.9013C9.11735 23.2628 9.26476 23.552 9.41216 23.8411C9.55957 24.1303 9.78068 24.4195 9.92808 24.7087C10.1492 24.9979 10.2966 25.2871 10.5177 25.5763C10.7388 25.8654 11.0336 26.0823 11.3284 26.2992C11.6232 26.5161 11.9181 26.6607 12.1392 26.733C12.434 26.8776 12.7288 26.9499 13.0236 27.0222C13.2447 27.0945 13.4658 27.1668 13.6869 27.2391C13.7606 27.2391 13.908 27.3114 14.0554 27.3114V27.3837C14.0554 27.8174 13.9817 28.1789 13.908 28.6127C13.8343 29.0465 13.8343 29.4079 13.7606 29.8417C13.6869 30.1309 13.6132 30.4924 13.5395 30.7816C13.5395 30.9262 13.4658 31.0708 13.4658 31.2153C13.4658 31.2876 13.4658 31.3599 13.4658 31.4322V31.5045C13.4658 31.5045 13.4658 31.5768 13.5395 31.5768L13.6132 31.5045C13.6869 31.3599 13.6869 31.2153 13.7606 31.0708C13.8343 30.8539 13.8343 30.7093 13.908 30.4924C13.9817 30.1309 14.0554 29.8417 14.1291 29.4802C14.2028 29.1188 14.2765 28.7573 14.3502 28.4681C14.4239 28.1066 14.4977 27.7451 14.5714 27.456C14.5714 27.3837 14.5714 27.3114 14.5714 27.2391C14.8662 27.2391 15.161 27.3114 15.5295 27.3114C15.8243 27.3114 16.1191 27.3114 16.4139 27.2391C16.7087 27.2391 17.0772 27.1668 17.3721 27.0945C17.6669 27.0222 18.0354 26.9499 18.3302 26.8776C18.625 26.8053 18.9935 26.6607 19.2883 26.5884C19.4357 26.5161 19.6568 26.4438 19.8042 26.2992C19.9517 26.2269 20.0991 26.0823 20.3202 26.01C20.4676 25.8654 20.6887 25.7931 20.8361 25.6486C20.9835 25.504 21.1309 25.3594 21.2783 25.2148C21.5731 24.9256 21.7942 24.6364 21.9416 24.2749C22.089 23.9857 22.2364 23.6243 22.3838 23.2628V23.1905C22.4575 22.9736 22.5312 22.7567 22.5312 22.4675C22.605 22.106 22.605 21.7446 22.605 21.3831C22.5312 21.0216 22.4575 20.6601 22.3838 20.2263ZM21.2046 22.3952C21.2046 22.6121 21.1309 22.7567 21.0572 22.9736C20.9835 23.1905 20.9098 23.3351 20.8361 23.4797C20.7624 23.6243 20.6887 23.6966 20.615 23.8411C20.5413 23.9134 20.4676 23.9857 20.4676 24.058C20.3202 24.2026 20.1728 24.4195 20.0254 24.5641C19.878 24.7087 19.7305 24.781 19.5831 24.9256C19.2883 25.1425 18.9935 25.2871 18.6987 25.504C18.5513 25.5763 18.3302 25.6486 18.1828 25.7208C17.8143 25.8654 17.4458 26.01 17.0772 26.0823C16.635 26.1546 16.1928 26.2269 15.7506 26.2992C15.5295 26.2992 15.2347 26.3715 15.0136 26.2992C14.8662 26.2992 14.6451 26.2992 14.4977 26.2992C14.4977 26.2992 14.4977 26.2992 14.4239 26.2992C14.4977 26.1546 14.4977 26.0823 14.5714 25.9377C14.7188 25.504 14.7925 25.0702 14.7925 24.6364C14.7925 24.4195 14.7925 24.2026 14.7925 23.9857C14.7925 23.9857 14.7925 23.9857 14.7925 23.9134C15.0873 23.9857 15.4558 24.058 15.8243 24.058C16.1928 24.058 16.4876 23.9857 16.8561 23.8411C17.1509 23.7689 17.4458 23.6966 17.7406 23.4797C17.888 23.4074 17.9617 23.3351 18.1091 23.2628C18.2565 23.1182 18.3302 23.0459 18.4039 22.9013C18.7724 22.4675 18.9198 21.8892 18.9198 21.3108C18.9198 20.877 18.9198 20.5155 18.7724 20.0818C18.6987 19.9372 18.6987 19.7926 18.625 19.5757C18.5513 19.3588 18.4776 19.2142 18.4039 18.9973C18.3302 18.925 18.3302 18.7804 18.2565 18.7081C18.1828 18.6358 18.1091 18.5635 18.1091 18.4912C17.9617 18.3466 17.888 18.2021 17.7406 18.0575C17.5932 17.9129 17.4458 17.8406 17.2984 17.696C17.1509 17.5514 16.9298 17.4791 16.7824 17.4068C16.5613 17.5514 16.4139 17.4791 16.2665 17.4791C16.1191 17.4791 15.9717 17.4068 15.8243 17.4068C15.6769 17.4068 15.5295 17.4068 15.3821 17.4068C15.2347 17.4068 15.0873 17.4068 15.0136 17.4791C14.7925 17.4791 14.6451 17.4791 14.4239 17.5514C14.2765 17.6237 14.0554 17.696 13.908 17.7683C13.5395 17.9852 13.171 18.2021 12.8762 18.4912C12.7288 18.6358 12.6551 18.7804 12.5077 18.925C12.3603 19.1419 12.2866 19.2865 12.2129 19.5034C12.1392 19.7203 12.0655 19.8649 12.0655 20.0818C12.0655 20.2986 12.0655 20.5155 12.0655 20.6601C12.0655 20.8047 12.1392 21.0216 12.1392 21.1662C12.1392 21.3108 12.2129 21.5277 12.2866 21.6723C12.434 22.0337 12.5814 22.3229 12.8025 22.6121C12.9499 22.7567 13.0973 22.829 13.2447 22.9736C13.3184 22.9736 13.3184 23.0459 13.3921 23.0459V23.1182C13.4658 23.2628 13.5395 23.3351 13.6132 23.4797C13.6869 23.552 13.8343 23.6243 13.9817 23.6966C14.1291 23.7689 14.2765 23.7689 14.3502 23.8411C14.4239 23.8411 14.4977 23.9134 14.5714 23.9134C14.5714 24.058 14.5714 24.2749 14.5714 24.4195C14.5714 24.6364 14.4977 24.8533 14.4977 24.9979C14.4977 25.1425 14.4239 25.3594 14.3502 25.504C14.2765 25.7208 14.2028 25.9377 14.1291 26.0823C14.1291 26.1546 14.0554 26.2269 14.0554 26.2992H13.9817C13.9817 26.2992 13.9817 26.2992 13.908 26.2992C13.7606 26.2992 13.6132 26.3715 13.6132 26.5161C13.3921 26.4438 13.0973 26.3715 12.8762 26.2992C12.7288 26.2269 12.5077 26.1546 12.3603 26.01C12.3603 26.01 12.3603 26.01 12.2866 26.01C12.1392 25.8654 11.9181 25.7931 11.7706 25.6486C11.6232 25.504 11.4758 25.3594 11.3284 25.2148C11.2547 25.0702 11.1073 24.9979 11.0336 24.8533C10.8125 24.5641 10.6651 24.2749 10.5177 23.9857C10.3703 23.6966 10.2229 23.4797 10.0018 23.1905C9.92808 22.9736 9.78068 22.829 9.70697 22.6121C9.70697 22.5398 9.63327 22.4675 9.63327 22.3229C9.55957 22.106 9.55957 21.8892 9.55957 21.7446C9.55957 21.5277 9.55957 21.3108 9.55957 21.0939C9.55957 21.0216 9.55957 21.0216 9.55957 20.9493C9.55957 20.5878 9.63327 20.2986 9.63327 19.9372C9.63327 19.7203 9.70697 19.5757 9.78068 19.3588C9.85438 19.1419 9.92808 18.925 10.0018 18.7081C10.0755 18.5635 10.1492 18.4189 10.2229 18.3466C10.444 18.0575 10.5914 17.7683 10.8125 17.4791C11.0336 17.2622 11.2547 16.973 11.4758 16.7561C11.6969 16.5392 11.9181 16.3224 12.2129 16.1778C12.3603 16.0332 12.5077 15.9609 12.6551 15.8886C12.8025 15.8163 12.9499 15.744 13.0973 15.6717C13.3921 15.5271 13.6869 15.4548 13.9817 15.3825C14.1291 15.3825 14.2765 15.3102 14.4239 15.3102C14.8662 15.2379 15.3084 15.2379 15.6769 15.2379C15.8243 15.2379 15.898 15.2379 16.0454 15.2379C16.1928 15.2379 16.2665 15.3102 16.4139 15.3102C16.5613 15.3825 16.635 15.3825 16.7824 15.4548C17.1509 15.5994 17.5932 15.8163 17.9617 16.0332C18.2565 16.1778 18.5513 16.3947 18.8461 16.6115C18.9198 16.6838 18.9935 16.7561 19.0672 16.8284C19.362 17.1176 19.6568 17.4791 19.9517 17.8406C20.1728 18.1298 20.3939 18.4189 20.5413 18.7081C20.7624 19.0696 20.9098 19.4311 21.0572 19.7926C21.1309 20.0095 21.2046 20.154 21.2783 20.3709C21.352 20.5878 21.352 20.877 21.4257 21.0939C21.4257 21.2385 21.4257 21.3831 21.4257 21.5277C21.2783 21.8892 21.2783 22.1783 21.2046 22.3952ZM15.8243 20.7324C15.8243 20.8047 15.8243 20.8047 15.898 20.877C15.898 20.9493 15.898 20.9493 15.898 21.0216C15.8243 21.0939 15.7506 21.1662 15.6769 21.2385C15.6769 21.2385 15.6769 21.2385 15.6032 21.2385C15.5295 21.2385 15.4558 21.3108 15.3821 21.3108C15.3084 21.3108 15.161 21.3831 15.0873 21.3831C15.0136 21.3831 14.9399 21.3831 14.9399 21.3831C14.8662 21.3831 14.7925 21.3831 14.7188 21.3831C14.4977 21.3831 14.2028 21.3831 13.9817 21.3108C13.908 21.3108 13.8343 21.3108 13.8343 21.3108C13.7606 21.3108 13.6869 21.2385 13.5395 21.2385C13.4658 21.2385 13.3184 21.3108 13.2447 21.3108C13.2447 21.1662 13.2447 20.9493 13.2447 20.8047C13.2447 20.6601 13.2447 20.5878 13.2447 20.5155C13.2447 20.4432 13.2447 20.4432 13.2447 20.3709C13.2447 20.2986 13.3184 20.154 13.3184 20.0818C13.3921 19.9372 13.3921 19.8649 13.4658 19.7203C13.4658 19.648 13.5395 19.648 13.5395 19.5757C13.6132 19.4311 13.7606 19.3588 13.8343 19.2142C13.908 19.1419 13.9817 19.0696 14.0554 19.0696C14.1291 18.9973 14.2028 18.925 14.3502 18.925C14.3502 18.925 14.4239 18.925 14.4239 18.8527C14.4239 18.9973 14.4977 19.0696 14.5714 19.1419C14.6451 19.2142 14.6451 19.2142 14.7188 19.2142L14.7925 19.2865C14.8662 19.3588 14.8662 19.3588 14.9399 19.4311C15.0136 19.5034 15.161 19.648 15.2347 19.7926C15.3084 19.9372 15.3821 20.0095 15.4558 20.154C15.6032 20.3709 15.6769 20.5155 15.8243 20.7324ZM15.6769 18.6358C15.7506 18.6358 15.7506 18.6358 15.6769 18.6358C15.8243 18.6358 15.898 18.7081 15.9717 18.7081H16.0454C15.9717 18.7081 15.9717 18.7804 15.9717 18.8527C15.898 18.7804 15.8243 18.7081 15.6769 18.6358ZM16.1928 22.829C16.2665 22.829 16.2665 22.829 16.1928 22.829C16.2665 22.7567 16.2665 22.7567 16.2665 22.7567C16.4139 22.6844 16.5613 22.6121 16.7087 22.5398C16.9298 22.3952 17.1509 22.2506 17.2984 22.106C17.4458 21.9614 17.5195 21.8169 17.5932 21.6723C17.5932 21.7446 17.5932 21.8169 17.5195 21.8892C17.5195 21.9615 17.5195 21.9614 17.4458 22.0337C17.4458 22.106 17.3721 22.106 17.3721 22.1783C17.2984 22.2506 17.2984 22.3229 17.2247 22.3229L17.1509 22.3952C17.1509 22.3952 17.0772 22.4675 17.0035 22.4675L16.9298 22.5398C16.8561 22.5398 16.7824 22.6121 16.7824 22.6121C16.7087 22.6844 16.5613 22.6844 16.4876 22.6844H16.4139C16.4139 22.829 16.3402 22.829 16.1928 22.829Z" fill="#2D2E31"/>
<path d="M15.6032 27.3113C15.5295 27.3113 15.5295 27.3113 15.6032 27.3113V27.3113Z" fill="#2D2E31"/>
<path d="M26.9534 9.67109C26.8797 9.74338 26.806 9.88798 26.806 10.0326C26.806 10.1049 26.8797 10.1772 26.8797 10.2495C26.7323 10.4663 26.5112 10.6109 26.3638 10.7555C26.1426 10.9724 25.9215 11.1893 25.7741 11.3339C25.553 11.5508 25.3319 11.6954 25.1845 11.9846C25.1108 12.0569 25.0371 12.2015 25.0371 12.2737L25.1108 12.346H25.1845C25.2582 12.346 25.2582 12.2015 25.1845 12.2015C25.2582 12.0569 25.4056 11.9846 25.553 11.84L25.6267 11.7677C25.9952 11.4062 26.3638 11.0447 26.7323 10.6832C26.806 10.6109 26.806 10.6109 26.8797 10.5386C26.9534 10.4663 26.9534 10.4663 27.0271 10.394C27.1745 10.394 27.2482 10.4663 27.3956 10.394C27.4693 10.3218 27.543 10.3218 27.6167 10.2495C27.6904 10.1772 27.8378 10.0326 27.9115 9.96027C28.1326 9.74338 28.3537 9.59879 28.5748 9.3819C29.0171 9.02042 29.3856 8.65894 29.8278 8.29746L29.9015 8.22517C29.9015 8.22517 29.9752 8.22517 29.9752 8.15287C30.27 8.08057 30.4174 8.00828 30.4911 7.93598C30.5648 7.86369 30.6385 7.79139 30.7122 7.71909L30.7859 7.6468C30.8596 7.5745 30.9333 7.50221 31.007 7.42991C31.0807 7.28532 31.1544 7.21302 31.0807 7.06843C31.0807 6.92384 31.007 6.85154 31.007 6.77924C30.8596 6.56236 30.4911 6.41776 30.1963 6.56236C30.0489 6.63465 29.9015 6.77925 29.7541 6.85154C29.6804 6.92384 29.533 6.99613 29.4593 7.06843C28.8696 7.5745 28.28 8.08057 27.7641 8.65894C27.6167 8.80354 27.543 8.94813 27.4693 9.09272C27.3956 9.16502 27.3219 9.23731 27.2482 9.30961C27.1745 9.3819 27.0271 9.5265 26.9534 9.67109Z" fill="#2D2E31"/>
<path d="M32.9233 10.8272C32.8496 10.6826 32.7759 10.6103 32.6285 10.538C32.4811 10.4657 32.4074 10.4657 32.26 10.538C32.26 10.538 32.1863 10.538 32.1863 10.6103C32.1126 10.6826 31.9652 10.6826 31.8915 10.6826C31.8178 10.6826 31.7441 10.7549 31.5967 10.7549C31.523 10.8272 31.4493 10.8272 31.3756 10.8995C30.8596 11.1887 30.3437 11.4056 29.8278 11.6225C29.533 11.7671 29.2382 11.8394 29.0171 11.9839C28.8697 12.0562 28.7223 12.1285 28.6486 12.2008L28.5749 12.2731C28.5011 12.2731 28.5011 12.3454 28.4274 12.4177C28.4274 12.49 28.3537 12.49 28.3537 12.5623V12.6346C28.0589 12.7792 27.6904 12.9238 27.3956 13.1407C27.1745 13.2853 26.8797 13.4299 26.6586 13.5745C26.5112 13.6468 26.4375 13.719 26.3638 13.7913C26.2901 13.8636 26.2164 13.8636 26.2164 13.9359C26.2164 13.8636 26.1427 13.8636 26.1427 13.7913C26.069 13.6468 25.9216 13.4299 25.8478 13.2853C25.7741 13.1407 25.6267 12.9961 25.553 12.8515C25.3319 12.5623 25.1108 12.2008 24.816 11.9116C24.5949 11.6225 24.3001 11.4056 24.0053 11.1887C23.7105 10.9718 23.4894 10.7549 23.1946 10.538L23.1208 10.4657C23.1945 10.2488 23.2683 10.1042 23.4157 9.88736C23.5631 9.67047 23.6368 9.38128 23.7842 9.1644C24.0053 8.73062 24.3001 8.29684 24.5212 7.86307C24.5949 7.79077 24.5949 7.71847 24.6686 7.64618C24.7423 7.64618 24.7423 7.64618 24.816 7.64618C24.8897 7.64618 24.9634 7.64618 25.0371 7.57388C25.1845 7.50159 25.2582 7.42929 25.3319 7.2847C25.4056 7.14011 25.4793 7.06781 25.553 6.92322C25.7004 6.70633 25.8478 6.48944 25.9216 6.20026C26.069 5.98337 26.1427 5.76648 26.2901 5.4773C26.3638 5.405 26.5112 5.18811 26.5849 4.97122C26.6586 4.82663 26.806 4.68204 26.8797 4.46515V4.39286C26.9534 4.24826 27.0271 4.17597 27.1008 4.03137C27.1008 3.95908 27.1745 3.88678 27.1745 3.88678C27.2482 3.66989 27.2482 3.45301 27.1745 3.23612C27.1008 3.09153 26.806 2.94693 26.5849 3.01923C26.3638 3.09153 26.2164 3.16382 26.1427 3.30841C26.1427 3.38071 26.069 3.38071 26.069 3.45301C25.9953 3.5253 25.9216 3.66989 25.8478 3.74219C25.7004 3.88678 25.6267 4.10367 25.553 4.24826C25.4793 4.39286 25.4056 4.53745 25.3319 4.68204C25.2582 4.82663 25.1845 5.04352 25.1108 5.18811C24.9634 5.4773 24.816 5.83878 24.6686 6.12796C24.5949 6.27255 24.5212 6.41715 24.3738 6.63403C24.3001 6.77863 24.2264 6.92322 24.2264 7.06781C24.2264 7.2124 24.2264 7.35699 24.3738 7.50159C24.3001 7.71847 24.1527 7.86307 24.079 8.07996C23.9316 8.36914 23.7105 8.73062 23.5631 9.0198C23.4157 9.38129 23.2683 9.67047 23.1208 10.0319C22.9734 10.1042 22.8997 10.2488 22.8997 10.3934C22.7523 10.2488 22.6049 10.1765 22.4575 10.1042C22.2364 9.95965 22.089 9.81506 21.8679 9.74277C21.6468 9.59817 21.352 9.45358 21.1309 9.38129C20.9098 9.30899 20.6887 9.1644 20.4676 9.0921C20.4676 9.0921 20.3938 9.0921 20.3938 9.0198C20.3201 8.94751 20.1727 8.94751 20.099 8.87521C19.8042 8.73062 19.4357 8.65832 19.1409 8.51373C18.7724 8.36914 18.4776 8.22455 18.1091 8.15225C17.7405 8.00766 17.372 7.93536 17.0035 7.93536C16.635 7.86307 16.2665 7.86307 15.8243 7.86307C15.4558 7.86307 15.0872 7.93536 14.7187 7.93536C14.3502 8.00766 13.9817 8.00766 13.6132 8.07996C13.2447 8.15225 12.8762 8.29684 12.5077 8.36914C12.1391 8.44144 11.8443 8.58603 11.4758 8.73062C11.1073 8.87521 10.7388 9.0198 10.444 9.1644C10.0755 9.23669 9.70695 9.38129 9.41214 9.59817C9.11733 9.81506 8.82252 9.95965 8.52771 10.1765C8.23289 10.3934 7.93808 10.6103 7.64327 10.8272C7.05365 11.261 6.46403 11.7671 6.02181 12.3454C5.8007 12.6346 5.50589 12.9238 5.28478 13.213C5.06368 13.5022 4.84257 13.8636 4.69516 14.1528C4.47405 14.5866 4.32665 14.9481 4.17924 15.3096C4.03184 15.5987 3.88443 15.9602 3.81073 16.3217C3.66332 16.6832 3.58962 17.0447 3.51592 17.3339C3.44222 17.4784 3.44222 17.6953 3.36851 17.8399C3.36851 17.9845 3.29481 18.2014 3.29481 18.346C3.0737 19.2858 3 20.298 3 21.3101C3 21.6716 3 22.0331 3 22.3946C3 22.7561 3.0737 23.0452 3.0737 23.4067C3.0737 23.6236 3.14741 23.8405 3.14741 23.9851C3.14741 24.1297 3.22111 24.3466 3.29481 24.4912C3.36851 24.8526 3.51592 25.2141 3.66332 25.5756C3.81073 25.9371 3.95814 26.2263 4.10554 26.5878C4.25295 26.9492 4.47405 27.2384 4.69516 27.5276C4.84257 27.6722 4.91627 27.8168 5.06368 27.9614C5.21108 28.106 5.35849 28.1783 5.50589 28.3229C5.8007 28.5397 6.09552 28.8289 6.39033 28.9735C6.68514 29.1904 6.97995 29.335 7.27476 29.5519C7.56957 29.7688 7.86438 29.9857 8.15919 30.1303C8.454 30.3471 8.74881 30.4917 9.04362 30.7086C9.33844 30.8532 9.70695 30.9978 10.0018 31.1424C10.0755 31.1424 10.1492 31.2147 10.2229 31.2147C10.7388 31.4316 11.181 31.6485 11.6969 31.7931C11.918 31.8654 12.2128 31.9377 12.434 31.9377C12.6551 31.9377 12.9499 31.9377 13.171 32.01C13.3184 32.01 13.4658 32.0823 13.6132 32.0823C13.6869 32.0823 13.7606 32.0823 13.8343 32.1546C13.908 32.1546 13.9817 32.1546 14.0554 32.2268C14.2028 32.2268 14.2765 32.2268 14.4239 32.2268C14.4976 32.2268 14.4976 32.1546 14.4239 32.1546C14.3502 32.1546 14.2765 32.1546 14.2028 32.1546C14.1291 32.1546 14.1291 32.0823 14.0554 32.0823C14.2765 32.0823 14.4239 32.0823 14.645 32.0823C14.7924 32.0823 15.0135 32.0823 15.161 32.0823C15.5295 32.0823 15.8243 32.1546 16.1928 32.2268C16.3402 32.2268 16.4876 32.2268 16.635 32.2268C16.8561 32.2268 17.0035 32.2268 17.2246 32.2268C17.5931 32.2268 17.9617 32.1546 18.3302 32.0823C18.6987 32.01 19.0672 31.9377 19.4357 31.8654C19.7305 31.7931 20.099 31.6485 20.3938 31.5762C20.7624 31.4316 21.0572 31.287 21.352 31.1424C21.6468 30.9978 22.0153 30.8532 22.3101 30.7086C22.4575 30.6363 22.6786 30.564 22.826 30.4194C22.9734 30.3471 23.1208 30.2026 23.2683 30.1303C23.7842 29.6965 24.3001 29.2627 24.7423 28.7566C25.1845 28.2506 25.553 27.5999 25.8478 27.0215C26.1427 26.3709 26.3638 25.7202 26.5849 25.0695C26.6586 24.7081 26.806 24.3466 26.8797 24.0574C26.9534 23.6959 27.0271 23.4067 27.1008 23.0452C27.1745 22.6838 27.2482 22.3223 27.2482 21.9608C27.3219 21.5993 27.3219 21.3101 27.3219 20.9487C27.3219 20.7318 27.3219 20.5149 27.3219 20.3703C27.3219 20.2257 27.3219 20.0088 27.2482 19.8642C27.2482 19.5027 27.1745 19.1413 27.1008 18.7798C27.1008 18.4906 27.0271 18.2737 27.0271 17.9845C26.9534 17.623 26.9534 17.3339 26.8797 16.9724C26.806 16.6109 26.7323 16.2494 26.6586 15.8879C26.5849 15.5265 26.4375 15.165 26.2901 14.8758C26.2164 14.6589 26.069 14.442 25.9953 14.2251C25.9953 14.2251 25.9953 14.2251 26.069 14.2251C26.2901 14.0805 26.5112 13.9359 26.7323 13.7913C27.2482 13.5022 27.7641 13.213 28.28 12.9961C28.28 12.9961 28.3537 12.9961 28.3537 13.0684C28.4274 13.0684 28.4274 13.0684 28.5011 13.0684C28.5748 13.0684 28.7223 13.0684 28.796 13.0684C28.8697 13.0684 29.0171 12.9961 29.0908 12.9961C29.1645 12.9961 29.2382 12.9238 29.3119 12.9238C29.6067 12.8515 29.8278 12.7069 30.1226 12.6346C30.4174 12.49 30.7122 12.4177 31.007 12.2731C31.1544 12.2008 31.3019 12.2008 31.3756 12.1285C31.523 12.0562 31.5967 12.0562 31.7441 11.9839C31.8178 11.9839 31.8915 11.9839 31.8915 11.9116C31.9652 11.9116 32.0389 11.8394 32.1126 11.8394C32.1126 11.8394 32.1126 11.8394 32.1863 11.8394C32.26 11.7671 32.3337 11.7671 32.4811 11.6948C32.5548 11.6225 32.7022 11.6225 32.7759 11.5502C32.997 11.3333 33.0707 11.0441 32.9233 10.8272ZM24.4475 27.2384C24.3001 27.4553 24.1527 27.6722 23.9316 27.9614C23.7842 28.106 23.7105 28.2506 23.5631 28.3952C23.4157 28.5397 23.342 28.6843 23.1946 28.7566C22.9734 28.9735 22.6786 29.1904 22.4575 29.4073C22.4575 29.4073 22.5312 29.4073 22.5312 29.335L22.4575 29.4073C22.2364 29.5519 22.089 29.6965 21.8679 29.7688C21.4994 29.9857 21.1309 30.2026 20.6887 30.4194C20.3201 30.6363 19.9516 30.8532 19.5094 30.9978C19.2883 31.0701 18.9935 31.1424 18.7724 31.2147C18.3302 31.3593 17.8143 31.4316 17.372 31.5039C17.372 31.5039 17.372 31.5039 17.2983 31.5039C16.9298 31.5762 16.5613 31.5762 16.1928 31.5762C16.1191 31.5762 15.9717 31.5762 15.898 31.5762C16.0454 31.5762 16.1928 31.5039 16.3402 31.4316C17.0035 31.2147 17.6668 30.9255 18.3302 30.7086C18.625 30.564 18.9935 30.4917 19.2883 30.3471C19.5831 30.2026 19.8779 30.1303 20.2464 29.9857C20.5413 29.8411 20.8361 29.6965 21.1309 29.5519C21.4257 29.4073 21.7205 29.2627 22.089 29.0458C22.3838 28.9012 22.6786 28.7566 22.9734 28.5397C23.1208 28.4674 23.2683 28.3229 23.4157 28.2506C23.5631 28.1783 23.7105 28.0337 23.7842 27.8891C24.0053 27.6722 24.3001 27.4553 24.5212 27.1661C24.6686 27.0215 24.7423 26.8769 24.816 26.7323C24.816 26.66 24.8897 26.5878 24.8897 26.5878C24.6686 26.8046 24.5949 27.0215 24.4475 27.2384ZM26.2901 20.6595C26.2901 21.1655 26.2164 21.6716 26.1427 22.1777C26.069 22.6115 25.9953 22.9729 25.9216 23.4067C25.8478 23.7682 25.7741 24.1297 25.6267 24.4189C25.553 24.5635 25.4793 24.6358 25.4793 24.7081C25.3319 24.8526 25.2582 25.0695 25.1108 25.2141C24.8897 25.5756 24.6686 25.9371 24.4475 26.2986C24.3738 26.4432 24.3001 26.5878 24.1527 26.66C24.0053 26.8769 23.7842 27.0938 23.5631 27.2384C23.342 27.4553 23.0471 27.7445 22.7523 27.9614C22.5312 28.106 22.3101 28.2506 22.0153 28.3952C22.0153 28.3952 21.9416 28.3952 21.9416 28.4675C21.5731 28.6843 21.1309 28.9012 20.7624 29.1181C20.3938 29.335 20.0253 29.5519 19.5831 29.6965H19.4357C19.1409 29.8411 18.8461 29.9134 18.5513 30.058C18.2565 30.2026 17.9617 30.2749 17.5931 30.4194C17.2983 30.564 17.0035 30.6363 16.635 30.7809C16.3402 30.9255 15.9717 30.9978 15.6769 31.0701C15.0872 31.2147 14.4976 31.287 13.908 31.3593H13.8343C13.7606 31.3593 13.6132 31.3593 13.5395 31.4316C13.5395 31.4316 13.5395 31.5045 13.4658 31.5045C13.4658 31.5768 13.4658 31.6485 13.4658 31.7208C13.3184 31.6485 13.171 31.6485 13.0973 31.5762C12.9499 31.5039 12.8025 31.5039 12.7288 31.4316C12.5814 31.3593 12.5077 31.3593 12.3602 31.287C12.2865 31.2147 12.1391 31.2147 12.0654 31.1424C11.9917 31.0701 11.918 31.0701 11.8443 30.9978C11.4758 30.7809 11.1073 30.564 10.7388 30.2749C10.3703 30.058 10.0755 29.8411 9.70695 29.6242H9.63325C9.63325 29.6242 9.63325 29.6242 9.55954 29.6242C9.04362 29.335 8.60141 28.9735 8.08549 28.6843C7.56957 28.3952 7.12735 28.106 6.61143 27.7445C6.31662 27.5276 6.09552 27.3107 5.87441 27.0938C5.727 26.9492 5.6533 26.8046 5.50589 26.7323C5.35849 26.5155 5.21108 26.2986 5.06368 26.0817C4.91627 25.7925 4.76887 25.5756 4.69516 25.2864C4.54776 24.9249 4.40035 24.5635 4.32665 24.1297C4.32665 23.9851 4.25295 23.9128 4.25295 23.7682C4.25295 23.6236 4.17924 23.479 4.17924 23.3344V23.2621C4.10554 22.9007 4.10554 22.5392 4.10554 22.1054C4.10554 21.7439 4.10554 21.3101 4.10554 20.9487C4.10554 20.8764 4.10554 20.8764 4.10554 20.8041C4.10554 20.4426 4.17924 20.0811 4.17924 19.7196C4.17924 19.2858 4.25295 18.9244 4.32665 18.4906C4.32665 18.4183 4.32665 18.4183 4.32665 18.346C4.40035 17.9122 4.47405 17.5507 4.62146 17.117C4.69516 16.7555 4.84257 16.4663 4.91627 16.1771C5.06368 15.8156 5.21108 15.5265 5.28478 15.165C5.35849 15.0204 5.43219 14.8758 5.50589 14.7312C5.8007 14.7312 5.87441 14.5866 5.94811 14.442C6.02181 14.2974 6.09552 14.2251 6.16922 14.0805C6.24292 13.9359 6.39033 13.7913 6.46403 13.719C6.83254 13.2853 7.20106 12.8515 7.56957 12.49C7.79068 12.2731 8.08549 12.0562 8.3066 11.8394C8.52771 11.6225 8.82252 11.4779 9.04362 11.261C9.26473 11.1164 9.48584 10.9718 9.70695 10.8272C9.92806 10.6826 10.1492 10.538 10.3703 10.4657C10.7388 10.2488 11.1073 10.0319 11.5495 9.88736C11.8443 9.67047 12.2128 9.52588 12.5077 9.45358C12.8025 9.38128 13.171 9.23669 13.4658 9.1644C13.8343 9.0921 14.2028 9.0198 14.5713 9.0198H14.645C14.8661 9.0198 15.0872 8.94751 15.3084 8.94751C15.5295 8.94751 15.8243 8.94751 16.0454 8.94751C16.2665 8.94751 16.4139 8.94751 16.635 9.0198H16.7087C17.0035 9.0921 17.2983 9.1644 17.5931 9.23669C17.9617 9.30899 18.2565 9.45358 18.625 9.59817C18.9198 9.74277 19.2146 9.81506 19.5831 9.95965C20.0253 10.1765 20.4675 10.3934 20.9098 10.6103C21.2783 10.8272 21.7205 11.1164 22.089 11.4056C22.089 11.4056 22.0153 11.4056 22.0153 11.3333C22.089 11.3333 22.089 11.4056 22.1627 11.4056C22.1627 11.4056 22.089 11.4056 22.089 11.3333C22.6049 11.6948 23.0471 12.1285 23.4894 12.5623C23.6368 12.7069 23.7842 12.9238 23.9316 13.0684L24.0053 13.1407C24.2264 13.4299 24.4475 13.719 24.6686 14.0805C24.9634 14.5143 25.1845 15.0204 25.4056 15.5265C25.4793 15.7433 25.553 15.9602 25.6267 16.1771C25.7741 16.6832 25.8478 17.117 25.9216 17.623C25.9216 17.8399 25.9953 18.1291 25.9953 18.346C25.9953 18.5629 26.069 18.7798 26.069 18.9967C26.069 18.9967 26.069 18.9967 26.069 19.069C26.069 19.2858 26.1427 19.575 26.1427 19.7919C26.2164 20.1534 26.2901 20.3703 26.2901 20.6595Z" fill="#2D2E31"/>
</svg>
